<?xml version="1.0" encoding="utf-8"?>
<!-- Generator: Adobe Illustrator 25.0.0, SVG Export Plug-In . SVG Version: 6.00 Build 0)  -->
<svg version="1.1" id="Calque_1" xmlns="http://www.w3.org/2000/svg" xmlns:xlink="http://www.w3.org/1999/xlink" x="0px" y="0px"
	 viewBox="0 0 1980 250" style="enable-background:new 0 0 1980 250;" xml:space="preserve">
<style type="text/css">
	.st0{clip-path:url(#SVGID_3_);}
	.st1{fill:url(#SVGID_4_);}
	.st2{opacity:0.1;}
	.st3{fill:url(#SVGID_5_);}
	.st4{fill:url(#SVGID_6_);}
	.st5{fill:url(#SVGID_7_);}
	.st6{fill:url(#SVGID_8_);}
	.st7{fill:url(#SVGID_9_);}
	.st8{fill:url(#SVGID_10_);}
	.st9{fill:url(#SVGID_11_);}
	.st10{fill:url(#SVGID_12_);}
	.st11{fill:url(#SVGID_13_);}
	.st12{fill:url(#SVGID_14_);}
	.st13{fill:url(#SVGID_15_);}
	.st14{fill:url(#SVGID_16_);}
	.st15{fill:url(#SVGID_17_);}
	.st16{fill:url(#SVGID_18_);}
	.st17{fill:url(#SVGID_19_);}
	.st18{fill:url(#SVGID_20_);}
	.st19{fill:url(#SVGID_21_);}
	.st20{fill:url(#SVGID_22_);}
	.st21{fill:url(#SVGID_23_);}
	.st22{fill:url(#SVGID_24_);}
	.st23{fill:url(#SVGID_25_);}
	.st24{fill:url(#SVGID_26_);}
	.st25{fill:url(#SVGID_27_);}
	.st26{fill:url(#SVGID_28_);}
	.st27{fill:url(#SVGID_29_);}
	.st28{fill:url(#SVGID_30_);}
	.st29{fill:url(#SVGID_31_);}
	.st30{fill:url(#SVGID_32_);}
	.st31{fill:url(#SVGID_33_);}
	.st32{fill:url(#SVGID_34_);}
	.st33{fill:url(#SVGID_35_);}
	.st34{fill:url(#SVGID_36_);}
	.st35{fill:url(#SVGID_37_);}
	.st36{fill:url(#SVGID_38_);}
	.st37{fill:url(#SVGID_39_);}
	.st38{fill:url(#SVGID_40_);}
	.st39{fill:url(#SVGID_41_);}
	.st40{fill:url(#SVGID_42_);}
	.st41{fill:url(#SVGID_43_);}
	.st42{fill:url(#SVGID_44_);}
	.st43{fill:url(#SVGID_45_);}
	.st44{fill:url(#SVGID_46_);}
	.st45{fill:url(#SVGID_47_);}
	.st46{fill:url(#SVGID_48_);}
	.st47{fill:url(#SVGID_49_);}
</style>
<g>
	<defs>
		<rect id="SVGID_1_" width="1980" height="250"/>
	</defs>
	<clipPath id="SVGID_3_">
		<use xlink:href="#SVGID_1_"  style="overflow:visible;"/>
	</clipPath>
	<g class="st0">
		<g>
			
				<linearGradient id="SVGID_4_" gradientUnits="userSpaceOnUse" x1="889.9836" y1="137.9797" x2="1139.9835" y2="137.9797" gradientTransform="matrix(0 -1 -1 0 1127.801 1139.8407)">
				<stop  offset="0" style="stop-color:#16F7B4"/>
				<stop  offset="1" style="stop-color:#21BBEE"/>
			</linearGradient>
			<polygon id="SVGID_2_" class="st1" points="1979.8,-0.1 1979.8,249.9 -0.2,249.9 -0.2,-0.1 			"/>
		</g>
		<g class="st2">
			<g>
				<g>
					<linearGradient id="SVGID_5_" gradientUnits="userSpaceOnUse" x1="552.7362" y1="88.8507" x2="598.4852" y2="88.8507">
						<stop  offset="0" style="stop-color:#1C2057"/>
						<stop  offset="1" style="stop-color:#17243E"/>
					</linearGradient>
					<polygon class="st3" points="576.6,113.8 598.5,63.9 552.7,63.9 574.9,113.8 					"/>
					<linearGradient id="SVGID_6_" gradientUnits="userSpaceOnUse" x1="512.0392" y1="80.2903" x2="640.0242" y2="80.2903">
						<stop  offset="0" style="stop-color:#1C2057"/>
						<stop  offset="1" style="stop-color:#17243E"/>
					</linearGradient>
					<path class="st4" d="M576,16.3c-35.4,0-64,28.6-64,64s28.6,64,64,64s64-28.6,64-64S611.4,16.3,576,16.3z M583.9,124.9h-16.3
						l-32.3-71.3l-0.1-0.6h81L583.9,124.9z"/>
				</g>
				<linearGradient id="SVGID_7_" gradientUnits="userSpaceOnUse" x1="483.4005" y1="80.3563" x2="668.8016" y2="80.3563">
					<stop  offset="0" style="stop-color:#1C2057"/>
					<stop  offset="1" style="stop-color:#17243E"/>
				</linearGradient>
				<path class="st5" d="M668.8,81.6c0.4-10.1-14.3-17.1-26.8-21.3c0.4,1.7,0.7,3.4,1,5.1c9.5,3.4,16.3,7.2,19.5,10.9
					c1.5,1.7,2.2,3.5,2.2,5.2c-0.1,5.2-8.6,10.4-22.9,14.2c-15.9,4.2-39.2,6.7-66.7,5.5c-27.5-1.1-50.5-5.6-66.1-11.1
					c-13.9-4.9-21.9-10.8-21.6-16.1c0.3-5.3,8.6-10.4,22.9-14.2c0.4-1.7,0.8-3.4,1.4-4.9c-12.9,3.1-27.9,9-28.3,19.1
					c-0.1,3.1,1.1,5.9,3.4,8.3c5.1,5.8,14.7,10.1,23.6,13.1c0.1,0,0.3,0.1,0.6,0.1c17.1,5.6,40,9.3,64.4,10.4
					c24.4,1,47.4-0.7,65-4.9c0.1,0,0.3-0.1,0.6-0.1c9-2.1,19.1-5.6,24.4-10.9C667.2,87.3,668.7,84.6,668.8,81.6z"/>
			</g>
			<g>
				<g>
					<linearGradient id="SVGID_8_" gradientUnits="userSpaceOnUse" x1="412.7245" y1="233.5679" x2="458.4734" y2="233.5679">
						<stop  offset="0" style="stop-color:#1C2057"/>
						<stop  offset="1" style="stop-color:#17243E"/>
					</linearGradient>
					<polygon class="st6" points="436.6,258.5 458.5,208.6 412.7,208.6 434.9,258.5 					"/>
					<linearGradient id="SVGID_9_" gradientUnits="userSpaceOnUse" x1="372.0275" y1="225.0075" x2="500.0124" y2="225.0075">
						<stop  offset="0" style="stop-color:#1C2057"/>
						<stop  offset="1" style="stop-color:#17243E"/>
					</linearGradient>
					<path class="st7" d="M436,161c-35.4,0-64,28.6-64,64s28.6,64,64,64s64-28.6,64-64S471.4,161,436,161z M443.9,269.6h-16.3
						l-32.3-71.3l-0.1-0.6h81L443.9,269.6z"/>
				</g>
				<linearGradient id="SVGID_10_" gradientUnits="userSpaceOnUse" x1="343.3887" y1="225.0735" x2="528.7898" y2="225.0735">
					<stop  offset="0" style="stop-color:#1C2057"/>
					<stop  offset="1" style="stop-color:#17243E"/>
				</linearGradient>
				<path class="st8" d="M528.8,226.3c0.4-10.1-14.3-17.1-26.8-21.3c0.4,1.7,0.7,3.4,1,5.1c9.5,3.4,16.3,7.2,19.5,10.9
					c1.5,1.7,2.2,3.5,2.2,5.2c-0.1,5.2-8.6,10.4-22.9,14.2c-15.9,4.2-39.2,6.7-66.7,5.5c-27.5-1.1-50.5-5.6-66.1-11.1
					c-13.9-4.9-21.9-10.8-21.6-16.1c0.3-5.3,8.6-10.4,22.9-14.2c0.4-1.7,0.8-3.4,1.4-4.9c-12.9,3.1-27.9,9-28.3,19.1
					c-0.1,3.1,1.1,5.9,3.4,8.3c5.1,5.8,14.7,10.1,23.6,13.1c0.1,0,0.3,0.1,0.6,0.1c17.1,5.6,40,9.3,64.4,10.4
					c24.4,1,47.4-0.7,65-4.9c0.1,0,0.3-0.1,0.6-0.1c9-2.1,19.1-5.6,24.4-10.9C527.2,232,528.6,229.4,528.8,226.3z"/>
			</g>
			<g>
				<g>
					<linearGradient id="SVGID_11_" gradientUnits="userSpaceOnUse" x1="125.581" y1="233.5679" x2="171.33" y2="233.5679">
						<stop  offset="0" style="stop-color:#1C2057"/>
						<stop  offset="1" style="stop-color:#17243E"/>
					</linearGradient>
					<polygon class="st9" points="149.4,258.5 171.3,208.6 125.6,208.6 147.8,258.5 					"/>
					<linearGradient id="SVGID_12_" gradientUnits="userSpaceOnUse" x1="84.884" y1="225.0075" x2="212.8689" y2="225.0075">
						<stop  offset="0" style="stop-color:#1C2057"/>
						<stop  offset="1" style="stop-color:#17243E"/>
					</linearGradient>
					<path class="st10" d="M148.9,161c-35.4,0-64,28.6-64,64s28.6,64,64,64s64-28.6,64-64S184.2,161,148.9,161z M156.7,269.6h-16.3
						l-32.3-71.3l-0.1-0.6h81L156.7,269.6z"/>
				</g>
				<linearGradient id="SVGID_13_" gradientUnits="userSpaceOnUse" x1="56.2452" y1="225.0735" x2="241.6463" y2="225.0735">
					<stop  offset="0" style="stop-color:#1C2057"/>
					<stop  offset="1" style="stop-color:#17243E"/>
				</linearGradient>
				<path class="st11" d="M241.6,226.3c0.4-10.1-14.3-17.1-26.8-21.3c0.4,1.7,0.7,3.4,1,5.1c9.5,3.4,16.3,7.2,19.5,10.9
					c1.5,1.7,2.2,3.5,2.2,5.2c-0.1,5.2-8.6,10.4-22.9,14.2c-15.9,4.2-39.2,6.7-66.7,5.5c-27.5-1.1-50.5-5.6-66.1-11.1
					C68,229.8,60,223.9,60.3,218.6c0.3-5.3,8.6-10.4,22.9-14.2c0.4-1.7,0.8-3.4,1.4-4.9c-12.9,3.1-27.9,9-28.3,19.1
					c-0.1,3.1,1.1,5.9,3.4,8.3c5.1,5.8,14.7,10.1,23.6,13.1c0.1,0,0.3,0.1,0.6,0.1c17.1,5.6,40,9.3,64.4,10.4
					c24.4,1,47.4-0.7,65-4.9c0.1,0,0.3-0.1,0.6-0.1c9-2.1,19.1-5.6,24.4-10.9C240.1,232,241.5,229.4,241.6,226.3z"/>
			</g>
			<g>
				<g>
					<linearGradient id="SVGID_14_" gradientUnits="userSpaceOnUse" x1="699.8679" y1="233.5679" x2="745.6169" y2="233.5679">
						<stop  offset="0" style="stop-color:#1C2057"/>
						<stop  offset="1" style="stop-color:#17243E"/>
					</linearGradient>
					<polygon class="st12" points="723.7,258.5 745.6,208.6 699.9,208.6 722,258.5 					"/>
					<linearGradient id="SVGID_15_" gradientUnits="userSpaceOnUse" x1="659.171" y1="225.0075" x2="787.1559" y2="225.0075">
						<stop  offset="0" style="stop-color:#1C2057"/>
						<stop  offset="1" style="stop-color:#17243E"/>
					</linearGradient>
					<path class="st13" d="M723.2,161c-35.4,0-64,28.6-64,64s28.6,64,64,64s64-28.6,64-64S758.5,161,723.2,161z M731,269.6h-16.3
						l-32.3-71.3l-0.1-0.6h81L731,269.6z"/>
				</g>
				<linearGradient id="SVGID_16_" gradientUnits="userSpaceOnUse" x1="630.5322" y1="225.0735" x2="815.9333" y2="225.0735">
					<stop  offset="0" style="stop-color:#1C2057"/>
					<stop  offset="1" style="stop-color:#17243E"/>
				</linearGradient>
				<path class="st14" d="M815.9,226.3c0.4-10.1-14.3-17.1-26.8-21.3c0.4,1.7,0.7,3.4,1,5.1c9.5,3.4,16.3,7.2,19.5,10.9
					c1.5,1.7,2.2,3.5,2.2,5.2c-0.1,5.2-8.6,10.4-22.9,14.2c-15.9,4.2-39.2,6.7-66.7,5.5c-27.5-1.1-50.5-5.6-66.1-11.1
					c-13.9-4.9-21.9-10.8-21.6-16.1c0.3-5.3,8.6-10.4,22.9-14.2c0.4-1.7,0.8-3.4,1.4-4.9c-12.9,3.1-27.9,9-28.3,19.1
					c-0.1,3.1,1.1,5.9,3.4,8.3c5.1,5.8,14.7,10.1,23.6,13.1c0.1,0,0.3,0.1,0.6,0.1c17.1,5.6,40,9.3,64.4,10.4
					c24.4,1,47.4-0.7,65-4.9c0.1,0,0.3-0.1,0.6-0.1c9-2.1,19.1-5.6,24.4-10.9C814.4,232,815.8,229.4,815.9,226.3z"/>
			</g>
			<g>
				<g>
					<linearGradient id="SVGID_17_" gradientUnits="userSpaceOnUse" x1="840.8521" y1="88.8507" x2="886.6011" y2="88.8507">
						<stop  offset="0" style="stop-color:#1C2057"/>
						<stop  offset="1" style="stop-color:#17243E"/>
					</linearGradient>
					<polygon class="st15" points="864.7,113.8 886.6,63.9 840.9,63.9 863,113.8 					"/>
					<linearGradient id="SVGID_18_" gradientUnits="userSpaceOnUse" x1="800.1551" y1="80.2903" x2="928.1401" y2="80.2903">
						<stop  offset="0" style="stop-color:#1C2057"/>
						<stop  offset="1" style="stop-color:#17243E"/>
					</linearGradient>
					<path class="st16" d="M864.1,16.3c-35.4,0-64,28.6-64,64s28.6,64,64,64s64-28.6,64-64S899.5,16.3,864.1,16.3z M872,124.9h-16.3
						l-32.3-71.3l-0.1-0.6h81L872,124.9z"/>
				</g>
				<linearGradient id="SVGID_19_" gradientUnits="userSpaceOnUse" x1="771.5163" y1="80.3563" x2="956.9174" y2="80.3563">
					<stop  offset="0" style="stop-color:#1C2057"/>
					<stop  offset="1" style="stop-color:#17243E"/>
				</linearGradient>
				<path class="st17" d="M956.9,81.6c0.4-10.1-14.3-17.1-26.8-21.3c0.4,1.7,0.7,3.4,1,5.1c9.5,3.4,16.3,7.2,19.5,10.9
					c1.5,1.7,2.2,3.5,2.2,5.2c-0.1,5.2-8.6,10.4-22.9,14.2c-15.9,4.2-39.2,6.7-66.7,5.5c-27.5-1.1-50.5-5.6-66.1-11.1
					c-13.9-4.9-21.9-10.8-21.6-16.1c0.3-5.3,8.6-10.4,22.9-14.2c0.4-1.7,0.8-3.4,1.4-4.9c-12.9,3.1-27.9,9-28.3,19.1
					c-0.1,3.1,1.1,5.9,3.4,8.3c5.1,5.8,14.7,10.1,23.6,13.1c0.1,0,0.3,0.1,0.6,0.1c17.1,5.6,40,9.3,64.4,10.4
					c24.4,1,47.4-0.7,65-4.9c0.1,0,0.3-0.1,0.6-0.1c9-2.1,19.1-5.6,24.4-10.9C955.4,87.3,956.8,84.6,956.9,81.6z"/>
			</g>
			<g>
				<g>
					<linearGradient id="SVGID_20_" gradientUnits="userSpaceOnUse" x1="987.0114" y1="233.5679" x2="1032.7605" y2="233.5679">
						<stop  offset="0" style="stop-color:#1C2057"/>
						<stop  offset="1" style="stop-color:#17243E"/>
					</linearGradient>
					<polygon class="st18" points="1010.9,258.5 1032.8,208.6 987,208.6 1009.2,258.5 					"/>
					<linearGradient id="SVGID_21_" gradientUnits="userSpaceOnUse" x1="946.3145" y1="225.0075" x2="1074.2994" y2="225.0075">
						<stop  offset="0" style="stop-color:#1C2057"/>
						<stop  offset="1" style="stop-color:#17243E"/>
					</linearGradient>
					<path class="st19" d="M1010.3,161c-35.4,0-64,28.6-64,64s28.6,64,64,64c35.4,0,64-28.6,64-64S1045.7,161,1010.3,161z
						 M1018.2,269.6h-16.3l-32.3-71.3l-0.1-0.6h81L1018.2,269.6z"/>
				</g>
				<linearGradient id="SVGID_22_" gradientUnits="userSpaceOnUse" x1="917.6757" y1="225.0735" x2="1103.0768" y2="225.0735">
					<stop  offset="0" style="stop-color:#1C2057"/>
					<stop  offset="1" style="stop-color:#17243E"/>
				</linearGradient>
				<path class="st20" d="M1103.1,226.3c0.4-10.1-14.3-17.1-26.8-21.3c0.4,1.7,0.7,3.4,1,5.1c9.5,3.4,16.3,7.2,19.5,10.9
					c1.5,1.7,2.2,3.5,2.2,5.2c-0.1,5.2-8.6,10.4-22.9,14.2c-15.9,4.2-39.2,6.7-66.7,5.5c-27.5-1.1-50.5-5.6-66.1-11.1
					c-13.9-4.9-21.9-10.8-21.6-16.1c0.3-5.3,8.6-10.4,22.9-14.2c0.4-1.7,0.8-3.4,1.4-4.9c-12.9,3.1-27.9,9-28.3,19.1
					c-0.1,3.1,1.1,5.9,3.4,8.3c5.1,5.8,14.7,10.1,23.6,13.1c0.1,0,0.3,0.1,0.6,0.1c17.1,5.6,40,9.3,64.4,10.4
					c24.4,1,47.4-0.7,65-4.9c0.1,0,0.3-0.1,0.6-0.1c9-2.1,19.1-5.6,24.4-10.9C1101.5,232,1102.9,229.4,1103.1,226.3z"/>
			</g>
			<g>
				<g>
					<linearGradient id="SVGID_23_" gradientUnits="userSpaceOnUse" x1="-23.4955" y1="88.8507" x2="22.2535" y2="88.8507">
						<stop  offset="0" style="stop-color:#1C2057"/>
						<stop  offset="1" style="stop-color:#17243E"/>
					</linearGradient>
					<polygon class="st21" points="0.4,113.8 22.3,63.9 -23.5,63.9 -1.3,113.8 					"/>
					<linearGradient id="SVGID_24_" gradientUnits="userSpaceOnUse" x1="-64.1924" y1="80.2903" x2="63.7925" y2="80.2903">
						<stop  offset="0" style="stop-color:#1C2057"/>
						<stop  offset="1" style="stop-color:#17243E"/>
					</linearGradient>
					<path class="st22" d="M-0.2,16.3c-35.4,0-64,28.6-64,64s28.6,64,64,64s64-28.6,64-64S35.2,16.3-0.2,16.3z M7.7,124.9H-8.6
						l-32.3-71.3l-0.1-0.6h81L7.7,124.9z"/>
				</g>
				<linearGradient id="SVGID_25_" gradientUnits="userSpaceOnUse" x1="-92.8312" y1="80.3563" x2="92.5699" y2="80.3563">
					<stop  offset="0" style="stop-color:#1C2057"/>
					<stop  offset="1" style="stop-color:#17243E"/>
				</linearGradient>
				<path class="st23" d="M92.6,81.6C93,71.4,78.2,64.4,65.8,60.2c0.4,1.7,0.7,3.4,1,5.1c9.5,3.4,16.3,7.2,19.5,10.9
					c1.5,1.7,2.2,3.5,2.2,5.2c-0.1,5.2-8.6,10.4-22.9,14.2c-15.9,4.2-39.2,6.7-66.7,5.5c-27.5-1.1-50.5-5.6-66.1-11.1
					C-81,85.1-89,79.2-88.8,73.8s8.6-10.4,22.9-14.2c0.4-1.7,0.8-3.4,1.4-4.9c-12.9,3.1-27.9,9-28.3,19.1c-0.1,3.1,1.1,5.9,3.4,8.3
					c5.1,5.8,14.7,10.1,23.6,13.1c0.1,0,0.3,0.1,0.6,0.1c17.1,5.6,40,9.3,64.4,10.4c24.4,1,47.4-0.7,65-4.9c0.1,0,0.3-0.1,0.6-0.1
					c9-2.1,19.1-5.6,24.4-10.9C91,87.3,92.4,84.6,92.6,81.6z"/>
			</g>
			<g>
				<g>
					<linearGradient id="SVGID_26_" gradientUnits="userSpaceOnUse" x1="264.6204" y1="88.8507" x2="310.3694" y2="88.8507">
						<stop  offset="0" style="stop-color:#1C2057"/>
						<stop  offset="1" style="stop-color:#17243E"/>
					</linearGradient>
					<polygon class="st24" points="288.5,113.8 310.4,63.9 264.6,63.9 286.8,113.8 					"/>
					<linearGradient id="SVGID_27_" gradientUnits="userSpaceOnUse" x1="223.9234" y1="80.2903" x2="351.9084" y2="80.2903">
						<stop  offset="0" style="stop-color:#1C2057"/>
						<stop  offset="1" style="stop-color:#17243E"/>
					</linearGradient>
					<path class="st25" d="M287.9,16.3c-35.4,0-64,28.6-64,64s28.6,64,64,64s64-28.6,64-64S323.3,16.3,287.9,16.3z M295.8,124.9
						h-16.3l-32.3-71.3l-0.1-0.6h81L295.8,124.9z"/>
				</g>
				<linearGradient id="SVGID_28_" gradientUnits="userSpaceOnUse" x1="195.2846" y1="80.3563" x2="380.6857" y2="80.3563">
					<stop  offset="0" style="stop-color:#1C2057"/>
					<stop  offset="1" style="stop-color:#17243E"/>
				</linearGradient>
				<path class="st26" d="M380.7,81.6c0.4-10.1-14.3-17.1-26.8-21.3c0.4,1.7,0.7,3.4,1,5.1c9.5,3.4,16.3,7.2,19.5,10.9
					c1.5,1.7,2.2,3.5,2.2,5.2c-0.1,5.2-8.6,10.4-22.9,14.2c-15.9,4.2-39.2,6.7-66.7,5.5c-27.5-1.1-50.5-5.6-66.1-11.1
					c-13.9-4.9-21.9-10.8-21.6-16.1c0.3-5.3,8.6-10.4,22.9-14.2c0.4-1.7,0.8-3.4,1.4-4.9c-12.9,3.1-27.9,9-28.3,19.1
					c-0.1,3.1,1.1,5.9,3.4,8.3c5.1,5.8,14.7,10.1,23.6,13.1c0.1,0,0.3,0.1,0.6,0.1c17.1,5.6,40,9.3,64.4,10.4
					c24.4,1,47.4-0.7,65-4.9c0.1,0,0.3-0.1,0.6-0.1c9-2.1,19.1-5.6,24.4-10.9C379.1,87.3,380.5,84.6,380.7,81.6z"/>
			</g>
			<g>
				<g>
					<linearGradient id="SVGID_29_" gradientUnits="userSpaceOnUse" x1="1128.9679" y1="88.8507" x2="1174.7169" y2="88.8507">
						<stop  offset="0" style="stop-color:#1C2057"/>
						<stop  offset="1" style="stop-color:#17243E"/>
					</linearGradient>
					<polygon class="st27" points="1152.8,113.8 1174.7,63.9 1129,63.9 1151.1,113.8 					"/>
					<linearGradient id="SVGID_30_" gradientUnits="userSpaceOnUse" x1="1088.2709" y1="80.2903" x2="1216.2559" y2="80.2903">
						<stop  offset="0" style="stop-color:#1C2057"/>
						<stop  offset="1" style="stop-color:#17243E"/>
					</linearGradient>
					<path class="st28" d="M1152.3,16.3c-35.4,0-64,28.6-64,64s28.6,64,64,64s64-28.6,64-64S1187.6,16.3,1152.3,16.3z M1160.1,124.9
						h-16.3l-32.3-71.3l-0.1-0.6h81L1160.1,124.9z"/>
				</g>
				<linearGradient id="SVGID_31_" gradientUnits="userSpaceOnUse" x1="1059.6321" y1="80.3563" x2="1245.0332" y2="80.3563">
					<stop  offset="0" style="stop-color:#1C2057"/>
					<stop  offset="1" style="stop-color:#17243E"/>
				</linearGradient>
				<path class="st29" d="M1245,81.6c0.4-10.1-14.3-17.1-26.8-21.3c0.4,1.7,0.7,3.4,1,5.1c9.5,3.4,16.3,7.2,19.5,10.9
					c1.5,1.7,2.2,3.5,2.2,5.2c-0.1,5.2-8.6,10.4-22.9,14.2c-15.9,4.2-39.2,6.7-66.7,5.5c-27.5-1.1-50.5-5.6-66.1-11.1
					c-13.9-4.9-21.9-10.8-21.6-16.1s8.6-10.4,22.9-14.2c0.4-1.7,0.8-3.4,1.4-4.9c-12.9,3.1-27.9,9-28.3,19.1
					c-0.1,3.1,1.1,5.9,3.4,8.3c5.1,5.8,14.7,10.1,23.6,13.1c0.1,0,0.3,0.1,0.6,0.1c17.1,5.6,40,9.3,64.4,10.4
					c24.4,1,47.4-0.7,65-4.9c0.1,0,0.3-0.1,0.6-0.1c9-2.1,19.1-5.6,24.4-10.9C1243.5,87.3,1244.9,84.6,1245,81.6z"/>
			</g>
			<g>
				<g>
					<linearGradient id="SVGID_32_" gradientUnits="userSpaceOnUse" x1="1561.2985" y1="233.5679" x2="1607.0475" y2="233.5679">
						<stop  offset="0" style="stop-color:#1C2057"/>
						<stop  offset="1" style="stop-color:#17243E"/>
					</linearGradient>
					<polygon class="st30" points="1585.2,258.5 1607,208.6 1561.3,208.6 1583.5,258.5 					"/>
					<linearGradient id="SVGID_33_" gradientUnits="userSpaceOnUse" x1="1520.6014" y1="225.0075" x2="1648.5864" y2="225.0075">
						<stop  offset="0" style="stop-color:#1C2057"/>
						<stop  offset="1" style="stop-color:#17243E"/>
					</linearGradient>
					<path class="st31" d="M1584.6,161c-35.4,0-64,28.6-64,64s28.6,64,64,64s64-28.6,64-64S1620,161,1584.6,161z M1592.5,269.6
						h-16.3l-32.3-71.3l-0.1-0.6h81L1592.5,269.6z"/>
				</g>
				<linearGradient id="SVGID_34_" gradientUnits="userSpaceOnUse" x1="1491.9626" y1="225.0735" x2="1677.3638" y2="225.0735">
					<stop  offset="0" style="stop-color:#1C2057"/>
					<stop  offset="1" style="stop-color:#17243E"/>
				</linearGradient>
				<path class="st32" d="M1677.4,226.3c0.4-10.1-14.3-17.1-26.8-21.3c0.4,1.7,0.7,3.4,1,5.1c9.5,3.4,16.3,7.2,19.5,10.9
					c1.5,1.7,2.2,3.5,2.2,5.2c-0.1,5.2-8.6,10.4-22.9,14.2c-15.9,4.2-39.2,6.7-66.7,5.5c-27.5-1.1-50.5-5.6-66.1-11.1
					c-13.9-4.9-21.9-10.8-21.6-16.1c0.3-5.3,8.6-10.4,22.9-14.2c0.4-1.7,0.8-3.4,1.4-4.9c-12.9,3.1-27.9,9-28.3,19.1
					c-0.1,3.1,1.1,5.9,3.4,8.3c5.1,5.8,14.7,10.1,23.6,13.1c0.1,0,0.3,0.1,0.6,0.1c17.1,5.6,40,9.3,64.4,10.4
					c24.4,1,47.4-0.7,65-4.9c0.1,0,0.3-0.1,0.6-0.1c9-2.1,19.1-5.6,24.4-10.9C1675.8,232,1677.2,229.4,1677.4,226.3z"/>
			</g>
			<g>
				<g>
					<linearGradient id="SVGID_35_" gradientUnits="userSpaceOnUse" x1="1417.0837" y1="88.8507" x2="1462.8328" y2="88.8507">
						<stop  offset="0" style="stop-color:#1C2057"/>
						<stop  offset="1" style="stop-color:#17243E"/>
					</linearGradient>
					<polygon class="st33" points="1440.9,113.8 1462.8,63.9 1417.1,63.9 1439.3,113.8 					"/>
					<linearGradient id="SVGID_36_" gradientUnits="userSpaceOnUse" x1="1376.3867" y1="80.2903" x2="1504.3717" y2="80.2903">
						<stop  offset="0" style="stop-color:#1C2057"/>
						<stop  offset="1" style="stop-color:#17243E"/>
					</linearGradient>
					<path class="st34" d="M1440.4,16.3c-35.4,0-64,28.6-64,64s28.6,64,64,64s64-28.6,64-64S1475.7,16.3,1440.4,16.3z M1448.2,124.9
						H1432l-32.3-71.3l-0.1-0.6h81L1448.2,124.9z"/>
				</g>
				<linearGradient id="SVGID_37_" gradientUnits="userSpaceOnUse" x1="1347.7479" y1="80.3563" x2="1533.149" y2="80.3563">
					<stop  offset="0" style="stop-color:#1C2057"/>
					<stop  offset="1" style="stop-color:#17243E"/>
				</linearGradient>
				<path class="st35" d="M1533.1,81.6c0.4-10.1-14.3-17.1-26.8-21.3c0.4,1.7,0.7,3.4,1,5.1c9.5,3.4,16.3,7.2,19.5,10.9
					c1.5,1.7,2.2,3.5,2.2,5.2c-0.1,5.2-8.6,10.4-22.9,14.2c-15.9,4.2-39.2,6.7-66.7,5.5c-27.5-1.1-50.5-5.6-66.1-11.1
					c-13.9-4.9-21.9-10.8-21.6-16.1s8.6-10.4,22.9-14.2c0.4-1.7,0.8-3.4,1.4-4.9c-12.9,3.1-27.9,9-28.3,19.1
					c-0.1,3.1,1.1,5.9,3.4,8.3c5.1,5.8,14.7,10.1,23.6,13.1c0.1,0,0.3,0.1,0.6,0.1c17.1,5.6,40,9.3,64.4,10.4
					c24.4,1,47.4-0.7,65-4.9c0.1,0,0.3-0.1,0.6-0.1c9-2.1,19.1-5.6,24.4-10.9C1531.6,87.3,1533,84.6,1533.1,81.6z"/>
			</g>
			<g>
				<g>
					<linearGradient id="SVGID_38_" gradientUnits="userSpaceOnUse" x1="1848.4419" y1="233.5679" x2="1894.1909" y2="233.5679">
						<stop  offset="0" style="stop-color:#1C2057"/>
						<stop  offset="1" style="stop-color:#17243E"/>
					</linearGradient>
					<polygon class="st36" points="1872.3,258.5 1894.2,208.6 1848.4,208.6 1870.6,258.5 					"/>
					<linearGradient id="SVGID_39_" gradientUnits="userSpaceOnUse" x1="1807.745" y1="225.0075" x2="1935.7299" y2="225.0075">
						<stop  offset="0" style="stop-color:#1C2057"/>
						<stop  offset="1" style="stop-color:#17243E"/>
					</linearGradient>
					<path class="st37" d="M1871.7,161c-35.4,0-64,28.6-64,64s28.6,64,64,64s64-28.6,64-64S1907.1,161,1871.7,161z M1879.6,269.6
						h-16.3l-32.3-71.3l-0.1-0.6h81L1879.6,269.6z"/>
				</g>
				<linearGradient id="SVGID_40_" gradientUnits="userSpaceOnUse" x1="1779.1062" y1="225.0735" x2="1964.5073" y2="225.0735">
					<stop  offset="0" style="stop-color:#1C2057"/>
					<stop  offset="1" style="stop-color:#17243E"/>
				</linearGradient>
				<path class="st38" d="M1964.5,226.3c0.4-10.1-14.3-17.1-26.8-21.3c0.4,1.7,0.7,3.4,1,5.1c9.5,3.4,16.3,7.2,19.5,10.9
					c1.5,1.7,2.2,3.5,2.2,5.2c-0.1,5.2-8.6,10.4-22.9,14.2c-15.9,4.2-39.2,6.7-66.7,5.5c-27.5-1.1-50.5-5.6-66.1-11.1
					c-13.9-4.9-21.9-10.8-21.6-16.1c0.3-5.3,8.6-10.4,22.9-14.2c0.4-1.7,0.8-3.4,1.4-4.9c-12.9,3.1-27.9,9-28.3,19.1
					c-0.1,3.1,1.1,5.9,3.4,8.3c5.1,5.8,14.7,10.1,23.6,13.1c0.1,0,0.3,0.1,0.6,0.1c17.1,5.6,40,9.3,64.4,10.4
					c24.4,1,47.4-0.7,65-4.9c0.1,0,0.3-0.1,0.6-0.1c9-2.1,19.1-5.6,24.4-10.9C1963,232,1964.4,229.4,1964.5,226.3z"/>
			</g>
			<g>
				<g>
					<linearGradient id="SVGID_41_" gradientUnits="userSpaceOnUse" x1="1705.1996" y1="88.8507" x2="1750.9486" y2="88.8507">
						<stop  offset="0" style="stop-color:#1C2057"/>
						<stop  offset="1" style="stop-color:#17243E"/>
					</linearGradient>
					<polygon class="st39" points="1729.1,113.8 1750.9,63.9 1705.2,63.9 1727.4,113.8 					"/>
					<linearGradient id="SVGID_42_" gradientUnits="userSpaceOnUse" x1="1664.5026" y1="80.2903" x2="1792.4875" y2="80.2903">
						<stop  offset="0" style="stop-color:#1C2057"/>
						<stop  offset="1" style="stop-color:#17243E"/>
					</linearGradient>
					<path class="st40" d="M1728.5,16.3c-35.4,0-64,28.6-64,64s28.6,64,64,64s64-28.6,64-64S1763.9,16.3,1728.5,16.3z M1736.4,124.9
						h-16.3l-32.3-71.3l-0.1-0.6h81L1736.4,124.9z"/>
				</g>
				<linearGradient id="SVGID_43_" gradientUnits="userSpaceOnUse" x1="1635.8638" y1="80.3563" x2="1821.2649" y2="80.3563">
					<stop  offset="0" style="stop-color:#1C2057"/>
					<stop  offset="1" style="stop-color:#17243E"/>
				</linearGradient>
				<path class="st41" d="M1821.3,81.6c0.4-10.1-14.3-17.1-26.8-21.3c0.4,1.7,0.7,3.4,1,5.1c9.5,3.4,16.3,7.2,19.5,10.9
					c1.5,1.7,2.2,3.5,2.2,5.2c-0.1,5.2-8.6,10.4-22.9,14.2c-15.9,4.2-39.2,6.7-66.7,5.5c-27.5-1.1-50.5-5.6-66.1-11.1
					c-13.9-4.9-21.9-10.8-21.6-16.1s8.6-10.4,22.9-14.2c0.4-1.7,0.8-3.4,1.4-4.9c-12.9,3.1-27.9,9-28.3,19.1
					c-0.1,3.1,1.1,5.9,3.4,8.3c5.1,5.8,14.7,10.1,23.6,13.1c0.1,0,0.3,0.1,0.6,0.1c17.1,5.6,40,9.3,64.4,10.4
					c24.4,1,47.4-0.7,65-4.9c0.1,0,0.3-0.1,0.6-0.1c9-2.1,19.1-5.6,24.4-10.9C1819.7,87.3,1821.1,84.6,1821.3,81.6z"/>
			</g>
			<g>
				<g>
					<linearGradient id="SVGID_44_" gradientUnits="userSpaceOnUse" x1="1993.3154" y1="88.8507" x2="2039.0645" y2="88.8507">
						<stop  offset="0" style="stop-color:#1C2057"/>
						<stop  offset="1" style="stop-color:#17243E"/>
					</linearGradient>
					<polygon class="st42" points="2017.2,113.8 2039.1,63.9 1993.3,63.9 2015.5,113.8 					"/>
					<linearGradient id="SVGID_45_" gradientUnits="userSpaceOnUse" x1="1952.6184" y1="80.2903" x2="2080.6035" y2="80.2903">
						<stop  offset="0" style="stop-color:#1C2057"/>
						<stop  offset="1" style="stop-color:#17243E"/>
					</linearGradient>
					<path class="st43" d="M2016.6,16.3c-35.4,0-64,28.6-64,64s28.6,64,64,64c35.4,0,64-28.6,64-64S2052,16.3,2016.6,16.3z
						 M2024.5,124.9h-16.3l-32.3-71.3l-0.1-0.6h81L2024.5,124.9z"/>
				</g>
				<linearGradient id="SVGID_46_" gradientUnits="userSpaceOnUse" x1="1923.9796" y1="80.3563" x2="2109.3809" y2="80.3563">
					<stop  offset="0" style="stop-color:#1C2057"/>
					<stop  offset="1" style="stop-color:#17243E"/>
				</linearGradient>
				<path class="st44" d="M2109.4,81.6c0.4-10.1-14.3-17.1-26.8-21.3c0.4,1.7,0.7,3.4,1,5.1c9.5,3.4,16.3,7.2,19.5,10.9
					c1.5,1.7,2.2,3.5,2.2,5.2c-0.1,5.2-8.6,10.4-22.9,14.2c-15.9,4.2-39.2,6.7-66.7,5.5c-27.5-1.1-50.5-5.6-66.1-11.1
					c-13.9-4.9-21.9-10.8-21.6-16.1s8.6-10.4,22.9-14.2c0.4-1.7,0.8-3.4,1.4-4.9c-12.9,3.1-27.9,9-28.3,19.1
					c-0.1,3.1,1.1,5.9,3.4,8.3c5.1,5.8,14.7,10.1,23.6,13.1c0.1,0,0.3,0.1,0.6,0.1c17.1,5.6,40,9.3,64.4,10.4
					c24.4,1,47.4-0.7,65-4.9c0.1,0,0.3-0.1,0.6-0.1c9-2.1,19.1-5.6,24.4-10.9C2107.8,87.3,2109.2,84.6,2109.4,81.6z"/>
			</g>
			<g>
				<g>
					<linearGradient id="SVGID_47_" gradientUnits="userSpaceOnUse" x1="1274.1549" y1="233.5679" x2="1319.9039" y2="233.5679">
						<stop  offset="0" style="stop-color:#1C2057"/>
						<stop  offset="1" style="stop-color:#17243E"/>
					</linearGradient>
					<polygon class="st45" points="1298,258.5 1319.9,208.6 1274.2,208.6 1296.3,258.5 					"/>
					<linearGradient id="SVGID_48_" gradientUnits="userSpaceOnUse" x1="1233.458" y1="225.0075" x2="1361.4429" y2="225.0075">
						<stop  offset="0" style="stop-color:#1C2057"/>
						<stop  offset="1" style="stop-color:#17243E"/>
					</linearGradient>
					<path class="st46" d="M1297.5,161c-35.4,0-64,28.6-64,64s28.6,64,64,64s64-28.6,64-64S1332.8,161,1297.5,161z M1305.3,269.6
						H1289l-32.3-71.3l-0.1-0.6h81L1305.3,269.6z"/>
				</g>
				<linearGradient id="SVGID_49_" gradientUnits="userSpaceOnUse" x1="1204.8192" y1="225.0735" x2="1390.2203" y2="225.0735">
					<stop  offset="0" style="stop-color:#1C2057"/>
					<stop  offset="1" style="stop-color:#17243E"/>
				</linearGradient>
				<path class="st47" d="M1390.2,226.3c0.4-10.1-14.3-17.1-26.8-21.3c0.4,1.7,0.7,3.4,1,5.1c9.5,3.4,16.3,7.2,19.5,10.9
					c1.5,1.7,2.2,3.5,2.2,5.2c-0.1,5.2-8.6,10.4-22.9,14.2c-15.9,4.2-39.2,6.7-66.7,5.5c-27.5-1.1-50.5-5.6-66.1-11.1
					c-13.9-4.9-21.9-10.8-21.6-16.1c0.3-5.3,8.6-10.4,22.9-14.2c0.4-1.7,0.8-3.4,1.4-4.9c-12.9,3.1-27.9,9-28.3,19.1
					c-0.1,3.1,1.1,5.9,3.4,8.3c5.1,5.8,14.7,10.1,23.6,13.1c0.1,0,0.3,0.1,0.6,0.1c17.1,5.6,40,9.3,64.4,10.4
					c24.4,1,47.4-0.7,65-4.9c0.1,0,0.3-0.1,0.6-0.1c9-2.1,19.1-5.6,24.4-10.9C1388.7,232,1390.1,229.4,1390.2,226.3z"/>
			</g>
		</g>
	</g>
</g>
</svg>
