<?xml version="1.0" encoding="utf-8"?>
<!-- Generator: Adobe Illustrator 25.0.0, SVG Export Plug-In . SVG Version: 6.00 Build 0)  -->
<svg version="1.1" id="Calque_1" xmlns="http://www.w3.org/2000/svg" xmlns:xlink="http://www.w3.org/1999/xlink" x="0px" y="0px"
	 viewBox="0 0 1980 250" style="enable-background:new 0 0 1980 250;" xml:space="preserve">
<style type="text/css">
	.st0{clip-path:url(#SVGID_2_);fill:url(#SVGID_3_);}
	.st1{clip-path:url(#SVGID_2_);}
	.st2{opacity:0.1;}
	.st3{fill:#17243F;stroke:#17243F;stroke-miterlimit:10;}
	.st4{fill:url(#SVGID_4_);}
	.st5{fill:url(#SVGID_5_);}
	.st6{fill:#FFFFFF;}
	.st7{fill:url(#SVGID_6_);}
	.st8{fill:url(#SVGID_7_);}
	.st9{fill:url(#SVGID_8_);}
	.st10{fill:url(#SVGID_9_);}
	.st11{fill:url(#SVGID_10_);}
	.st12{fill:url(#SVGID_11_);}
	.st13{fill:url(#SVGID_12_);}
	.st14{fill:url(#SVGID_13_);}
	.st15{fill:url(#SVGID_14_);}
	.st16{fill:url(#SVGID_15_);}
	.st17{fill:url(#SVGID_16_);}
	.st18{fill:url(#SVGID_17_);}
	.st19{fill:url(#SVGID_18_);}
	.st20{fill:url(#SVGID_19_);}
	.st21{fill:url(#SVGID_20_);}
	.st22{fill:url(#SVGID_21_);}
	.st23{fill:url(#SVGID_22_);}
	.st24{fill:url(#SVGID_23_);}
	.st25{fill:url(#SVGID_24_);}
	.st26{fill:url(#SVGID_25_);}
	.st27{fill:url(#SVGID_26_);}
	.st28{fill:url(#SVGID_27_);}
	.st29{fill:url(#SVGID_28_);}
	.st30{fill:url(#SVGID_29_);}
	.st31{fill:url(#SVGID_30_);}
	.st32{fill:url(#SVGID_31_);}
	.st33{fill:url(#SVGID_32_);}
	.st34{fill:url(#SVGID_33_);}
</style>
<g>
	<defs>
		<rect id="SVGID_1_" x="865" y="-865" transform="matrix(6.123234e-17 -1 1 6.123234e-17 865 1115)" width="250" height="1980"/>
	</defs>
	<clipPath id="SVGID_2_">
		<use xlink:href="#SVGID_1_"  style="overflow:visible;"/>
	</clipPath>
	
		<linearGradient id="SVGID_3_" gradientUnits="userSpaceOnUse" x1="889.8407" y1="114.1989" x2="1139.8407" y2="114.1989" gradientTransform="matrix(0 -1 1 0 875.8011 1139.8407)">
		<stop  offset="0" style="stop-color:#16F7B4"/>
		<stop  offset="1" style="stop-color:#21BBEE"/>
	</linearGradient>
	<polygon class="st0" points="1980,0 1980,250 0,250 0,0 	"/>
	<g class="st1">
		<g class="st2">
			<circle class="st3" cx="860.7" cy="88.1" r="64.8"/>
			
				<linearGradient id="SVGID_4_" gradientUnits="userSpaceOnUse" x1="808.6415" y1="85.7285" x2="901.9108" y2="85.7285" gradientTransform="matrix(1.0147 0 0 1.0147 -8.164 1.4885)">
				<stop  offset="0" style="stop-color:#1C2057"/>
				<stop  offset="1" style="stop-color:#17243E"/>
			</linearGradient>
			<circle class="st4" cx="859.7" cy="88.5" r="47.3"/>
			<g>
				
					<image style="overflow:visible;opacity:0.65;" width="95" height="88" xlink:href="355D374D.png"  transform="matrix(1 0 0 1 818 56)">
				</image>
				<g>
					<g>
						<linearGradient id="SVGID_5_" gradientUnits="userSpaceOnUse" x1="827.1973" y1="93.7783" x2="891.6087" y2="93.7783">
							<stop  offset="0" style="stop-color:#16F7B4"/>
							<stop  offset="1" style="stop-color:#21BBEE"/>
						</linearGradient>
						<path class="st5" d="M827.3,65.7l25.6,56.6h13l25.6-57.1h-64.4L827.3,65.7z M877.5,73.8l-17.3,39.7h-1.4l-17.6-39.7H877.5z"/>
					</g>
				</g>
			</g>
			<g>
				
					<image style="overflow:visible;opacity:0.65;" width="140" height="148" xlink:href="355D374F.png"  transform="matrix(1 0 0 1 796 16)">
				</image>
				<g>
					<g>
						<g>
							<polygon class="st6" points="864.3,25.8 890.4,39.2 864.3,52.7 							"/>
						</g>
						<path class="st6" d="M896.2,58c6.8,8.2,10.9,18.7,10.9,30.1c0,26-21.1,47.2-47.2,47.2s-47.2-21.1-47.2-47.2
							c0-25.3,19.9-45.9,44.9-47.1v-7.1c-28.9,1.2-51.9,25-51.9,54.2c0,29.9,24.3,54.2,54.2,54.2c29.9,0,54.2-24.3,54.2-54.2
							c0-11.1-3.4-21.5-9.1-30.1H896.2z"/>
					</g>
				</g>
			</g>
		</g>
		<g class="st2">
			<circle class="st3" cx="1146.5" cy="88.1" r="64.8"/>
			
				<linearGradient id="SVGID_6_" gradientUnits="userSpaceOnUse" x1="1090.3097" y1="85.7285" x2="1183.5791" y2="85.7285" gradientTransform="matrix(1.0147 0 0 1.0147 -8.164 1.4885)">
				<stop  offset="0" style="stop-color:#1C2057"/>
				<stop  offset="1" style="stop-color:#17243E"/>
			</linearGradient>
			<circle class="st7" cx="1145.5" cy="88.5" r="47.3"/>
			<g>
				
					<image style="overflow:visible;opacity:0.65;" width="96" height="88" xlink:href="355D374A.png"  transform="matrix(1 0 0 1 1103 56)">
				</image>
				<g>
					<g>
						<linearGradient id="SVGID_7_" gradientUnits="userSpaceOnUse" x1="1112.9978" y1="93.7783" x2="1177.4092" y2="93.7783">
							<stop  offset="0" style="stop-color:#16F7B4"/>
							<stop  offset="1" style="stop-color:#21BBEE"/>
						</linearGradient>
						<path class="st8" d="M1113.2,65.7l25.6,56.6h13l25.6-57.1H1113L1113.2,65.7z M1163.3,73.8l-17.3,39.7h-1.4L1127,73.8H1163.3z"
							/>
					</g>
				</g>
			</g>
			<g>
				
					<image style="overflow:visible;opacity:0.65;" width="139" height="148" xlink:href="355D374B.png"  transform="matrix(1 0 0 1 1082 16)">
				</image>
				<g>
					<g>
						<g>
							<polygon class="st6" points="1150.1,25.8 1176.2,39.2 1150.1,52.7 							"/>
						</g>
						<path class="st6" d="M1182,58c6.8,8.2,10.9,18.7,10.9,30.1c0,26-21.1,47.2-47.2,47.2c-26,0-47.2-21.1-47.2-47.2
							c0-25.3,19.9-45.9,44.9-47.1v-7.1c-28.9,1.2-51.9,25-51.9,54.2c0,29.9,24.3,54.2,54.2,54.2c29.9,0,54.2-24.3,54.2-54.2
							c0-11.1-3.4-21.5-9.1-30.1H1182z"/>
					</g>
				</g>
			</g>
		</g>
		<g class="st2">
			<circle class="st3" cx="1432.3" cy="88.1" r="64.8"/>
			
				<linearGradient id="SVGID_8_" gradientUnits="userSpaceOnUse" x1="1371.9779" y1="85.7285" x2="1465.2473" y2="85.7285" gradientTransform="matrix(1.0147 0 0 1.0147 -8.164 1.4885)">
				<stop  offset="0" style="stop-color:#1C2057"/>
				<stop  offset="1" style="stop-color:#17243E"/>
			</linearGradient>
			<circle class="st9" cx="1431.3" cy="88.5" r="47.3"/>
			<g>
				
					<image style="overflow:visible;opacity:0.65;" width="96" height="88" xlink:href="355D3755.png"  transform="matrix(1 0 0 1 1389 56)">
				</image>
				<g>
					<g>
						<linearGradient id="SVGID_9_" gradientUnits="userSpaceOnUse" x1="1398.7983" y1="93.7783" x2="1463.2097" y2="93.7783">
							<stop  offset="0" style="stop-color:#16F7B4"/>
							<stop  offset="1" style="stop-color:#21BBEE"/>
						</linearGradient>
						<path class="st10" d="M1399,65.7l25.6,56.6h13l25.6-57.1h-64.4L1399,65.7z M1449.1,73.8l-17.3,39.7h-1.4l-17.6-39.7H1449.1z"
							/>
					</g>
				</g>
			</g>
			<g>
				
					<image style="overflow:visible;opacity:0.65;" width="139" height="148" xlink:href="355D3757.png"  transform="matrix(1 0 0 1 1368 16)">
				</image>
				<g>
					<g>
						<g>
							<polygon class="st6" points="1435.9,25.8 1462,39.2 1435.9,52.7 							"/>
						</g>
						<path class="st6" d="M1467.8,58c6.8,8.2,10.9,18.7,10.9,30.1c0,26-21.1,47.2-47.2,47.2c-26,0-47.2-21.1-47.2-47.2
							c0-25.3,19.9-45.9,44.9-47.1v-7.1c-28.9,1.2-51.9,25-51.9,54.2c0,29.9,24.3,54.2,54.2,54.2c29.9,0,54.2-24.3,54.2-54.2
							c0-11.1-3.4-21.5-9.1-30.1H1467.8z"/>
					</g>
				</g>
			</g>
		</g>
		<g class="st2">
			<circle class="st3" cx="1005" cy="230.2" r="64.8"/>
			
				<linearGradient id="SVGID_10_" gradientUnits="userSpaceOnUse" x1="950.8448" y1="225.7931" x2="1044.1141" y2="225.7931" gradientTransform="matrix(1.0147 0 0 1.0147 -8.164 1.4885)">
				<stop  offset="0" style="stop-color:#1C2057"/>
				<stop  offset="1" style="stop-color:#17243E"/>
			</linearGradient>
			<circle class="st11" cx="1003.9" cy="230.6" r="47.3"/>
			<g>
				
					<image style="overflow:visible;opacity:0.65;" width="95" height="88" xlink:href="355D375A.png"  transform="matrix(1 0 0 1 962 198)">
				</image>
				<g>
					<g>
						<linearGradient id="SVGID_11_" gradientUnits="userSpaceOnUse" x1="971.4868" y1="235.8985" x2="1035.8982" y2="235.8985">
							<stop  offset="0" style="stop-color:#16F7B4"/>
							<stop  offset="1" style="stop-color:#21BBEE"/>
						</linearGradient>
						<path class="st12" d="M971.6,207.8l25.6,56.6h13l25.6-57.1h-64.4L971.6,207.8z M1021.8,215.9l-17.3,39.7h-1.4l-17.6-39.7
							H1021.8z"/>
					</g>
				</g>
			</g>
			<g>
				
					<image style="overflow:visible;opacity:0.65;" width="140" height="148" xlink:href="355D375B.png"  transform="matrix(1 0 0 1 940 158)">
				</image>
				<g>
					<g>
						<g>
							<polygon class="st6" points="1008.6,167.9 1034.6,181.3 1008.6,194.8 							"/>
						</g>
						<path class="st6" d="M1040.5,200.1c6.8,8.2,10.9,18.7,10.9,30.1c0,26-21.1,47.2-47.2,47.2S957,256.3,957,230.2
							c0-25.3,19.9-45.9,44.9-47.1v-7.1c-28.9,1.2-51.9,25-51.9,54.2c0,29.9,24.3,54.2,54.2,54.2c29.9,0,54.2-24.3,54.2-54.2
							c0-11.1-3.4-21.5-9.1-30.1H1040.5z"/>
					</g>
				</g>
			</g>
		</g>
		<g class="st2">
			<circle class="st3" cx="574.9" cy="88.1" r="64.8"/>
			
				<linearGradient id="SVGID_12_" gradientUnits="userSpaceOnUse" x1="526.9733" y1="85.7285" x2="620.2426" y2="85.7285" gradientTransform="matrix(1.0147 0 0 1.0147 -8.164 1.4885)">
				<stop  offset="0" style="stop-color:#1C2057"/>
				<stop  offset="1" style="stop-color:#17243E"/>
			</linearGradient>
			<circle class="st13" cx="573.9" cy="88.5" r="47.3"/>
			<g>
				
					<image style="overflow:visible;opacity:0.65;" width="95" height="88" xlink:href="355D375D.png"  transform="matrix(1 0 0 1 532 56)">
				</image>
				<g>
					<g>
						<linearGradient id="SVGID_13_" gradientUnits="userSpaceOnUse" x1="541.3967" y1="93.7783" x2="605.8082" y2="93.7783">
							<stop  offset="0" style="stop-color:#16F7B4"/>
							<stop  offset="1" style="stop-color:#21BBEE"/>
						</linearGradient>
						<path class="st14" d="M541.5,65.7l25.6,56.6h13l25.6-57.1h-64.4L541.5,65.7z M591.7,73.8l-17.3,39.7H573l-17.6-39.7H591.7z"/>
					</g>
				</g>
			</g>
			<g>
				
					<image style="overflow:visible;opacity:0.65;" width="140" height="148" xlink:href="B678FE26.png"  transform="matrix(1 0 0 1 510 16)">
				</image>
				<g>
					<g>
						<g>
							<polygon class="st6" points="578.5,25.8 604.6,39.2 578.5,52.7 							"/>
						</g>
						<path class="st6" d="M610.4,58c6.8,8.2,10.9,18.7,10.9,30.1c0,26-21.1,47.2-47.2,47.2c-26,0-47.2-21.1-47.2-47.2
							c0-25.3,19.9-45.9,44.9-47.1v-7.1c-28.9,1.2-51.9,25-51.9,54.2c0,29.9,24.3,54.2,54.2,54.2c29.9,0,54.2-24.3,54.2-54.2
							c0-11.1-3.4-21.5-9.1-30.1H610.4z"/>
					</g>
				</g>
			</g>
		</g>
		<g class="st2">
			<circle class="st3" cx="289.1" cy="88.1" r="64.8"/>
			
				<linearGradient id="SVGID_14_" gradientUnits="userSpaceOnUse" x1="245.305" y1="85.7285" x2="338.5744" y2="85.7285" gradientTransform="matrix(1.0147 0 0 1.0147 -8.164 1.4885)">
				<stop  offset="0" style="stop-color:#1C2057"/>
				<stop  offset="1" style="stop-color:#17243E"/>
			</linearGradient>
			<circle class="st15" cx="288.1" cy="88.5" r="47.3"/>
			<g>
				
					<image style="overflow:visible;opacity:0.65;" width="96" height="88" xlink:href="B678FE21.png"  transform="matrix(1 0 0 1 246 56)">
				</image>
				<g>
					<g>
						<linearGradient id="SVGID_15_" gradientUnits="userSpaceOnUse" x1="255.5962" y1="93.7783" x2="320.0076" y2="93.7783">
							<stop  offset="0" style="stop-color:#16F7B4"/>
							<stop  offset="1" style="stop-color:#21BBEE"/>
						</linearGradient>
						<path class="st16" d="M255.7,65.7l25.6,56.6h13L320,65.2h-64.4L255.7,65.7z M305.9,73.8l-17.3,39.7h-1.4l-17.6-39.7H305.9z"/>
					</g>
				</g>
			</g>
			<g>
				
					<image style="overflow:visible;opacity:0.65;" width="139" height="148" xlink:href="B678FE22.png"  transform="matrix(1 0 0 1 225 16)">
				</image>
				<g>
					<g>
						<g>
							<polygon class="st6" points="292.7,25.8 318.8,39.2 292.7,52.7 							"/>
						</g>
						<path class="st6" d="M324.6,58c6.8,8.2,10.9,18.7,10.9,30.1c0,26-21.1,47.2-47.2,47.2c-26,0-47.2-21.1-47.2-47.2
							c0-25.3,19.9-45.9,44.9-47.1v-7.1c-28.9,1.2-51.9,25-51.9,54.2c0,29.9,24.3,54.2,54.2,54.2c29.9,0,54.2-24.3,54.2-54.2
							c0-11.1-3.4-21.5-9.1-30.1H324.6z"/>
					</g>
				</g>
			</g>
		</g>
		<g class="st2">
			<circle class="st3" cx="3.3" cy="88.1" r="64.8"/>
			
				<linearGradient id="SVGID_16_" gradientUnits="userSpaceOnUse" x1="-36.3632" y1="85.7285" x2="56.9062" y2="85.7285" gradientTransform="matrix(1.0147 0 0 1.0147 -8.164 1.4885)">
				<stop  offset="0" style="stop-color:#1C2057"/>
				<stop  offset="1" style="stop-color:#17243E"/>
			</linearGradient>
			<circle class="st17" cx="2.3" cy="88.5" r="47.3"/>
			<g>
				
					<image style="overflow:visible;opacity:0.65;" width="96" height="88" xlink:href="B678FE20.png"  transform="matrix(1 0 0 1 -40 56)">
				</image>
				<g>
					<g>
						<linearGradient id="SVGID_17_" gradientUnits="userSpaceOnUse" x1="-30.2043" y1="93.7783" x2="34.2071" y2="93.7783">
							<stop  offset="0" style="stop-color:#16F7B4"/>
							<stop  offset="1" style="stop-color:#21BBEE"/>
						</linearGradient>
						<path class="st18" d="M-30.1,65.7l25.6,56.6h13l25.6-57.1h-64.4L-30.1,65.7z M20.1,73.8L2.8,113.5H1.4l-17.6-39.7H20.1z"/>
					</g>
				</g>
			</g>
			<g>
				
					<image style="overflow:visible;opacity:0.65;" width="139" height="148" xlink:href="B678FE3E.png"  transform="matrix(1 0 0 1 -61 16)">
				</image>
				<g>
					<g>
						<g>
							<polygon class="st6" points="6.9,25.8 33,39.2 6.9,52.7 							"/>
						</g>
						<path class="st6" d="M38.8,58c6.8,8.2,10.9,18.7,10.9,30.1c0,26-21.1,47.2-47.2,47.2s-47.2-21.1-47.2-47.2
							c0-25.3,19.9-45.9,44.9-47.1v-7.1c-28.9,1.2-51.9,25-51.9,54.2c0,29.9,24.3,54.2,54.2,54.2S56.7,118,56.7,88.1
							c0-11.1-3.4-21.5-9.1-30.1H38.8z"/>
					</g>
				</g>
			</g>
		</g>
		<g class="st2">
			<circle class="st3" cx="717.6" cy="230.2" r="64.8"/>
			
				<linearGradient id="SVGID_18_" gradientUnits="userSpaceOnUse" x1="667.6477" y1="225.7931" x2="760.9171" y2="225.7931" gradientTransform="matrix(1.0147 0 0 1.0147 -8.164 1.4885)">
				<stop  offset="0" style="stop-color:#1C2057"/>
				<stop  offset="1" style="stop-color:#17243E"/>
			</linearGradient>
			<circle class="st19" cx="716.6" cy="230.6" r="47.3"/>
			<g>
				
					<image style="overflow:visible;opacity:0.65;" width="95" height="88" xlink:href="B678FE23.png"  transform="matrix(1 0 0 1 675 198)">
				</image>
				<g>
					<g>
						<linearGradient id="SVGID_19_" gradientUnits="userSpaceOnUse" x1="684.135" y1="235.8985" x2="748.5464" y2="235.8985">
							<stop  offset="0" style="stop-color:#16F7B4"/>
							<stop  offset="1" style="stop-color:#21BBEE"/>
						</linearGradient>
						<path class="st20" d="M684.3,207.8l25.6,56.6h13l25.6-57.1h-64.4L684.3,207.8z M734.5,215.9l-17.3,39.7h-1.4l-17.6-39.7H734.5
							z"/>
					</g>
				</g>
			</g>
			<g>
				
					<image style="overflow:visible;opacity:0.65;" width="140" height="148" xlink:href="B678FE27.png"  transform="matrix(1 0 0 1 653 158)">
				</image>
				<g>
					<g>
						<g>
							<polygon class="st6" points="721.2,167.9 747.3,181.3 721.2,194.8 							"/>
						</g>
						<path class="st6" d="M753.1,200.1c6.8,8.2,10.9,18.7,10.9,30.1c0,26-21.1,47.2-47.2,47.2s-47.2-21.1-47.2-47.2
							c0-25.3,19.9-45.9,44.9-47.1v-7.1c-28.9,1.2-51.9,25-51.9,54.2c0,29.9,24.3,54.2,54.2,54.2c29.9,0,54.2-24.3,54.2-54.2
							c0-11.1-3.4-21.5-9.1-30.1H753.1z"/>
					</g>
				</g>
			</g>
		</g>
		<g class="st2">
			<circle class="st3" cx="430.3" cy="230.2" r="64.8"/>
			
				<linearGradient id="SVGID_20_" gradientUnits="userSpaceOnUse" x1="384.4506" y1="225.7931" x2="477.72" y2="225.7931" gradientTransform="matrix(1.0147 0 0 1.0147 -8.164 1.4885)">
				<stop  offset="0" style="stop-color:#1C2057"/>
				<stop  offset="1" style="stop-color:#17243E"/>
			</linearGradient>
			<circle class="st21" cx="429.2" cy="230.6" r="47.3"/>
			<g>
				
					<image style="overflow:visible;opacity:0.65;" width="96" height="88" xlink:href="B678FE25.png"  transform="matrix(1 0 0 1 387 198)">
				</image>
				<g>
					<g>
						<linearGradient id="SVGID_21_" gradientUnits="userSpaceOnUse" x1="396.7832" y1="235.8985" x2="461.1946" y2="235.8985">
							<stop  offset="0" style="stop-color:#16F7B4"/>
							<stop  offset="1" style="stop-color:#21BBEE"/>
						</linearGradient>
						<path class="st22" d="M396.9,207.8l25.6,56.6h13l25.6-57.1h-64.4L396.9,207.8z M447.1,215.9l-17.3,39.7h-1.4l-17.6-39.7H447.1
							z"/>
					</g>
				</g>
			</g>
			<g>
				
					<image style="overflow:visible;opacity:0.65;" width="139" height="148" xlink:href="B678FE2C.png"  transform="matrix(1 0 0 1 366 158)">
				</image>
				<g>
					<g>
						<g>
							<polygon class="st6" points="433.9,167.9 459.9,181.3 433.9,194.8 							"/>
						</g>
						<path class="st6" d="M465.8,200.1c6.8,8.2,10.9,18.7,10.9,30.1c0,26-21.1,47.2-47.2,47.2s-47.2-21.1-47.2-47.2
							c0-25.3,19.9-45.9,44.9-47.1v-7.1c-28.9,1.2-51.9,25-51.9,54.2c0,29.9,24.3,54.2,54.2,54.2c29.9,0,54.2-24.3,54.2-54.2
							c0-11.1-3.4-21.5-9.1-30.1H465.8z"/>
					</g>
				</g>
			</g>
		</g>
		<g class="st2">
			<circle class="st3" cx="142.9" cy="230.2" r="64.8"/>
			
				<linearGradient id="SVGID_22_" gradientUnits="userSpaceOnUse" x1="101.2535" y1="225.7931" x2="194.5229" y2="225.7931" gradientTransform="matrix(1.0147 0 0 1.0147 -8.164 1.4885)">
				<stop  offset="0" style="stop-color:#1C2057"/>
				<stop  offset="1" style="stop-color:#17243E"/>
			</linearGradient>
			<circle class="st23" cx="141.9" cy="230.6" r="47.3"/>
			<g>
				
					<image style="overflow:visible;opacity:0.65;" width="95" height="88" xlink:href="B678FE2D.png"  transform="matrix(1 0 0 1 100 198)">
				</image>
				<g>
					<g>
						<linearGradient id="SVGID_23_" gradientUnits="userSpaceOnUse" x1="109.4314" y1="235.8985" x2="173.8428" y2="235.8985">
							<stop  offset="0" style="stop-color:#16F7B4"/>
							<stop  offset="1" style="stop-color:#21BBEE"/>
						</linearGradient>
						<path class="st24" d="M109.6,207.8l25.6,56.6h13l25.6-57.1h-64.4L109.6,207.8z M159.8,215.9l-17.3,39.7h-1.4l-17.6-39.7H159.8
							z"/>
					</g>
				</g>
			</g>
			<g>
				
					<image style="overflow:visible;opacity:0.65;" width="140" height="148" xlink:href="B678FE45.png"  transform="matrix(1 0 0 1 78 158)">
				</image>
				<g>
					<g>
						<g>
							<polygon class="st6" points="146.5,167.9 172.6,181.3 146.5,194.8 							"/>
						</g>
						<path class="st6" d="M178.4,200.1c6.8,8.2,10.9,18.7,10.9,30.1c0,26-21.1,47.2-47.2,47.2S95,256.3,95,230.2
							c0-25.3,19.9-45.9,44.9-47.1v-7.1c-28.9,1.2-51.9,25-51.9,54.2c0,29.9,24.3,54.2,54.2,54.2s54.2-24.3,54.2-54.2
							c0-11.1-3.4-21.5-9.1-30.1H178.4z"/>
					</g>
				</g>
			</g>
		</g>
		<g class="st2">
			<circle class="st3" cx="1292.4" cy="230.2" r="64.8"/>
			
				<linearGradient id="SVGID_24_" gradientUnits="userSpaceOnUse" x1="1234.0419" y1="225.7931" x2="1327.3112" y2="225.7931" gradientTransform="matrix(1.0147 0 0 1.0147 -8.164 1.4885)">
				<stop  offset="0" style="stop-color:#1C2057"/>
				<stop  offset="1" style="stop-color:#17243E"/>
			</linearGradient>
			<circle class="st25" cx="1291.3" cy="230.6" r="47.3"/>
			<g>
				
					<image style="overflow:visible;opacity:0.65;" width="96" height="88" xlink:href="B678FE47.png"  transform="matrix(1 0 0 1 1249 198)">
				</image>
				<g>
					<g>
						<linearGradient id="SVGID_25_" gradientUnits="userSpaceOnUse" x1="1258.8386" y1="235.8985" x2="1323.25" y2="235.8985">
							<stop  offset="0" style="stop-color:#16F7B4"/>
							<stop  offset="1" style="stop-color:#21BBEE"/>
						</linearGradient>
						<path class="st26" d="M1259,207.8l25.6,56.6h13l25.6-57.1h-64.4L1259,207.8z M1309.2,215.9l-17.3,39.7h-1.4l-17.6-39.7H1309.2
							z"/>
					</g>
				</g>
			</g>
			<g>
				
					<image style="overflow:visible;opacity:0.65;" width="139" height="148" xlink:href="B678FE44.png"  transform="matrix(1 0 0 1 1228 158)">
				</image>
				<g>
					<g>
						<g>
							<polygon class="st6" points="1295.9,167.9 1322,181.3 1295.9,194.8 							"/>
						</g>
						<path class="st6" d="M1327.8,200.1c6.8,8.2,10.9,18.7,10.9,30.1c0,26-21.1,47.2-47.2,47.2c-26,0-47.2-21.1-47.2-47.2
							c0-25.3,19.9-45.9,44.9-47.1v-7.1c-28.9,1.2-51.9,25-51.9,54.2c0,29.9,24.3,54.2,54.2,54.2c29.9,0,54.2-24.3,54.2-54.2
							c0-11.1-3.4-21.5-9.1-30.1H1327.8z"/>
					</g>
				</g>
			</g>
		</g>
		<g class="st2">
			<circle class="st3" cx="1579.7" cy="230.2" r="64.8"/>
			
				<linearGradient id="SVGID_26_" gradientUnits="userSpaceOnUse" x1="1517.2389" y1="225.7931" x2="1610.5083" y2="225.7931" gradientTransform="matrix(1.0147 0 0 1.0147 -8.164 1.4885)">
				<stop  offset="0" style="stop-color:#1C2057"/>
				<stop  offset="1" style="stop-color:#17243E"/>
			</linearGradient>
			<circle class="st27" cx="1578.7" cy="230.6" r="47.3"/>
			<g>
				
					<image style="overflow:visible;opacity:0.65;" width="95" height="88" xlink:href="B678FE43.png"  transform="matrix(1 0 0 1 1537 198)">
				</image>
				<g>
					<g>
						<linearGradient id="SVGID_27_" gradientUnits="userSpaceOnUse" x1="1546.1904" y1="235.8985" x2="1610.6018" y2="235.8985">
							<stop  offset="0" style="stop-color:#16F7B4"/>
							<stop  offset="1" style="stop-color:#21BBEE"/>
						</linearGradient>
						<path class="st28" d="M1546.3,207.8l25.6,56.6h13l25.6-57.1h-64.4L1546.3,207.8z M1596.5,215.9l-17.3,39.7h-1.4l-17.6-39.7
							H1596.5z"/>
					</g>
				</g>
			</g>
			<g>
				
					<image style="overflow:visible;opacity:0.65;" width="140" height="148" xlink:href="B678FE4D.png"  transform="matrix(1 0 0 1 1515 158)">
				</image>
				<g>
					<g>
						<g>
							<polygon class="st6" points="1583.3,167.9 1609.3,181.3 1583.3,194.8 							"/>
						</g>
						<path class="st6" d="M1615.2,200.1c6.8,8.2,10.9,18.7,10.9,30.1c0,26-21.1,47.2-47.2,47.2c-26,0-47.2-21.1-47.2-47.2
							c0-25.3,19.9-45.9,44.9-47.1v-7.1c-28.9,1.2-51.9,25-51.9,54.2c0,29.9,24.3,54.2,54.2,54.2c29.9,0,54.2-24.3,54.2-54.2
							c0-11.1-3.4-21.5-9.1-30.1H1615.2z"/>
					</g>
				</g>
			</g>
		</g>
		<g class="st2">
			<circle class="st3" cx="1718.1" cy="88.1" r="64.8"/>
			
				<linearGradient id="SVGID_28_" gradientUnits="userSpaceOnUse" x1="1653.6461" y1="85.7285" x2="1746.9155" y2="85.7285" gradientTransform="matrix(1.0147 0 0 1.0147 -8.164 1.4885)">
				<stop  offset="0" style="stop-color:#1C2057"/>
				<stop  offset="1" style="stop-color:#17243E"/>
			</linearGradient>
			<circle class="st29" cx="1717.1" cy="88.5" r="47.3"/>
			<g>
				
					<image style="overflow:visible;opacity:0.65;" width="96" height="88" xlink:href="B678FE4F.png"  transform="matrix(1 0 0 1 1675 56)">
				</image>
				<g>
					<g>
						<linearGradient id="SVGID_29_" gradientUnits="userSpaceOnUse" x1="1684.5989" y1="93.7783" x2="1749.0103" y2="93.7783">
							<stop  offset="0" style="stop-color:#16F7B4"/>
							<stop  offset="1" style="stop-color:#21BBEE"/>
						</linearGradient>
						<path class="st30" d="M1684.8,65.7l25.6,56.6h13l25.6-57.1h-64.4L1684.8,65.7z M1734.9,73.8l-17.3,39.7h-1.4l-17.6-39.7
							H1734.9z"/>
					</g>
				</g>
			</g>
			<g>
				
					<image style="overflow:visible;opacity:0.65;" width="139" height="148" xlink:href="B678FE4C.png"  transform="matrix(1 0 0 1 1654 16)">
				</image>
				<g>
					<g>
						<g>
							<polygon class="st6" points="1721.7,25.8 1747.8,39.2 1721.7,52.7 							"/>
						</g>
						<path class="st6" d="M1753.6,58c6.8,8.2,10.9,18.7,10.9,30.1c0,26-21.1,47.2-47.2,47.2c-26,0-47.2-21.1-47.2-47.2
							c0-25.3,19.9-45.9,44.9-47.1v-7.1c-28.9,1.2-51.9,25-51.9,54.2c0,29.9,24.3,54.2,54.2,54.2c29.9,0,54.2-24.3,54.2-54.2
							c0-11.1-3.4-21.5-9.1-30.1H1753.6z"/>
					</g>
				</g>
			</g>
		</g>
		<g class="st2">
			<circle class="st3" cx="1867.1" cy="230.2" r="64.8"/>
			
				<linearGradient id="SVGID_30_" gradientUnits="userSpaceOnUse" x1="1800.436" y1="225.7931" x2="1893.7053" y2="225.7931" gradientTransform="matrix(1.0147 0 0 1.0147 -8.164 1.4885)">
				<stop  offset="0" style="stop-color:#1C2057"/>
				<stop  offset="1" style="stop-color:#17243E"/>
			</linearGradient>
			<circle class="st31" cx="1866" cy="230.6" r="47.3"/>
			<g>
				
					<image style="overflow:visible;opacity:0.65;" width="95" height="88" xlink:href="B678FE46.png"  transform="matrix(1 0 0 1 1824 198)">
				</image>
				<g>
					<g>
						<linearGradient id="SVGID_31_" gradientUnits="userSpaceOnUse" x1="1833.5422" y1="235.8985" x2="1897.9536" y2="235.8985">
							<stop  offset="0" style="stop-color:#16F7B4"/>
							<stop  offset="1" style="stop-color:#21BBEE"/>
						</linearGradient>
						<path class="st32" d="M1833.7,207.8l25.6,56.6h13l25.6-57.1h-64.4L1833.7,207.8z M1883.9,215.9l-17.3,39.7h-1.4l-17.6-39.7
							H1883.9z"/>
					</g>
				</g>
			</g>
			<g>
				
					<image style="overflow:visible;opacity:0.65;" width="139" height="148" xlink:href="B678FE79.png"  transform="matrix(1 0 0 1 1803 158)">
				</image>
				<g>
					<g>
						<g>
							<polygon class="st6" points="1870.6,167.9 1896.7,181.3 1870.6,194.8 							"/>
						</g>
						<path class="st6" d="M1902.5,200.1c6.8,8.2,10.9,18.7,10.9,30.1c0,26-21.1,47.2-47.2,47.2c-26,0-47.2-21.1-47.2-47.2
							c0-25.3,19.9-45.9,44.9-47.1v-7.1c-28.9,1.2-51.9,25-51.9,54.2c0,29.9,24.3,54.2,54.2,54.2c29.9,0,54.2-24.3,54.2-54.2
							c0-11.1-3.4-21.5-9.1-30.1H1902.5z"/>
					</g>
				</g>
			</g>
		</g>
		<g class="st2">
			<circle class="st3" cx="2003.9" cy="88.1" r="64.8"/>
			
				<linearGradient id="SVGID_32_" gradientUnits="userSpaceOnUse" x1="1935.3143" y1="85.7285" x2="2028.5837" y2="85.7285" gradientTransform="matrix(1.0147 0 0 1.0147 -8.164 1.4885)">
				<stop  offset="0" style="stop-color:#1C2057"/>
				<stop  offset="1" style="stop-color:#17243E"/>
			</linearGradient>
			<circle class="st33" cx="2002.9" cy="88.5" r="47.3"/>
			<g>
				
					<image style="overflow:visible;opacity:0.65;" width="95" height="88" xlink:href="B678FE7A.png"  transform="matrix(1 0 0 1 1961 56)">
				</image>
				<g>
					<g>
						<linearGradient id="SVGID_33_" gradientUnits="userSpaceOnUse" x1="1970.3994" y1="93.7783" x2="2034.8108" y2="93.7783">
							<stop  offset="0" style="stop-color:#16F7B4"/>
							<stop  offset="1" style="stop-color:#21BBEE"/>
						</linearGradient>
						<path class="st34" d="M1970.6,65.7l25.6,56.6h13l25.6-57.1h-64.4L1970.6,65.7z M2020.7,73.8l-17.3,39.7h-1.4l-17.6-39.7
							H2020.7z"/>
					</g>
				</g>
			</g>
			<g>
				
					<image style="overflow:visible;opacity:0.65;" width="140" height="148" xlink:href="B678FE68.png"  transform="matrix(1 0 0 1 1939 16)">
				</image>
				<g>
					<g>
						<g>
							<polygon class="st6" points="2007.5,25.8 2033.6,39.2 2007.5,52.7 							"/>
						</g>
						<path class="st6" d="M2039.4,58c6.8,8.2,10.9,18.7,10.9,30.1c0,26-21.1,47.2-47.2,47.2c-26,0-47.2-21.1-47.2-47.2
							c0-25.3,19.9-45.9,44.9-47.1v-7.1c-28.9,1.2-51.9,25-51.9,54.2c0,29.9,24.3,54.2,54.2,54.2s54.2-24.3,54.2-54.2
							c0-11.1-3.4-21.5-9.1-30.1H2039.4z"/>
					</g>
				</g>
			</g>
		</g>
	</g>
</g>
</svg>
