<?xml version="1.0" encoding="utf-8"?>
<!-- Generator: Adobe Illustrator 25.0.0, SVG Export Plug-In . SVG Version: 6.00 Build 0)  -->
<svg version="1.1" id="Calque_6" xmlns="http://www.w3.org/2000/svg" xmlns:xlink="http://www.w3.org/1999/xlink" x="0px" y="0px"
	 viewBox="0 0 550 150" style="enable-background:new 0 0 550 150;" xml:space="preserve">
<style type="text/css">
	.st0{fill:url(#SVGID_1_);}
	.st1{fill:url(#SVGID_2_);}
	.st2{fill:url(#SVGID_3_);}
	.st3{fill:url(#SVGID_4_);}
	.st4{fill:url(#SVGID_5_);stroke:url(#SVGID_6_);stroke-miterlimit:10;}
	.st5{fill:url(#SVGID_7_);}
	.st6{fill:url(#SVGID_8_);}
	.st7{fill:url(#SVGID_9_);}
	.st8{fill:url(#SVGID_10_);}
	.st9{fill:url(#SVGID_11_);}
	.st10{fill:url(#SVGID_12_);}
	.st11{fill:url(#SVGID_13_);}
	.st12{fill:url(#SVGID_14_);}
	.st13{fill:url(#SVGID_15_);}
	.st14{fill:url(#SVGID_16_);}
	.st15{fill:url(#SVGID_17_);}
	.st16{fill:url(#SVGID_18_);}
	.st17{fill:url(#SVGID_19_);}
	.st18{fill:url(#SVGID_20_);}
	.st19{fill:url(#SVGID_21_);}
	.st20{fill:url(#SVGID_22_);}
	.st21{fill:url(#SVGID_23_);}
	.st22{fill:url(#SVGID_24_);}
</style>
<g>
	<g>
		
			<linearGradient id="SVGID_1_" gradientUnits="userSpaceOnUse" x1="42.979" y1="78.2097" x2="156.6475" y2="78.2097" gradientTransform="matrix(1 0 0 -1 0 152)">
			<stop  offset="0" style="stop-color:#16F7B4"/>
			<stop  offset="1" style="stop-color:#21BBEE"/>
		</linearGradient>
		<path class="st0" d="M139.8,130.6h-80c-9.3,0-16.9-7.6-16.9-16.9v-80C43,24.5,50.6,17,59.8,17h80c9.3,0,16.9,7.6,16.9,16.9v80
			C156.6,123,149.1,130.6,139.8,130.6z M59.8,20c-7.9,0-14.3,6.3-14.3,14.1v79.4c0,7.8,6.4,14.1,14.3,14.1h80
			c7.9,0,14.3-6.3,14.3-14.1V34.1c0-7.8-6.4-14.1-14.3-14.1H59.8z"/>
		
			<linearGradient id="SVGID_2_" gradientUnits="userSpaceOnUse" x1="1.4516" y1="14.2961" x2="25.4523" y2="14.2961" gradientTransform="matrix(1 0 0 -1 0 152)">
			<stop  offset="0" style="stop-color:#16F7B4"/>
			<stop  offset="1" style="stop-color:#21BBEE"/>
		</linearGradient>
		<circle class="st1" cx="13.5" cy="137.7" r="12"/>
		<g>
			<g>
				
					<linearGradient id="SVGID_3_" gradientUnits="userSpaceOnUse" x1="83.2615" y1="72.1274" x2="115.7311" y2="72.1274" gradientTransform="matrix(1 0 0 -1 0 152)">
					<stop  offset="0" style="stop-color:#16F7B4"/>
					<stop  offset="1" style="stop-color:#21BBEE"/>
				</linearGradient>
				<polygon class="st2" points="100.2,97.6 115.8,62.1 83.3,62.1 99,97.6 				"/>
				
					<linearGradient id="SVGID_4_" gradientUnits="userSpaceOnUse" x1="54.3459" y1="78.2097" x2="145.2807" y2="78.2097" gradientTransform="matrix(1 0 0 -1 0 152)">
					<stop  offset="0" style="stop-color:#16F7B4"/>
					<stop  offset="1" style="stop-color:#21BBEE"/>
				</linearGradient>
				<path class="st3" d="M99.8,28.3c-25.1,0-45.5,20.3-45.5,45.5s20.3,45.5,45.5,45.5s45.5-20.3,45.5-45.5S124.9,28.3,99.8,28.3z
					 M105.4,105.5H93.8L70.9,54.8l-0.1-0.4h57.5L105.4,105.5z"/>
			</g>
			
				<linearGradient id="SVGID_5_" gradientUnits="userSpaceOnUse" x1="33.8637" y1="78.1628" x2="165.5934" y2="78.1628" gradientTransform="matrix(1 0 0 -1 0 152)">
				<stop  offset="0" style="stop-color:#1C2057"/>
				<stop  offset="1" style="stop-color:#17243E"/>
			</linearGradient>
			
				<linearGradient id="SVGID_6_" gradientUnits="userSpaceOnUse" x1="33.3637" y1="78.264" x2="166.0934" y2="78.264" gradientTransform="matrix(1 0 0 -1 0 152)">
				<stop  offset="0" style="stop-color:#1C2057"/>
				<stop  offset="1" style="stop-color:#17243E"/>
			</linearGradient>
			<path class="st4" d="M165.7,74.7c0.3-7.2-10.2-12.2-19-15.2c0.3,1.2,0.5,2.4,0.7,3.6c6.8,2.4,11.6,5.1,13.9,7.8
				c1.1,1.2,1.6,2.5,1.6,3.7c-0.1,3.7-6.1,7.4-16.3,10.1c-11.3,3-27.8,4.8-47.4,3.9c-19.5-0.8-35.9-4-47-7.9
				c-9.9-3.5-15.6-7.7-15.4-11.5c0.2-3.8,6.1-7.4,16.3-10.1c0.3-1.2,0.6-2.4,1-3.5C45,57.8,34.3,62,34,69.2
				c-0.1,2.2,0.8,4.2,2.4,5.9c3.6,4.1,10.5,7.2,16.8,9.3c0.1,0,0.2,0.1,0.4,0.1c12.2,4,28.4,6.6,45.8,7.4
				c17.3,0.7,33.7-0.5,46.2-3.5c0.1,0,0.2-0.1,0.4-0.1c6.4-1.5,13.6-4,17.3-7.8C164.6,78.8,165.6,76.9,165.7,74.7z"/>
		</g>
		
			<linearGradient id="SVGID_7_" gradientUnits="userSpaceOnUse" x1="171.1531" y1="110.4157" x2="185.5496" y2="110.4157" gradientTransform="matrix(1 0 0 -1 0 152)">
			<stop  offset="0" style="stop-color:#16F7B4"/>
			<stop  offset="1" style="stop-color:#21BBEE"/>
		</linearGradient>
		<path class="st5" d="M185.6,41.6c0,4-3.2,7.2-7.2,7.2c-4,0-7.2-3.2-7.2-7.2s3.2-7.2,7.2-7.2C182.4,34.4,185.6,37.6,185.6,41.6z"/>
		
			<linearGradient id="SVGID_8_" gradientUnits="userSpaceOnUse" x1="182.6953" y1="130.2579" x2="206.6896" y2="130.2579" gradientTransform="matrix(1 0 0 -1 0 152)">
			<stop  offset="0" style="stop-color:#16F7B4"/>
			<stop  offset="1" style="stop-color:#21BBEE"/>
		</linearGradient>
		<circle class="st6" cx="194.7" cy="21.7" r="12"/>
		
			<linearGradient id="SVGID_9_" gradientUnits="userSpaceOnUse" x1="22.6237" y1="35.3605" x2="37.0202" y2="35.3605" gradientTransform="matrix(1 0 0 -1 0 152)">
			<stop  offset="0" style="stop-color:#16F7B4"/>
			<stop  offset="1" style="stop-color:#21BBEE"/>
		</linearGradient>
		<path class="st7" d="M36.6,114.3c1.3,3.8-0.7,7.9-4.5,9.2c-3.8,1.3-7.9-0.7-9.2-4.5c-1.3-3.8,0.7-7.9,4.5-9.2
			C31.2,108.6,35.3,110.6,36.6,114.3z"/>
		
			<linearGradient id="SVGID_10_" gradientUnits="userSpaceOnUse" x1="3.0625" y1="49.294" x2="22.2579" y2="49.294" gradientTransform="matrix(1 0 0 -1 0 152)">
			<stop  offset="0" style="stop-color:#1C2057"/>
			<stop  offset="1" style="stop-color:#17243E"/>
		</linearGradient>
		<path class="st8" d="M9.4,93.1L9.4,93.1c1.8,5.3-1,11.1-6.3,12.9l0,0c5.3-1.8,11.1,1,12.9,6.3l0,0c-1.8-5.3,1-11.1,6.3-12.9l0,0
			C17,101.2,11.2,98.4,9.4,93.1z"/>
		
			<linearGradient id="SVGID_11_" gradientUnits="userSpaceOnUse" x1="160.6359" y1="140.5279" x2="179.8312" y2="140.5279" gradientTransform="matrix(1 0 0 -1 0 152)">
			<stop  offset="0" style="stop-color:#1C2057"/>
			<stop  offset="1" style="stop-color:#17243E"/>
		</linearGradient>
		<path class="st9" d="M170.2,1.9L170.2,1.9c0,5.3-4.3,9.6-9.6,9.6l0,0c5.3,0,9.6,4.3,9.6,9.6l0,0c0-5.3,4.3-9.6,9.6-9.6l0,0
			C174.5,11.5,170.2,7.2,170.2,1.9z"/>
	</g>
	<g>
		
			<linearGradient id="SVGID_12_" gradientUnits="userSpaceOnUse" x1="181.2243" y1="57.9687" x2="220.0399" y2="57.9687" gradientTransform="matrix(1 0 0 -1 0 152)">
			<stop  offset="0" style="stop-color:#1C2057"/>
			<stop  offset="1" style="stop-color:#17243E"/>
		</linearGradient>
		<path class="st10" d="M196.4,115.4c-1.1-0.6-2.1-1.6-3-3c-0.8-1.4-1.6-3.3-2.3-5.8l-10-34.8h8.7l9.4,34.6c0.3,1.1,0.7,1.6,1.4,1.6
			c0.7,0,1.1-0.5,1.4-1.6l9.4-34.6h8.7l-10,34.8c-0.7,2.5-1.5,4.4-2.3,5.8c-0.8,1.4-1.8,2.4-3,3c-1.1,0.6-2.5,0.9-4.2,0.9
			C198.9,116.3,197.5,116,196.4,115.4z"/>
		
			<linearGradient id="SVGID_13_" gradientUnits="userSpaceOnUse" x1="224.4498" y1="57.3206" x2="235.9955" y2="57.3206" gradientTransform="matrix(1 0 0 -1 0 152)">
			<stop  offset="0" style="stop-color:#1C2057"/>
			<stop  offset="1" style="stop-color:#17243E"/>
		</linearGradient>
		<path class="st11" d="M225.8,81c-0.9-0.9-1.4-2-1.4-3.3c0-1.3,0.5-2.3,1.4-3.3c0.9-0.9,2-1.4,3.3-1.4c1.2,0,2.3,0.5,3.2,1.4
			c0.9,0.9,1.4,2,1.4,3.3c0,1.3-0.5,2.4-1.4,3.3c-0.9,0.9-2,1.4-3.2,1.4C227.8,82.3,226.7,81.9,225.8,81z M226.3,112.6
			c-0.8-1.4-1.2-3.3-1.2-5.8V86.3h8v20.2c0,1.1,0.2,2,0.6,2.8c0.4,0.7,1.2,1.5,2.3,2.3l-5.4,4.8C228.5,115.2,227.1,114,226.3,112.6z
			"/>
		
			<linearGradient id="SVGID_14_" gradientUnits="userSpaceOnUse" x1="239.5692" y1="51.1885" x2="263.89" y2="51.1885" gradientTransform="matrix(1 0 0 -1 0 152)">
			<stop  offset="0" style="stop-color:#1C2057"/>
			<stop  offset="1" style="stop-color:#17243E"/>
		</linearGradient>
		<path class="st12" d="M245.7,115.6c-1.4-0.4-2.6-1-3.4-1.8c-0.9-0.8-1.8-1.8-2.7-3.1l5-4.3c1.1,1.3,2.1,2.3,3,2.8
			c0.9,0.5,2.2,0.8,3.8,0.8c1.8,0,3-0.2,3.8-0.7c0.8-0.4,1.2-1.1,1.2-2.1c0-0.9-0.5-1.6-1.5-2.1c-1-0.5-3-1-5.9-1.5
			c-5.7-1.1-8.6-4.3-8.6-9.5c0-2.7,1-4.8,3.1-6.4c2.1-1.6,4.9-2.4,8.4-2.4c2.9,0,5.2,0.4,6.9,1.3c1.7,0.9,3.1,2.1,4.2,3.7l-4.9,4.3
			c-1.1-1.1-2-1.9-2.9-2.3c-0.9-0.5-2-0.7-3.3-0.7c-2.6,0-3.9,0.9-3.9,2.8c0,0.9,0.4,1.5,1.3,2c0.9,0.5,2,0.8,3.4,1.1
			c2.5,0.6,4.6,1.2,6.1,1.8c1.5,0.6,2.8,1.6,3.8,2.8c1,1.3,1.5,3.1,1.5,5.3c0,3-1,5.2-3.1,6.7c-2.1,1.4-5.3,2.2-9.5,2.2
			C249,116.3,247.2,116.1,245.7,115.6z"/>
		
			<linearGradient id="SVGID_15_" gradientUnits="userSpaceOnUse" x1="268.4358" y1="57.3206" x2="279.9835" y2="57.3206" gradientTransform="matrix(1 0 0 -1 0 152)">
			<stop  offset="0" style="stop-color:#1C2057"/>
			<stop  offset="1" style="stop-color:#17243E"/>
		</linearGradient>
		<path class="st13" d="M269.8,81c-0.9-0.9-1.4-2-1.4-3.3c0-1.3,0.5-2.3,1.4-3.3c0.9-0.9,2-1.4,3.3-1.4c1.2,0,2.3,0.5,3.2,1.4
			c0.9,0.9,1.4,2,1.4,3.3c0,1.3-0.5,2.4-1.4,3.3c-0.9,0.9-2,1.4-3.2,1.4C271.8,82.3,270.7,81.9,269.8,81z M270.3,112.6
			c-0.8-1.4-1.2-3.3-1.2-5.8V86.3h8v20.2c0,1.1,0.2,2,0.6,2.8c0.4,0.7,1.2,1.5,2.3,2.3l-5.4,4.8C272.5,115.2,271.1,114,270.3,112.6z
			"/>
		
			<linearGradient id="SVGID_16_" gradientUnits="userSpaceOnUse" x1="284.5898" y1="51.1885" x2="311.1125" y2="51.1885" gradientTransform="matrix(1 0 0 -1 0 152)">
			<stop  offset="0" style="stop-color:#1C2057"/>
			<stop  offset="1" style="stop-color:#17243E"/>
		</linearGradient>
		<path class="st14" d="M288.1,113.3c-2.3-2-3.4-4.9-3.4-8.6v-7.8c0-3.7,1.1-6.6,3.4-8.6c2.3-2,5.6-3,9.9-3s7.6,1,9.9,3
			c2.3,2,3.4,4.9,3.4,8.6v7.8c0,3.7-1.1,6.6-3.4,8.6c-2.3,2-5.6,3-9.9,3C293.5,116.3,290.4,115.3,288.1,113.3z M301.7,108.7
			c0.9-0.9,1.4-2.2,1.4-3.9V97c0-1.7-0.5-3-1.4-3.9s-2.2-1.4-3.9-1.4c-1.7,0-3,0.5-3.9,1.4s-1.4,2.2-1.4,3.9v7.8
			c0,1.7,0.5,3,1.4,3.9s2.2,1.4,3.9,1.4S300.8,109.6,301.7,108.7z"/>
		
			<linearGradient id="SVGID_17_" gradientUnits="userSpaceOnUse" x1="315.1129" y1="51.4876" x2="344.0392" y2="51.4876" gradientTransform="matrix(1 0 0 -1 0 152)">
			<stop  offset="0" style="stop-color:#1C2057"/>
			<stop  offset="1" style="stop-color:#17243E"/>
		</linearGradient>
		<path class="st15" d="M341.5,88.1c1.7,1.8,2.6,4.2,2.6,7.5v19.9h-8V96.3c0-1.4-0.4-2.5-1.1-3.4c-0.8-0.8-1.8-1.3-3-1.3
			c-2.7,0-4.7,1.6-5.9,4.9v18.9h-8V95.2c0-1.1-0.2-2-0.6-2.8c-0.4-0.7-1.2-1.5-2.3-2.3l5.4-4.7c1.3,0.7,2.4,1.4,3.1,2.1
			c0.8,0.8,1.3,1.6,1.8,2.6c0.9-1.4,2-2.6,3.5-3.4c1.5-0.9,3.3-1.3,5.5-1.3C337.3,85.5,339.8,86.4,341.5,88.1z"/>
		
			<linearGradient id="SVGID_18_" gradientUnits="userSpaceOnUse" x1="349.444" y1="51.1885" x2="373.7658" y2="51.1885" gradientTransform="matrix(1 0 0 -1 0 152)">
			<stop  offset="0" style="stop-color:#1C2057"/>
			<stop  offset="1" style="stop-color:#17243E"/>
		</linearGradient>
		<path class="st16" d="M355.6,115.6c-1.4-0.4-2.6-1-3.4-1.8c-0.9-0.8-1.8-1.8-2.7-3.1l5-4.3c1.1,1.3,2.1,2.3,3,2.8s2.2,0.8,3.8,0.8
			c1.8,0,3-0.2,3.8-0.7c0.8-0.4,1.2-1.1,1.2-2.1c0-0.9-0.5-1.6-1.5-2.1c-1-0.5-3-1-5.9-1.5c-5.7-1.1-8.6-4.3-8.6-9.5
			c0-2.7,1-4.8,3.1-6.4s4.9-2.4,8.4-2.4c2.9,0,5.2,0.4,6.9,1.3c1.7,0.9,3.1,2.1,4.2,3.7l-4.9,4.3c-1.1-1.1-2-1.9-2.9-2.3
			c-0.9-0.5-2-0.7-3.3-0.7c-2.6,0-3.9,0.9-3.9,2.8c0,0.9,0.4,1.5,1.3,2c0.9,0.5,2,0.8,3.4,1.1c2.5,0.6,4.6,1.2,6.1,1.8
			c1.5,0.6,2.8,1.6,3.8,2.8c1,1.3,1.5,3.1,1.5,5.3c0,3-1,5.2-3.1,6.7c-2.1,1.5-5.3,2.2-9.5,2.2C358.9,116.3,357.1,116.1,355.6,115.6
			z"/>
		
			<linearGradient id="SVGID_19_" gradientUnits="userSpaceOnUse" x1="379.5372" y1="58.218" x2="413.6841" y2="58.218" gradientTransform="matrix(1 0 0 -1 0 152)">
			<stop  offset="0" style="stop-color:#1C2057"/>
			<stop  offset="1" style="stop-color:#17243E"/>
		</linearGradient>
		<path class="st17" d="M384,112.2c-3-2.7-4.5-6.7-4.5-11.9V87.1c0-5.3,1.5-9.2,4.5-11.9c3-2.7,7.4-4,13.2-4c3.7,0,6.8,0.6,9.4,1.7
			c2.6,1.1,4.7,2.8,6.4,5.1l-4.3,3.3c-1.4-1.8-3-3.2-4.8-4.1c-1.8-0.9-4.1-1.3-6.7-1.3c-7.8,0-11.7,3.7-11.7,11.2v13.3
			c0,7.5,3.9,11.3,11.7,11.3c3.4,0,6.1-0.6,8-1.9c1.9-1.3,2.9-3.1,2.9-5.4V101c0-1.7-0.4-2.9-1.3-3.8c-0.8-0.9-2.1-1.3-3.7-1.3h-7.3
			v-4.7h8.7c3.1,0,5.4,0.8,7,2.3c1.5,1.5,2.3,3.8,2.3,6.9v4.4c0,3.6-1.5,6.4-4.5,8.5c-3,2.1-7.1,3.1-12.2,3.1
			C391.4,116.2,387,114.9,384,112.2z"/>
		
			<linearGradient id="SVGID_20_" gradientUnits="userSpaceOnUse" x1="419.2117" y1="51.0888" x2="446.3568" y2="51.0888" gradientTransform="matrix(1 0 0 -1 0 152)">
			<stop  offset="0" style="stop-color:#1C2057"/>
			<stop  offset="1" style="stop-color:#17243E"/>
		</linearGradient>
		<path class="st18" d="M444.6,111.1c0.3,0.6,0.9,1.2,1.8,1.8l-3.6,3.3c-2.1-1.1-3.4-2.6-3.8-4.6c-1,1.4-2.4,2.5-4.1,3.4
			c-1.7,0.8-3.7,1.3-6,1.3c-3.1,0-5.5-0.7-7.1-2.2c-1.7-1.5-2.5-3.6-2.5-6.4c0-2.9,1-5,3-6.4c2-1.4,4.7-2.3,8.1-2.7l4.2-0.5
			c1.8-0.2,2.9-0.5,3.5-1c0.6-0.4,0.8-1.2,0.8-2.3c-0.2-1.6-0.8-2.9-1.9-3.9s-2.8-1.4-5.1-1.4c-1.7,0-3.1,0.3-4.3,0.8
			c-1.2,0.6-2.3,1.5-3.3,2.7l-3.7-2.7c1-1.6,2.5-2.8,4.3-3.6c1.8-0.8,4.2-1.2,7-1.2c4.1,0,7.3,0.9,9.4,2.6s3.1,4.3,3.1,7.6V109
			C444.1,109.9,444.2,110.6,444.6,111.1z M436.3,110.1c1.6-1.4,2.4-3.1,2.4-5.3v-4.1c-0.9,0.5-2.4,0.9-4.4,1.1l-3.6,0.4
			c-4.3,0.5-6.4,2.3-6.4,5.3c0,1.5,0.5,2.7,1.5,3.5s2.4,1.2,4.3,1.2C432.7,112.2,434.8,111.5,436.3,110.1z"/>
		
			<linearGradient id="SVGID_21_" gradientUnits="userSpaceOnUse" x1="450.1667" y1="58.9159" x2="460.055" y2="58.9159" gradientTransform="matrix(1 0 0 -1 0 152)">
			<stop  offset="0" style="stop-color:#1C2057"/>
			<stop  offset="1" style="stop-color:#17243E"/>
		</linearGradient>
		<path class="st19" d="M453.3,113.4c-0.6-1.1-0.9-2.5-0.9-4.4V77.1c0-0.9-0.2-1.6-0.5-2.2c-0.3-0.6-0.9-1.2-1.8-1.8l3.6-3.2
			c1.6,0.8,2.6,1.8,3.2,2.8c0.6,1.1,0.9,2.5,0.9,4.4V109c0,0.9,0.2,1.6,0.5,2.2c0.3,0.6,0.9,1.2,1.8,1.8l-3.6,3.3
			C455,115.4,453.9,114.5,453.3,113.4z"/>
		
			<linearGradient id="SVGID_22_" gradientUnits="userSpaceOnUse" x1="465.2737" y1="51.0888" x2="492.4187" y2="51.0888" gradientTransform="matrix(1 0 0 -1 0 152)">
			<stop  offset="0" style="stop-color:#1C2057"/>
			<stop  offset="1" style="stop-color:#17243E"/>
		</linearGradient>
		<path class="st20" d="M490.7,111.1c0.3,0.6,0.9,1.2,1.8,1.8l-3.6,3.3c-2.1-1.1-3.4-2.6-3.8-4.6c-1,1.4-2.4,2.5-4.1,3.4
			c-1.7,0.8-3.7,1.3-6,1.3c-3.1,0-5.5-0.7-7.1-2.2c-1.7-1.5-2.5-3.6-2.5-6.4c0-2.9,1-5,3-6.4c2-1.4,4.7-2.3,8.1-2.7l4.2-0.5
			c1.8-0.2,2.9-0.5,3.5-1c0.6-0.5,0.8-1.2,0.8-2.3c-0.2-1.6-0.8-2.9-1.9-3.9c-1.1-1-2.8-1.4-5.1-1.4c-1.7,0-3.1,0.3-4.3,0.8
			c-1.2,0.6-2.3,1.5-3.3,2.7l-3.7-2.7c1-1.6,2.5-2.8,4.3-3.6c1.8-0.8,4.2-1.2,7-1.2c4.1,0,7.3,0.9,9.4,2.6c2.1,1.7,3.1,4.3,3.1,7.6
			V109C490.2,109.9,490.3,110.6,490.7,111.1z M482.4,110.1c1.6-1.4,2.4-3.1,2.4-5.3v-4.1c-0.9,0.5-2.4,0.9-4.4,1.1l-3.6,0.4
			c-4.3,0.5-6.4,2.3-6.4,5.3c0,1.5,0.5,2.7,1.5,3.5c1,0.8,2.4,1.2,4.3,1.2C478.8,112.2,480.9,111.5,482.4,110.1z"/>
		
			<linearGradient id="SVGID_23_" gradientUnits="userSpaceOnUse" x1="494.6913" y1="51.0888" x2="520.2169" y2="51.0888" gradientTransform="matrix(1 0 0 -1 0 152)">
			<stop  offset="0" style="stop-color:#1C2057"/>
			<stop  offset="1" style="stop-color:#17243E"/>
		</linearGradient>
		<path class="st21" d="M514.7,115.6l-7.4-11.1l-7.1,11.1h-5.5l9.9-15.3l-9.4-14.1h5.5l7.1,10.6l6.8-10.6h5.5l-9.5,14.9l9.7,14.5
			H514.7z"/>
		
			<linearGradient id="SVGID_24_" gradientUnits="userSpaceOnUse" x1="523.0034" y1="44.4082" x2="550.1484" y2="44.4082" gradientTransform="matrix(1 0 0 -1 0 152)">
			<stop  offset="0" style="stop-color:#1C2057"/>
			<stop  offset="1" style="stop-color:#17243E"/>
		</linearGradient>
		<path class="st22" d="M550.1,86.3v32.8c0,3.7-1,6.4-2.9,8.1c-1.9,1.7-4.9,2.6-9.1,2.6h-7.6v-4.3h7.6c2.2,0,3.9-0.5,4.9-1.6
			c1.1-1.1,1.6-2.7,1.6-4.9v-8.1c-2,3.5-5.2,5.3-9.6,5.3c-3.1,0-5.6-0.9-7.3-2.7s-2.6-4.3-2.6-7.6V92.8c0-0.9-0.2-1.6-0.5-2.2
			c-0.3-0.6-0.9-1.2-1.8-1.9l3.6-3.3c1.5,0.8,2.6,1.8,3.2,2.8c0.6,1.1,0.9,2.6,0.9,4.5v12.7c0,2,0.5,3.6,1.6,4.7
			c1,1.1,2.5,1.7,4.4,1.7c2.2,0,4.1-0.8,5.5-2.3c1.5-1.6,2.3-3.5,2.6-5.8V86.3L550.1,86.3L550.1,86.3z"/>
	</g>
</g>
</svg>
