<svg xmlns="http://www.w3.org/2000/svg" xmlns:xlink="http://www.w3.org/1999/xlink" viewBox="0 0 250.48 200.5"><defs><style>.cls-1{fill:#1c7d9d;}.cls-2,.cls-91{fill:#17243f;}.cls-3{fill:#ffa681;}.cls-4,.cls-94,.cls-96{fill:#fff;}.cls-5{fill:url(#Dégradé_sans_nom_9);}.cls-6{fill:url(#Dégradé_sans_nom_9-2);}.cls-7{fill:url(#Dégradé_sans_nom_9-3);}.cls-8{fill:url(#Dégradé_sans_nom_9-4);}.cls-9{fill:url(#Dégradé_sans_nom_9-5);}.cls-10{fill:url(#Dégradé_sans_nom_9-6);}.cls-11{fill:url(#Dégradé_sans_nom_9-7);}.cls-12{fill:url(#Dégradé_sans_nom_9-8);}.cls-13{fill:url(#Dégradé_sans_nom_9-9);}.cls-14{fill:url(#Dégradé_sans_nom_9-10);}.cls-15{fill:url(#Dégradé_sans_nom_9-11);}.cls-16{fill:url(#Dégradé_sans_nom_9-12);}.cls-17{fill:url(#Dégradé_sans_nom_9-13);}.cls-18{fill:url(#Dégradé_sans_nom_9-14);}.cls-19{fill:url(#Dégradé_sans_nom_9-15);}.cls-20{fill:url(#Dégradé_sans_nom_9-16);}.cls-21{fill:#9c78ed;}.cls-22{fill:#f97853;}.cls-23{fill:#ea5143;}.cls-24{fill:#403657;}.cls-25{fill:#d4f4ee;}.cls-26{fill:#179684;}.cls-27{fill:#7846d1;}.cls-28{fill:url(#Dégradé_sans_nom_9-17);}.cls-29{fill:url(#Dégradé_sans_nom_9-18);}.cls-30{fill:url(#Dégradé_sans_nom_9-19);}.cls-31{fill:url(#Dégradé_sans_nom_9-20);}.cls-32{fill:url(#Dégradé_sans_nom_9-21);}.cls-33{fill:url(#Dégradé_sans_nom_9-22);}.cls-34{fill:url(#Dégradé_sans_nom_9-23);}.cls-35{fill:url(#Dégradé_sans_nom_9-24);}.cls-36{fill:url(#Dégradé_sans_nom_9-25);}.cls-37{fill:url(#Dégradé_sans_nom_9-26);}.cls-38{fill:url(#Dégradé_sans_nom_9-27);}.cls-39{fill:url(#Dégradé_sans_nom_9-28);}.cls-40{fill:url(#Dégradé_sans_nom_9-29);}.cls-41{fill:url(#Dégradé_sans_nom_9-30);}.cls-42{fill:url(#Dégradé_sans_nom_9-31);}.cls-43{fill:url(#Dégradé_sans_nom_9-32);}.cls-44{fill:url(#Dégradé_sans_nom_9-33);}.cls-45{fill:url(#Dégradé_sans_nom_9-34);}.cls-46{fill:url(#Dégradé_sans_nom_9-35);}.cls-47{fill:url(#Dégradé_sans_nom_9-36);}.cls-48{fill:url(#Dégradé_sans_nom_9-37);}.cls-49{fill:url(#Dégradé_sans_nom_9-38);}.cls-50{fill:url(#Dégradé_sans_nom_9-39);}.cls-51{fill:url(#Dégradé_sans_nom_9-40);}.cls-52{fill:url(#Dégradé_sans_nom_9-41);}.cls-53{fill:url(#Dégradé_sans_nom_9-42);}.cls-54{fill:url(#Dégradé_sans_nom_9-43);}.cls-55{fill:url(#Dégradé_sans_nom_9-44);}.cls-56{fill:url(#Dégradé_sans_nom_9-45);}.cls-57{fill:url(#Dégradé_sans_nom_9-46);}.cls-58{fill:url(#Dégradé_sans_nom_9-47);}.cls-59{fill:url(#Dégradé_sans_nom_9-48);}.cls-60{fill:url(#Dégradé_sans_nom_9-49);}.cls-61{fill:url(#Dégradé_sans_nom_9-50);}.cls-62{fill:url(#Dégradé_sans_nom_9-51);}.cls-63{fill:url(#Dégradé_sans_nom_9-52);}.cls-64{fill:url(#Dégradé_sans_nom_9-53);}.cls-65{fill:url(#Dégradé_sans_nom_9-54);}.cls-66{fill:url(#Dégradé_sans_nom_9-55);}.cls-67{fill:url(#Dégradé_sans_nom_9-56);}.cls-68{fill:url(#Dégradé_sans_nom_9-57);}.cls-69{fill:url(#Dégradé_sans_nom_9-58);}.cls-70{fill:url(#Dégradé_sans_nom_9-59);}.cls-71{fill:url(#Dégradé_sans_nom_9-60);}.cls-72{fill:url(#Dégradé_sans_nom_9-61);}.cls-73{fill:url(#Dégradé_sans_nom_9-62);}.cls-74{fill:url(#Dégradé_sans_nom_9-63);}.cls-75{fill:url(#Dégradé_sans_nom_9-64);}.cls-76{fill:url(#Dégradé_sans_nom_9-65);}.cls-77{fill:url(#Dégradé_sans_nom_9-66);}.cls-78{fill:url(#Dégradé_sans_nom_9-67);}.cls-79{fill:url(#Dégradé_sans_nom_9-68);}.cls-80{fill:url(#Dégradé_sans_nom_9-69);}.cls-81{fill:url(#Dégradé_sans_nom_9-70);}.cls-82{fill:url(#Dégradé_sans_nom_9-71);}.cls-83{fill:url(#Dégradé_sans_nom_9-72);}.cls-84{fill:#e0d5f8;}.cls-85{fill:url(#Dégradé_sans_nom_9-73);}.cls-86{opacity:0.25;}.cls-87{fill:url(#Dégradé_sans_nom_9-74);}.cls-88{fill:url(#Dégradé_sans_nom_9-75);}.cls-89{fill:#1a0b42;}.cls-90{fill:url(#Dégradé_sans_nom_9-76);}.cls-91{stroke:#17243f;}.cls-91,.cls-94{stroke-miterlimit:10;}.cls-92{fill:url(#Dégradé_sans_nom_9-77);}.cls-93{opacity:0.5;}.cls-94{stroke:#fff;}.cls-95{fill:#fcfcfc;}.cls-96{opacity:0.33;isolation:isolate;}</style><linearGradient id="Dégradé_sans_nom_9" x1="68.49" y1="123.96" x2="70.73" y2="123.96" gradientUnits="userSpaceOnUse"><stop offset="0" stop-color="#16f7b4"/><stop offset="1" stop-color="#21bbee"/></linearGradient><linearGradient id="Dégradé_sans_nom_9-2" x1="66.25" y1="129.69" x2="68.49" y2="129.69" xlink:href="#Dégradé_sans_nom_9"/><linearGradient id="Dégradé_sans_nom_9-3" x1="73.4" y1="132.4" x2="75.65" y2="132.4" xlink:href="#Dégradé_sans_nom_9"/><linearGradient id="Dégradé_sans_nom_9-4" x1="68.49" y1="136.03" x2="70.73" y2="136.03" xlink:href="#Dégradé_sans_nom_9"/><linearGradient id="Dégradé_sans_nom_9-5" x1="78.13" y1="137.77" x2="80.37" y2="137.77" xlink:href="#Dégradé_sans_nom_9"/><linearGradient id="Dégradé_sans_nom_9-6" x1="85.28" y1="140.18" x2="87.52" y2="140.18" xlink:href="#Dégradé_sans_nom_9"/><linearGradient id="Dégradé_sans_nom_9-7" x1="86.72" y1="125.13" x2="88.96" y2="125.13" xlink:href="#Dégradé_sans_nom_9"/><linearGradient id="Dégradé_sans_nom_9-8" x1="78.58" y1="145.26" x2="80.82" y2="145.26" xlink:href="#Dégradé_sans_nom_9"/><linearGradient id="Dégradé_sans_nom_9-9" x1="71.68" y1="148.9" x2="73.92" y2="148.9" xlink:href="#Dégradé_sans_nom_9"/><linearGradient id="Dégradé_sans_nom_9-10" x1="70.87" y1="142.27" x2="73.11" y2="142.27" xlink:href="#Dégradé_sans_nom_9"/><linearGradient id="Dégradé_sans_nom_9-11" x1="81.92" y1="132.7" x2="84.16" y2="132.7" xlink:href="#Dégradé_sans_nom_9"/><linearGradient id="Dégradé_sans_nom_9-12" x1="88.11" y1="131.22" x2="90.35" y2="131.22" xlink:href="#Dégradé_sans_nom_9"/><linearGradient id="Dégradé_sans_nom_9-13" x1="84.16" y1="147.2" x2="86.4" y2="147.2" xlink:href="#Dégradé_sans_nom_9"/><linearGradient id="Dégradé_sans_nom_9-14" x1="84.46" y1="156.49" x2="86.7" y2="156.49" xlink:href="#Dégradé_sans_nom_9"/><linearGradient id="Dégradé_sans_nom_9-15" x1="78.83" y1="153.05" x2="81.07" y2="153.05" xlink:href="#Dégradé_sans_nom_9"/><linearGradient id="Dégradé_sans_nom_9-16" x1="71.2" y1="156.49" x2="73.44" y2="156.49" xlink:href="#Dégradé_sans_nom_9"/><linearGradient id="Dégradé_sans_nom_9-17" x1="132.01" y1="144.35" x2="133.78" y2="144.35" xlink:href="#Dégradé_sans_nom_9"/><linearGradient id="Dégradé_sans_nom_9-18" x1="135.68" y1="142.2" x2="136.53" y2="142.2" xlink:href="#Dégradé_sans_nom_9"/><linearGradient id="Dégradé_sans_nom_9-19" x1="129.41" y1="137.81" x2="130.45" y2="137.81" xlink:href="#Dégradé_sans_nom_9"/><linearGradient id="Dégradé_sans_nom_9-20" x1="117.94" y1="139.02" x2="119.85" y2="139.02" xlink:href="#Dégradé_sans_nom_9"/><linearGradient id="Dégradé_sans_nom_9-21" x1="131.74" y1="128.61" x2="134.48" y2="128.61" xlink:href="#Dégradé_sans_nom_9"/><linearGradient id="Dégradé_sans_nom_9-22" x1="121.2" y1="150.69" x2="122.97" y2="150.69" xlink:href="#Dégradé_sans_nom_9"/><linearGradient id="Dégradé_sans_nom_9-23" x1="125.2" y1="130.52" x2="127.96" y2="130.52" xlink:href="#Dégradé_sans_nom_9"/><linearGradient id="Dégradé_sans_nom_9-24" x1="132.71" y1="120.38" x2="133.44" y2="120.38" xlink:href="#Dégradé_sans_nom_9"/><linearGradient id="Dégradé_sans_nom_9-25" x1="133.1" y1="135.49" x2="135.87" y2="135.49" xlink:href="#Dégradé_sans_nom_9"/><linearGradient id="Dégradé_sans_nom_9-26" x1="117.03" y1="122.95" x2="118.88" y2="122.95" xlink:href="#Dégradé_sans_nom_9"/><linearGradient id="Dégradé_sans_nom_9-27" x1="117.16" y1="158.63" x2="119.53" y2="158.63" xlink:href="#Dégradé_sans_nom_9"/><linearGradient id="Dégradé_sans_nom_9-28" x1="123.55" y1="158.21" x2="125.93" y2="158.21" xlink:href="#Dégradé_sans_nom_9"/><linearGradient id="Dégradé_sans_nom_9-29" x1="126.77" y1="171.91" x2="128.49" y2="171.91" xlink:href="#Dégradé_sans_nom_9"/><linearGradient id="Dégradé_sans_nom_9-30" x1="108.41" y1="180.29" x2="110.13" y2="180.29" xlink:href="#Dégradé_sans_nom_9"/><linearGradient id="Dégradé_sans_nom_9-31" x1="117.99" y1="184.93" x2="118.85" y2="184.93" xlink:href="#Dégradé_sans_nom_9"/><linearGradient id="Dégradé_sans_nom_9-32" x1="114.97" y1="179.42" x2="115.99" y2="179.42" xlink:href="#Dégradé_sans_nom_9"/><linearGradient id="Dégradé_sans_nom_9-33" x1="129.17" y1="156.28" x2="131.06" y2="156.28" xlink:href="#Dégradé_sans_nom_9"/><linearGradient id="Dégradé_sans_nom_9-34" x1="126.73" y1="150.16" x2="128.52" y2="150.16" xlink:href="#Dégradé_sans_nom_9"/><linearGradient id="Dégradé_sans_nom_9-35" x1="136.99" y1="150.42" x2="138.8" y2="150.42" xlink:href="#Dégradé_sans_nom_9"/><linearGradient id="Dégradé_sans_nom_9-36" x1="126.75" y1="123.62" x2="128.54" y2="123.62" xlink:href="#Dégradé_sans_nom_9"/><linearGradient id="Dégradé_sans_nom_9-37" x1="118.89" y1="132.65" x2="120" y2="132.65" xlink:href="#Dégradé_sans_nom_9"/><linearGradient id="Dégradé_sans_nom_9-38" x1="123" y1="135.08" x2="124.11" y2="135.08" xlink:href="#Dégradé_sans_nom_9"/><linearGradient id="Dégradé_sans_nom_9-39" x1="120.53" y1="126.15" x2="122.51" y2="126.15" xlink:href="#Dégradé_sans_nom_9"/><linearGradient id="Dégradé_sans_nom_9-40" x1="131.57" y1="150.69" x2="133.29" y2="150.69" xlink:href="#Dégradé_sans_nom_9"/><linearGradient id="Dégradé_sans_nom_9-41" x1="124.74" y1="143.17" x2="126.29" y2="143.17" xlink:href="#Dégradé_sans_nom_9"/><linearGradient id="Dégradé_sans_nom_9-42" x1="113.54" y1="159.41" x2="115.31" y2="159.41" xlink:href="#Dégradé_sans_nom_9"/><linearGradient id="Dégradé_sans_nom_9-43" x1="131.67" y1="178.42" x2="134.53" y2="178.42" xlink:href="#Dégradé_sans_nom_9"/><linearGradient id="Dégradé_sans_nom_9-44" x1="137.73" y1="180.33" x2="139.16" y2="180.33" xlink:href="#Dégradé_sans_nom_9"/><linearGradient id="Dégradé_sans_nom_9-45" x1="128.32" y1="184.47" x2="129.78" y2="184.47" xlink:href="#Dégradé_sans_nom_9"/><linearGradient id="Dégradé_sans_nom_9-46" x1="110.56" y1="152.87" x2="111.6" y2="152.87" xlink:href="#Dégradé_sans_nom_9"/><linearGradient id="Dégradé_sans_nom_9-47" x1="109.02" y1="132.56" x2="110.93" y2="132.56" xlink:href="#Dégradé_sans_nom_9"/><linearGradient id="Dégradé_sans_nom_9-48" x1="114.41" y1="142.85" x2="117.16" y2="142.85" xlink:href="#Dégradé_sans_nom_9"/><linearGradient id="Dégradé_sans_nom_9-49" x1="135.62" y1="158.87" x2="137.39" y2="158.87" xlink:href="#Dégradé_sans_nom_9"/><linearGradient id="Dégradé_sans_nom_9-50" x1="108.69" y1="146.68" x2="111.45" y2="146.68" xlink:href="#Dégradé_sans_nom_9"/><linearGradient id="Dégradé_sans_nom_9-51" x1="115.48" y1="149.72" x2="116.77" y2="149.72" xlink:href="#Dégradé_sans_nom_9"/><linearGradient id="Dégradé_sans_nom_9-52" x1="107.25" y1="122.97" x2="108.38" y2="122.97" xlink:href="#Dégradé_sans_nom_9"/><linearGradient id="Dégradé_sans_nom_9-53" x1="104.84" y1="129.02" x2="106.01" y2="129.02" xlink:href="#Dégradé_sans_nom_9"/><linearGradient id="Dégradé_sans_nom_9-54" x1="131.92" y1="167.88" x2="134.29" y2="167.88" xlink:href="#Dégradé_sans_nom_9"/><linearGradient id="Dégradé_sans_nom_9-55" x1="120.33" y1="174.98" x2="122.71" y2="174.98" xlink:href="#Dégradé_sans_nom_9"/><linearGradient id="Dégradé_sans_nom_9-56" x1="116.56" y1="171.91" x2="117.5" y2="171.91" xlink:href="#Dégradé_sans_nom_9"/><linearGradient id="Dégradé_sans_nom_9-57" x1="123.71" y1="180.03" x2="126.09" y2="180.03" xlink:href="#Dégradé_sans_nom_9"/><linearGradient id="Dégradé_sans_nom_9-58" x1="105.29" y1="174.17" x2="107.6" y2="174.17" xlink:href="#Dégradé_sans_nom_9"/><linearGradient id="Dégradé_sans_nom_9-59" x1="127.98" y1="163.61" x2="130.36" y2="163.61" xlink:href="#Dégradé_sans_nom_9"/><linearGradient id="Dégradé_sans_nom_9-60" x1="119.93" y1="164.98" x2="122.48" y2="164.98" xlink:href="#Dégradé_sans_nom_9"/><linearGradient id="Dégradé_sans_nom_9-61" x1="109.19" y1="172.49" x2="111.08" y2="172.49" xlink:href="#Dégradé_sans_nom_9"/><linearGradient id="Dégradé_sans_nom_9-62" x1="108.27" y1="165.22" x2="110.05" y2="165.22" xlink:href="#Dégradé_sans_nom_9"/><linearGradient id="Dégradé_sans_nom_9-63" x1="111.7" y1="136.81" x2="113.49" y2="136.81" xlink:href="#Dégradé_sans_nom_9"/><linearGradient id="Dégradé_sans_nom_9-64" x1="109.97" y1="126.18" x2="111.08" y2="126.18" xlink:href="#Dégradé_sans_nom_9"/><linearGradient id="Dégradé_sans_nom_9-65" x1="104.18" y1="135.72" x2="105.29" y2="135.72" xlink:href="#Dégradé_sans_nom_9"/><linearGradient id="Dégradé_sans_nom_9-66" x1="114.08" y1="128.61" x2="115.19" y2="128.61" xlink:href="#Dégradé_sans_nom_9"/><linearGradient id="Dégradé_sans_nom_9-67" x1="112.74" y1="119.32" x2="113.9" y2="119.32" xlink:href="#Dégradé_sans_nom_9"/><linearGradient id="Dégradé_sans_nom_9-68" x1="105.42" y1="140.19" x2="107.4" y2="140.19" xlink:href="#Dégradé_sans_nom_9"/><linearGradient id="Dégradé_sans_nom_9-69" x1="113.1" y1="165.75" x2="114.82" y2="165.75" xlink:href="#Dégradé_sans_nom_9"/><linearGradient id="Dégradé_sans_nom_9-70" x1="136.75" y1="171.87" x2="139.13" y2="171.87" xlink:href="#Dégradé_sans_nom_9"/><linearGradient id="Dégradé_sans_nom_9-71" x1="137.39" y1="165.32" x2="139.06" y2="165.32" xlink:href="#Dégradé_sans_nom_9"/><linearGradient id="Dégradé_sans_nom_9-72" x1="106.27" y1="158.23" x2="107.82" y2="158.23" xlink:href="#Dégradé_sans_nom_9"/><linearGradient id="Dégradé_sans_nom_9-73" x1="148.68" y1="168.44" x2="182.71" y2="168.44" xlink:href="#Dégradé_sans_nom_9"/><linearGradient id="Dégradé_sans_nom_9-74" x1="164.04" y1="131.16" x2="165.17" y2="131.16" xlink:href="#Dégradé_sans_nom_9"/><linearGradient id="Dégradé_sans_nom_9-75" x1="170.68" y1="131.16" x2="171.81" y2="131.16" xlink:href="#Dégradé_sans_nom_9"/><linearGradient id="Dégradé_sans_nom_9-76" x1="119.2" y1="178.47" x2="126.1" y2="178.47" xlink:href="#Dégradé_sans_nom_9"/><linearGradient id="Dégradé_sans_nom_9-77" x1="188.83" y1="123.71" x2="221.36" y2="123.71" xlink:href="#Dégradé_sans_nom_9"/></defs><g id="Calque_2" data-name="Calque 2"><g id="Calque_1-2" data-name="Calque 1"><path class="cls-1" d="M146.07,163.14c9.09,37.93,50,50.15,73.49,21.8.34-.41.68-.82,1-1.24,33.64-42.08,17.75-145.77-52.45-172S24.89,33.36,20.79,76.26s28.29,56.39,78.55,44.39C127.74,113.87,140.42,139.53,146.07,163.14Z"/><path class="cls-1" d="M87.67,156.66c9.39-1.76,12-11.34,4.74-18.13a20.88,20.88,0,0,0-10.69-5c-18.58-3.55-28.44,5.91-21,18.17C65.32,159.23,78.36,158.4,87.67,156.66Z"/><path class="cls-1" d="M233,79.15c4.61,9.58,13.32,9.16,16.43-1A29.35,29.35,0,0,0,250,64.87c-3.37-21.31-14.44-28.8-22-16.59C223.38,55.82,228.47,69.66,233,79.15Z"/><path class="cls-1" d="M14.17,71.28c.86-5.21-2.88-8.91-7.11-6.9A9.58,9.58,0,0,0,3,68.58C-1.8,77.15.62,84.5,7.29,83.75,11.4,83.28,13.31,76.44,14.17,71.28Z"/><path class="cls-1" d="M37.91,126.28c-4.51-1.08-7.78,3.16-6.11,8.07a10,10,0,0,0,3.58,4.75c7.36,5.66,13.79,3,13.25-4.69C48.3,129.67,42.39,127.36,37.91,126.28Z"/><path class="cls-1" d="M147.64,182.06c-3.58-3.35-8.18-1.32-8.65,3.92a11.51,11.51,0,0,0,1.27,6.12c4.28,8.92,11.05,10,13.64,2.85C155.5,190.56,151.18,185.38,147.64,182.06Z"/><path class="cls-2" d="M79.12,94.52s.27-5.9-3.16-7c-5.33-1.76-6.81,1.13-7.64,3.05-1,2.45-.6,7.26,2.58,7.72C75.65,99,78.83,96.17,79.12,94.52Z"/><path class="cls-2" d="M82.56,114.23a5.92,5.92,0,0,0,5.73-4.87,33.84,33.84,0,0,0,.81-4.87v0c0-.32,0-.64,0-1,0-4.65-2.7-13.15-12.34-11.8,0,0-8,1-8.9,9.14,0,0-.38,3.77-.63,6.5v.15a6,6,0,0,0,5.82,6.74Z"/><path class="cls-2" d="M94,124s1.7,14.13,3.65,21.39c0,0,2.76-1.35,6.38-3.18,3.92-2,9.56-5.61,9.56-5.61l1.43,3.6s-14.57,14.4-19.4,15.21-7.78-17.28-7.78-17.28Z"/><path class="cls-3" d="M113.29,137a5.29,5.29,0,0,1,.46-3.36c.86-1.36,2.16-3.91,3.7-4.44,1.28-.44-.61,1.83-.67,3.26a21.38,21.38,0,0,0,3.29-.71c1.21-.42,3.6-.93,4.71-1.16a.32.32,0,0,1,.27.55,6.61,6.61,0,0,1-2.81,1.19s4-.79,4.41-.15-4.6,1.53-4.6,1.53,3.89-.24,4,.4c.06.39-4,1.28-4,1.28s3.67.1,2.78.71c-.26.18-7.37,1-9.84,4.08C115,140.16,113.35,138.35,113.29,137Z"/><path class="cls-2" d="M69.43,121.17s-8.15,2.52-15.17,4.18c0,0-.18-3.19-.37-7.39-.2-4.56.16-11.48.16-11.48l-3.7.4S45.19,127.15,46.8,132s22.07-1.93,22.07-1.93Z"/><path class="cls-3" d="M53.84,107a4.87,4.87,0,0,0,2.61-2c.73-1.43,2.76-4.33,1.51-5.4-.46-.39-.79,1.32-2,2.06a23.23,23.23,0,0,1-1-3.37c-.23-1.31-.94-3.77-1.27-4.9a.3.3,0,0,0-.59,0,7.49,7.49,0,0,0,.33,3.15s-1.23-4-2-4.13.89,5,.89,5-1.64-3.69-2.23-3.48c-.35.13.81,4.26.81,4.26s-1.83-3.33-1.92-2.23c0,.32,2.66,7.27,1.26,11C50.35,106.88,52.66,107.56,53.84,107Z"/><path class="cls-2" d="M93.69,178.71l.07.31c-6.35,4.5-30.09,1.42-30.09,1.42,0-.52.09-1.06.16-1.63s.17-1.28.27-1.95c.29-1.81.67-3.77,1.11-5.78.13-.64.27-1.28.42-1.93.43-1.92.88-3.87,1.32-5.77.15-.65.29-1.29.43-1.93q.3-1.33.57-2.61c.23-1.13.44-2.21.62-3.23.11-.69.22-1.34.29-2s.16-1.28.19-1.86c-.37-1.46-.72-2.89-1-4.28-.16-.71-.32-1.4-.48-2.08-.49-2.19-.92-4.27-1.29-6.22-.14-.71-.27-1.39-.39-2.07-.41-2.29-.75-4.37-1-6.19-.1-.72-.2-1.4-.28-2s-.18-1.34-.25-1.92c-.32-2.58-.43-4-.43-4l.17-.14a12.63,12.63,0,0,1,3.1-1.49c1.32-.47,2.78-.89,4.07-1.21l.57-.14c1.7-.42,3-.66,3-.66,5.76,1.27,7.4.45,7.4.45l2.93.91.34.12,2.13.79.09,0L91.44,123,94,124l-1,4.78-.44,2.09-1.3,6.29-.43,2.08-1.3,6.28-.42,2.05L88,152.73l.22,1,.42,1.93.66,3.07.61,2.77.41,1.92,1.26,5.77.41,1.91,1.25,5.71Z"/><path class="cls-3" d="M85.4,120.79c-.61,3.77-2.36,7.56-6,8-4.38.5-6.66-5.26-7.65-8.79,1.7-.42,3.45-.82,3.45-.82,5.76,1.26,6.87.49,6.87.49l3,1Z"/><path class="cls-4" d="M79,125.6c-4.59,0-5.69-5.94-5.7-6a.24.24,0,0,1,.18-.28.24.24,0,0,1,.27.19c0,.24,1.08,5.84,5.52,5.61,3.88-.21,4.11-4.73,4.12-4.92a.22.22,0,0,1,.23-.22.22.22,0,0,1,.22.24s-.25,5.14-4.55,5.37Z"/><path class="cls-5" d="M70.73,124a1.12,1.12,0,1,1-1.12-1.17A1.14,1.14,0,0,1,70.73,124Z"/><path class="cls-6" d="M68.49,129.69a1.12,1.12,0,1,1-1.12-1.18A1.14,1.14,0,0,1,68.49,129.69Z"/><path class="cls-7" d="M75.65,132.4a1.13,1.13,0,1,1-1.13-1.18A1.16,1.16,0,0,1,75.65,132.4Z"/><path class="cls-8" d="M70.65,135.6a1.19,1.19,0,0,1-.62,1.52,1.11,1.11,0,0,1-1.46-.65,1.2,1.2,0,0,1,.63-1.53A1.1,1.1,0,0,1,70.65,135.6Z"/><path class="cls-9" d="M80.37,137.77a1.12,1.12,0,1,1-1.12-1.18A1.15,1.15,0,0,1,80.37,137.77Z"/><path class="cls-10" d="M87.52,140.18A1.12,1.12,0,1,1,86.4,139,1.15,1.15,0,0,1,87.52,140.18Z"/><path class="cls-11" d="M89,125.13A1.12,1.12,0,1,1,87.84,124,1.15,1.15,0,0,1,89,125.13Z"/><path class="cls-12" d="M80.82,145.26a1.12,1.12,0,1,1-1.12-1.17A1.15,1.15,0,0,1,80.82,145.26Z"/><path class="cls-13" d="M73.92,148.9a1.12,1.12,0,1,1-1.12-1.17A1.15,1.15,0,0,1,73.92,148.9Z"/><path class="cls-14" d="M73.11,142.27A1.12,1.12,0,1,1,72,141.1,1.15,1.15,0,0,1,73.11,142.27Z"/><path class="cls-15" d="M84.16,132.7A1.12,1.12,0,1,1,83,131.53,1.15,1.15,0,0,1,84.16,132.7Z"/><path class="cls-16" d="M90.35,131.22a1.12,1.12,0,1,1-1.12-1.17A1.15,1.15,0,0,1,90.35,131.22Z"/><path class="cls-17" d="M86.4,147.2A1.12,1.12,0,1,1,85.28,146,1.15,1.15,0,0,1,86.4,147.2Z"/><path class="cls-18" d="M86.7,156.49a1.12,1.12,0,1,1-1.12-1.17A1.15,1.15,0,0,1,86.7,156.49Z"/><path class="cls-19" d="M81,152.62a1.19,1.19,0,0,1-.62,1.52,1.11,1.11,0,0,1-1.46-.65,1.2,1.2,0,0,1,.63-1.53A1.1,1.1,0,0,1,81,152.62Z"/><path class="cls-20" d="M73.36,156.06a1.19,1.19,0,0,1-.62,1.52,1.11,1.11,0,0,1-1.46-.65,1.2,1.2,0,0,1,.63-1.53A1.1,1.1,0,0,1,73.36,156.06Z"/><polygon class="cls-21" points="96.07 193.52 95.83 192.06 94.93 186.38 94.62 184.44 93.76 179.02 92.19 179.09 71.37 180.08 63.67 180.44 63.17 184.66 62.94 186.63 62.26 192.45 62.13 193.52 96.07 193.52"/><path class="cls-2" d="M96.06,193.52l-.21-1.32,0-.14-.15-.94-.15-.92-.61-3.82-.17-1.13-.13-.81,0-.12-.79-4.95,0-.35-.07-.31-.06-.26-.36-1.64-.69-3.2-.21-.92-.34-1.6-.42-1.91-.28-1.31-.2-.92-.77-3.54-.28-1.3-.14-.62-.06-.29-.54-2.49c-8.46,2.62-17.42,1.07-21.39.13-.18.84-.37,1.72-.57,2.61l-.13.58L67,163c0,.15-.06.28-.1.43-.33,1.45-.67,2.93-1,4.4-.07.31-.13.61-.2.91s-.07.31-.1.46c-.15.65-.29,1.3-.43,1.93-.17.84-.34,1.66-.5,2.47q-.09.47-.18.9c-.16.82-.3,1.63-.42,2.41s-.2,1.32-.27,2c0,.19,0,.38-.07.57s-.06.62-.09.92v.13l-.5,4.22-.08.66-.1.91-.05.39-.55,4.62-.1.92,0,.3-.12,1.06Z"/><path class="cls-22" d="M85.83,105s1.37-1.82,2.4-.31-.43,6-2.93,4.88Z"/><path class="cls-23" d="M85.85,108.21a.21.21,0,0,0,.2-.16,3.3,3.3,0,0,1,1.84-1.94.22.22,0,0,0,.12-.27.21.21,0,0,0-.27-.12,3.67,3.67,0,0,0-2.1,2.22.22.22,0,0,0,.15.26Z"/><path class="cls-23" d="M87.29,107.52a.28.28,0,0,0,.12,0,.22.22,0,0,0,.06-.29,1.89,1.89,0,0,0-.79-.64.21.21,0,0,0-.18.39,1.51,1.51,0,0,1,.61.48A.22.22,0,0,0,87.29,107.52Z"/><path class="cls-4" d="M85.21,109.56a1.56,1.56,0,0,0-.38,1,1.49,1.49,0,1,0,3,0,1.58,1.58,0,0,0-.57-1.23,1.48,1.48,0,0,0-.6-.3.28.28,0,0,1,0-.29,1.71,1.71,0,0,1,.77.39,1.89,1.89,0,0,1,.64,1.43,1.78,1.78,0,1,1-3.56,0,1.88,1.88,0,0,1,.4-1.17Z"/><path class="cls-3" d="M75.22,114.35v5.47s2.43,2,4.32,2.13,2.55-2.16,2.55-2.16V114.7Z"/><path class="cls-22" d="M75.22,114.89v2.18c1.27,1.47,3.53,2,6.87,1.48v-3.32Z"/><path class="cls-3" d="M86.65,107.1c-.06.53-.13,1.07-.22,1.6-.6,3.56-2.75,7.4-5.46,8-5.86,1.39-8.29-3.43-9.23-7-.1-.4.09-.85,0-1.32-.19-1.11-.62-2.36-.72-3.61-.06-.86-.11-1.7-.14-2.47a5,5,0,0,1,3-4.92c2.7-1.13,6.79-2,10.66.36a5.12,5.12,0,0,1,2.36,4.29A40,40,0,0,1,86.65,107.1Z"/><path class="cls-22" d="M79.23,109.85a.24.24,0,0,1-.23-.19.24.24,0,0,1,.19-.28l.78-.14-1.08-3a.25.25,0,0,1,.14-.31.23.23,0,0,1,.29.14l1.27,3.55-1.33.23Z"/><path class="cls-24" d="M82,105.88c0,.53.26,1,.58,1s.57-.42.57-1-.26-.95-.57-.95S82,105.36,82,105.88Z"/><path class="cls-24" d="M75.65,105.88c0,.53.26,1,.58,1s.57-.42.57-1-.25-.95-.57-.95S75.65,105.36,75.65,105.88Z"/><path class="cls-24" d="M84.3,103.39a10.58,10.58,0,0,0-2.4-.22.43.43,0,0,0-.44.44h0a.37.37,0,0,0,.42.27,12.12,12.12,0,0,1,3.29.22.43.43,0,0,0-.17-.38A1.4,1.4,0,0,0,84.3,103.39Z"/><path class="cls-24" d="M75,103.5a10.71,10.71,0,0,1,2.39-.25.43.43,0,0,1,.45.43h0a.38.38,0,0,1-.42.28,11.88,11.88,0,0,0-3.29.27.48.48,0,0,1,.17-.38A1.42,1.42,0,0,1,75,103.5Z"/><path class="cls-4" d="M82,111.27a2.64,2.64,0,0,1-2.62,2.38,2.56,2.56,0,0,1-2.61-2.38Z"/><path class="cls-22" d="M79.44,115.08a2.19,2.19,0,0,0,1-.32.24.24,0,0,0,.08-.32.23.23,0,0,0-.31-.08h0a1.65,1.65,0,0,1-.81.25,1.93,1.93,0,0,1-.86-.25.22.22,0,0,0-.3.08.24.24,0,0,0,.07.32A2.29,2.29,0,0,0,79.44,115.08Z"/><path class="cls-2" d="M86.89,106.54s-.11,0-.16-.06c-.77-1.43,0-4.28-2.33-5.37A5,5,0,0,1,82,98.57a5.09,5.09,0,0,1-1.44,1.37,40.94,40.94,0,0,1-5.37,2.74,9,9,0,0,0-1.8.94l0,0a4.45,4.45,0,0,0-.2,3.29c.55,2-.16,5.31-1.39,6.07a7.64,7.64,0,0,0,.42-4.2c-.3-1.07-.3-2.77-.58-3.79-.32-.23-1-.61-1.29-.77-.08-.87-.13-1.74-.16-2.52a5.13,5.13,0,0,1,3.13-5c2.84-1.14,7.15-2,11.23.38a5.16,5.16,0,0,1,2.49,4.37A39.81,39.81,0,0,1,86.89,106.54Z"/><path class="cls-3" d="M71.72,105s-1.6-2-2.55-.57.45,6,2.76,4.9Z"/><path class="cls-4" d="M71.78,109.42a1.58,1.58,0,0,1,.13,1.1,1.49,1.49,0,0,1-1.81,1.14,1.58,1.58,0,0,1-1.08-1.9,1.52,1.52,0,0,1,.83-1,1.34,1.34,0,0,1,.65-.14.39.39,0,0,0,0-.3,1.71,1.71,0,0,0-.83.19,1.81,1.81,0,0,0-1,1.22A1.87,1.87,0,0,0,70,112a1.78,1.78,0,0,0,2.16-1.36,2,2,0,0,0-.11-1.23Z"/><path class="cls-22" d="M71.37,107.84a.21.21,0,0,1-.19-.15,3.06,3.06,0,0,0-1.69-1.88.21.21,0,0,1-.11-.27.19.19,0,0,1,.25-.11,3.4,3.4,0,0,1,1.93,2.15.2.2,0,0,1-.14.25Z"/><path class="cls-22" d="M70,107.17a.2.2,0,0,1-.11,0,.22.22,0,0,1-.06-.29,1.93,1.93,0,0,1,.73-.62.19.19,0,0,1,.26.11.2.2,0,0,1-.1.27,1.44,1.44,0,0,0-.56.46A.2.2,0,0,1,70,107.17Z"/><path class="cls-3" d="M156.47,149.15a39.72,39.72,0,0,1-9.55,4.72l-1.2-4.49-.93-3.5-.65-2.47h-6.68c.36,1.31.74,2.65,1.11,4,.48,1.7,1,3.36,1.42,4.9.64,2.16,1.24,4.06,1.72,5.42.11.31.24.66.38,1,.9,2.52,1.62,5.26,5,3.54a98.93,98.93,0,0,0,9.1-5Z"/><path class="cls-22" d="M138.57,147.37c.48,1.7,1,3.36,1.42,4.9a9.29,9.29,0,0,0,5.73-2.89l-.93-3.5Z"/><path class="cls-25" d="M137.15,122.85s7,17.39,10,23c0,0-4.19,3.74-8.28,3.84C138.83,149.72,136.47,130.62,137.15,122.85Z"/><path class="cls-26" d="M120.85,193.53c.07-1.22.13-2.37.19-3.45.25-4.39.41-7.39.41-7.39l-1.64-.07-.93-.05-11.16-.52s-.21,3.36-.45,8.28c0,1-.1,2.08-.15,3.2Z"/><path class="cls-26" d="M119.81,182.62l1.64.07s-.16,3-.41,7.39a94.54,94.54,0,0,1-13.77.25c.24-4.92.45-8.28.45-8.28l11.16.52Z"/><path class="cls-21" d="M124.44,193.53h13.73c0-1.12-.1-2.2-.15-3.2-.24-4.92-.45-8.28-.45-8.28l-11.16.52-.93.05-1.64.07s.16,3,.41,7.39C124.31,191.16,124.37,192.31,124.44,193.53Z"/><path class="cls-27" d="M125.48,182.62l-1.64.07s.16,3,.41,7.39a94.54,94.54,0,0,0,13.77.25c-.24-4.92-.45-8.28-.45-8.28l-11.16.52Z"/><path class="cls-27" d="M127,193.53c-.26-4.7-.47-8.74-.59-11l-.93.05c.12,2.2.33,6.22.59,10.91Z"/><path class="cls-25" d="M105.29,173.72v.71c0,4.27,0,7.59,0,9.22a63,63,0,0,0,11.83,2.17l.54,0,.28,0,.64,0,.7,0a60.25,60.25,0,0,0,8.06-.15c.54,0,1.08-.1,1.62-.16h.11l.41,0,.25,0a63.84,63.84,0,0,0,9.37-1.91c0-.74,0-1.84,0-3.22v-.8h0c0-2,0-4.43,0-7.21v-.72c0-1.85,0-3.83-.06-5.9,0-.24,0-.48,0-.72,0-2.12-.05-4.32-.09-6.56,0-1.36,0-2.74-.07-4.12s0-2.79-.09-4.18c0-.3,0-.61,0-.91-.3-13.14-.83-25.22-1.71-26.57a13.93,13.93,0,0,0-3.63-3.13l-.61-.4c-.7-.46-6.38-2.48-7.1-2.93l-6-.44s-5.78,2.06-5.82,2.08l-.75.44a34.34,34.34,0,0,0-5.43,3.81,4.31,4.31,0,0,0-.47.5,4,4,0,0,0-.28.37,2.2,2.2,0,0,0-.21.56c-.73,2.76-1.11,13.64-1.3,25.47,0,.84,0,1.7,0,2.55v1.13c0,.26,0,.52,0,.78v.39c0,.64,0,1.28,0,1.92v1.42C105.3,163.21,105.29,169,105.29,173.72Z"/><path class="cls-3" d="M94.55,190.61c-.15,1.68,1.8.77,1.25-2.63s1-6.49,1.69-6.39-.56,3.72,0,5,1.38-1.23,2.15-2.76.75-5.08.39-7.56,3.93-17.58,4-21.95l.52-1.85,1.92-6.79,3-10.63s-1.8-8-4.83-7.35c0,0-1.61,5.6-3.32,11.92-.29,1.07-.59,2.17-.88,3.26-1.22,4.58-2.37,9.1-2.9,11.79C96.13,161.77,96,176.5,96,176.5s-2.49,5.42-2.55,7.82C93.41,186.89,94.69,188.93,94.55,190.61Z"/><path class="cls-22" d="M100.44,142.9l4.11,9.59,1.92-6.79-5.15-6.06C101,140.71,100.73,141.81,100.44,142.9Z"/><path class="cls-25" d="M100.24,140c1.8,3.24,3.63,6.46,5.46,9.68.6-2.11,1.22-4.13,1.81-6h0c.24-.74.46-1.46.68-2.15a0,0,0,0,0,0,0c.08-.24.15-.48.23-.71h0a52.5,52.5,0,0,0,1.74-6.24c.52-3.44-.9-10.18-2.9-11.51h0c0,.12-.21-.25-.3,0a53.07,53.07,0,0,0-2.68,5c-.1.26-.2.53-.31.8C102.87,131.85,101.5,135.76,100.24,140Z"/><path class="cls-4" d="M122.46,122.14c2.6,0,4.43-2.49,4.51-2.6a.38.38,0,0,0,0-.49.3.3,0,0,0-.45,0s-1.73,2.33-4,2.33-3.65-2.6-3.67-2.63a.3.3,0,0,0-.43-.12.37.37,0,0,0-.11.48C118.31,119.28,119.82,122.14,122.46,122.14Z"/><path class="cls-28" d="M133.46,146a.23.23,0,0,0,.14,0,.36.36,0,0,0,.14-.47l-1.13-2.52a.31.31,0,0,0-.43-.15.38.38,0,0,0-.14.48l1.14,2.51A.3.3,0,0,0,133.46,146Z"/><path class="cls-29" d="M135.82,143.9a.42.42,0,0,0,.14.06.34.34,0,0,0,.35-.33l.22-2.8a.33.33,0,0,0-.29-.38.32.32,0,0,0-.34.32l-.22,2.8A.37.37,0,0,0,135.82,143.9Z"/><path class="cls-30" d="M129.73,139.56a.34.34,0,0,0,.31-.3l.41-2.78a.36.36,0,0,0-.26-.41.33.33,0,0,0-.37.3l-.41,2.77a.36.36,0,0,0,.27.41Z"/><path class="cls-31" d="M119.53,140.59a.3.3,0,0,0,.16-.05.38.38,0,0,0,.11-.49l-1.28-2.42a.29.29,0,0,0-.43-.12.37.37,0,0,0-.11.48l1.28,2.43A.31.31,0,0,0,119.53,140.59Z"/><path class="cls-32" d="M132.06,129.73a.26.26,0,0,0,.17,0l2.11-1.53a.37.37,0,0,0,.09-.49.29.29,0,0,0-.43-.11l-2.11,1.53a.39.39,0,0,0-.1.49A.3.3,0,0,0,132.06,129.73Z"/><path class="cls-33" d="M122.66,152.3a.27.27,0,0,0,.14,0,.37.37,0,0,0,.14-.48l-1.14-2.51a.3.3,0,0,0-.42-.15.36.36,0,0,0-.14.47l1.13,2.51A.32.32,0,0,0,122.66,152.3Z"/><path class="cls-34" d="M127.64,131.62a.32.32,0,0,0,.27-.16.38.38,0,0,0-.1-.49l-2.13-1.5a.3.3,0,0,0-.44.12.4.4,0,0,0,.1.49l2.13,1.49A.3.3,0,0,0,127.64,131.62Z"/><path class="cls-35" d="M132.71,121.18a.37.37,0,0,0,.29.38.33.33,0,0,0,.34-.33l.1-1.62-.61-.4Z"/><path class="cls-36" d="M135.55,136.59a.32.32,0,0,0,.27-.17.39.39,0,0,0-.1-.49l-2.13-1.49a.31.31,0,0,0-.44.11.38.38,0,0,0,.1.49l2.13,1.5A.34.34,0,0,0,135.55,136.59Z"/><path class="cls-37" d="M118.56,124.33a.34.34,0,0,0,.17,0,.4.4,0,0,0,.1-.5l-1.22-2.06a.3.3,0,0,0-.44-.1.4.4,0,0,0-.09.49l1.22,2.06A.29.29,0,0,0,118.56,124.33Z"/><path class="cls-38" d="M117.47,160a.3.3,0,0,0,.23-.11l1.74-2a.38.38,0,0,0,0-.5.29.29,0,0,0-.45,0l-1.74,2a.39.39,0,0,0,0,.5A.28.28,0,0,0,117.47,160Z"/><path class="cls-39" d="M123.87,159.58a.33.33,0,0,0,.23-.11l1.74-2a.39.39,0,0,0,0-.5.29.29,0,0,0-.45,0l-1.74,2a.38.38,0,0,0,0,.5A.28.28,0,0,0,123.87,159.58Z"/><path class="cls-40" d="M128.47,173.3a.42.42,0,0,0,0-.27l-1.09-2.54a.31.31,0,0,0-.42-.17.37.37,0,0,0-.15.47l1.08,2.54a.31.31,0,0,0,.43.17A.36.36,0,0,0,128.47,173.3Z"/><path class="cls-41" d="M110.11,181.68a.39.39,0,0,0,0-.28L109,178.86a.3.3,0,0,0-.42-.16.37.37,0,0,0-.15.47l1.09,2.54a.29.29,0,0,0,.42.16A.33.33,0,0,0,110.11,181.68Z"/><path class="cls-42" d="M118,185.88l.64,0,.22-1.58a.35.35,0,0,0-.26-.4.33.33,0,0,0-.37.29Z"/><path class="cls-43" d="M115.47,181.1a.4.4,0,0,0,.13-.23l.39-2.78a.37.37,0,0,0-.27-.41.32.32,0,0,0-.36.3l-.39,2.78a.34.34,0,0,0,.27.4A.25.25,0,0,0,115.47,181.1Z"/><path class="cls-44" d="M130.75,157.85a.25.25,0,0,0,.16,0,.37.37,0,0,0,.11-.48l-1.26-2.44a.3.3,0,0,0-.43-.13.4.4,0,0,0-.12.49l1.26,2.43A.31.31,0,0,0,130.75,157.85Z"/><path class="cls-45" d="M127.05,151.76a.31.31,0,0,0,.28-.19l1.15-2.5a.38.38,0,0,0-.13-.48.31.31,0,0,0-.43.15l-1.15,2.5a.37.37,0,0,0,.14.48A.23.23,0,0,0,127.05,151.76Z"/><path class="cls-46" d="M137.06,151.4a.47.47,0,0,0,.12.09.29.29,0,0,0,.33-.05l1.29-1.22c0-.3,0-.61,0-.91l-1.68,1.58A.41.41,0,0,0,137.06,151.4Z"/><path class="cls-47" d="M127.07,125.22a.32.32,0,0,0,.28-.19l1.15-2.5a.37.37,0,0,0-.14-.48.3.3,0,0,0-.42.15l-1.15,2.5a.38.38,0,0,0,.13.48A.28.28,0,0,0,127.07,125.22Z"/><path class="cls-48" d="M119.68,134.39h.06A.35.35,0,0,0,120,134l-.47-2.76a.32.32,0,0,0-.37-.28.36.36,0,0,0-.26.42l.48,2.76A.33.33,0,0,0,119.68,134.39Z"/><path class="cls-49" d="M123.79,136.81h.06a.35.35,0,0,0,.25-.42l-.47-2.76a.32.32,0,0,0-.37-.28.34.34,0,0,0-.25.41l.47,2.77A.32.32,0,0,0,123.79,136.81Z"/><path class="cls-50" d="M120.85,127.69a.32.32,0,0,0,.27-.16l1.34-2.38a.37.37,0,0,0-.1-.49.3.3,0,0,0-.43.11l-1.35,2.38a.38.38,0,0,0,.1.49A.26.26,0,0,0,120.85,127.69Z"/><path class="cls-51" d="M133.2,152.2a.39.39,0,0,0,.06-.39l-1.09-2.54a.29.29,0,0,0-.42-.17.37.37,0,0,0-.15.47l1.09,2.54a.3.3,0,0,0,.42.17A.34.34,0,0,0,133.2,152.2Z"/><path class="cls-52" d="M125.05,144.83a.32.32,0,0,0,.3-.22l.92-2.63a.38.38,0,0,0-.18-.46.3.3,0,0,0-.41.21l-.92,2.62a.38.38,0,0,0,.18.46Z"/><path class="cls-53" d="M115,161a.23.23,0,0,0,.14,0,.36.36,0,0,0,.14-.47L114.14,158a.31.31,0,0,0-.43-.15.4.4,0,0,0-.14.48l1.14,2.51A.31.31,0,0,0,115,161Z"/><path class="cls-54" d="M131.67,179.07a.29.29,0,0,0,0,.16.29.29,0,0,0,.42.15l2.23-1.29a.38.38,0,0,0,.14-.48.31.31,0,0,0-.43-.15l-2.23,1.29A.37.37,0,0,0,131.67,179.07Z"/><path class="cls-55" d="M137.73,180.68a.41.41,0,0,0,0,.16.3.3,0,0,0,.43.15l1-.56v-.8l-1.26.73A.37.37,0,0,0,137.73,180.68Z"/><path class="cls-56" d="M128.35,183.81l.76,1.83.42,0,.25,0-.86-2.05a.3.3,0,0,0-.42-.17A.39.39,0,0,0,128.35,183.81Z"/><path class="cls-57" d="M110.87,154.62a.34.34,0,0,0,.32-.3l.41-2.78a.37.37,0,0,0-.27-.41.32.32,0,0,0-.36.3l-.41,2.77a.35.35,0,0,0,.26.41Z"/><path class="cls-58" d="M110.61,134.12a.24.24,0,0,0,.16-.05.37.37,0,0,0,.11-.48l-1.28-2.42a.29.29,0,0,0-.43-.13.38.38,0,0,0-.11.49l1.28,2.42A.31.31,0,0,0,110.61,134.12Z"/><path class="cls-59" d="M114.73,144a.27.27,0,0,0,.17-.06l2.11-1.53a.37.37,0,0,0,.09-.49.29.29,0,0,0-.43-.1l-2.11,1.53a.38.38,0,0,0-.1.49A.32.32,0,0,0,114.73,144Z"/><path class="cls-60" d="M137.07,160.48a.23.23,0,0,0,.14,0,.36.36,0,0,0,.14-.47l-1.13-2.51a.3.3,0,0,0-.43-.16.4.4,0,0,0-.14.48l1.14,2.51A.32.32,0,0,0,137.07,160.48Z"/><path class="cls-61" d="M111.13,147.78a.3.3,0,0,0,.27-.16.38.38,0,0,0-.1-.49l-2.13-1.49a.29.29,0,0,0-.44.11.39.39,0,0,0,.11.49l2.13,1.49A.25.25,0,0,0,111.13,147.78Z"/><path class="cls-62" d="M116.24,151.34a.3.3,0,0,0,.3.08.36.36,0,0,0,.22-.44l-.66-2.71a.31.31,0,0,0-.39-.25.35.35,0,0,0-.22.43l.66,2.72A.46.46,0,0,0,116.24,151.34Z"/><path class="cls-63" d="M107.25,122.67l.55.93a.3.3,0,0,0,.27.16.27.27,0,0,0,.17-.06.38.38,0,0,0,.09-.49l-.61-1A5.3,5.3,0,0,0,107.25,122.67Z"/><path class="cls-64" d="M104.84,128.84l.59,1a.31.31,0,0,0,.26.16.32.32,0,0,0,.18-.06.4.4,0,0,0,.09-.49l-.84-1.41C105,128.3,104.94,128.57,104.84,128.84Z"/><path class="cls-65" d="M132.23,169.25a.3.3,0,0,0,.23-.11l1.74-2a.38.38,0,0,0,0-.5.29.29,0,0,0-.45,0l-1.74,2a.39.39,0,0,0,0,.5A.28.28,0,0,0,132.23,169.25Z"/><path class="cls-66" d="M120.65,176.35a.31.31,0,0,0,.23-.11l1.74-2a.38.38,0,0,0,0-.5.29.29,0,0,0-.45,0l-1.74,2a.39.39,0,0,0,0,.5A.28.28,0,0,0,120.65,176.35Z"/><path class="cls-67" d="M117.43,173.53a.41.41,0,0,0,.07-.27l-.31-2.79a.34.34,0,0,0-.36-.31.35.35,0,0,0-.27.4l.31,2.79a.33.33,0,0,0,.36.31A.3.3,0,0,0,117.43,173.53Z"/><path class="cls-68" d="M124,181.4a.3.3,0,0,0,.23-.11l1.74-2a.39.39,0,0,0,0-.5.29.29,0,0,0-.45,0l-1.74,2a.38.38,0,0,0,0,.5A.28.28,0,0,0,124,181.4Z"/><path class="cls-69" d="M105.29,173.72v.71l2,.18a.32.32,0,0,0,.34-.32.34.34,0,0,0-.29-.38Z"/><path class="cls-70" d="M128.3,165a.31.31,0,0,0,.23-.11l1.74-2a.38.38,0,0,0,0-.5.29.29,0,0,0-.45,0l-1.74,2a.39.39,0,0,0,0,.5A.28.28,0,0,0,128.3,165Z"/><path class="cls-71" d="M119.93,164.1a.36.36,0,0,0,.11.25l1.92,1.81a.31.31,0,0,0,.45,0,.39.39,0,0,0,0-.5l-1.92-1.82a.3.3,0,0,0-.45,0A.37.37,0,0,0,119.93,164.1Z"/><path class="cls-72" d="M110.76,174.06a.29.29,0,0,0,.16,0,.4.4,0,0,0,.12-.49l-1.26-2.43a.3.3,0,0,0-.44-.13.37.37,0,0,0-.11.48l1.26,2.44A.31.31,0,0,0,110.76,174.06Z"/><path class="cls-73" d="M108.58,166.82a.3.3,0,0,0,.28-.19l1.16-2.5a.37.37,0,0,0-.14-.48.31.31,0,0,0-.43.15l-1.15,2.51a.36.36,0,0,0,.14.47A.23.23,0,0,0,108.58,166.82Z"/><path class="cls-74" d="M112,138.42a.32.32,0,0,0,.28-.19l1.15-2.5a.38.38,0,0,0-.13-.48.31.31,0,0,0-.43.15l-1.15,2.5a.38.38,0,0,0,.13.48A.28.28,0,0,0,112,138.42Z"/><path class="cls-75" d="M110.76,127.92h.06a.34.34,0,0,0,.25-.41l-.47-2.76a.33.33,0,0,0-.38-.29.37.37,0,0,0-.25.42l.48,2.76A.33.33,0,0,0,110.76,127.92Z"/><path class="cls-76" d="M105,137.46H105a.35.35,0,0,0,.26-.41l-.48-2.77a.32.32,0,0,0-.37-.28.35.35,0,0,0-.25.42l.47,2.76A.34.34,0,0,0,105,137.46Z"/><path class="cls-77" d="M114.87,130.35h.06a.34.34,0,0,0,.25-.41l-.47-2.77a.32.32,0,0,0-.37-.28.34.34,0,0,0-.25.42l.47,2.76A.33.33,0,0,0,114.87,130.35Z"/><path class="cls-78" d="M113,120.72a.25.25,0,0,0,.17,0,.36.36,0,0,0,.21-.25l.53-2.54-.75.45-.4,1.92A.36.36,0,0,0,113,120.72Z"/><path class="cls-79" d="M105.74,141.73a.32.32,0,0,0,.27-.16l1.35-2.38a.39.39,0,0,0-.1-.49.31.31,0,0,0-.44.11l-1.35,2.38a.39.39,0,0,0,.1.49A.34.34,0,0,0,105.74,141.73Z"/><path class="cls-80" d="M114.73,167.26a.37.37,0,0,0,.06-.39l-1.08-2.54a.31.31,0,0,0-.43-.17.37.37,0,0,0-.14.47l1.08,2.54a.3.3,0,0,0,.42.17A.24.24,0,0,0,114.73,167.26Z"/><path class="cls-81" d="M137,172l2.12.38c0-.24,0-.48,0-.72l-2-.37a.32.32,0,0,0-.36.3A.36.36,0,0,0,137,172Z"/><path class="cls-82" d="M137.65,165.55l1.41.25c0-.24,0-.48,0-.72l-1.29-.23a.32.32,0,0,0-.37.29A.37.37,0,0,0,137.65,165.55Z"/><path class="cls-83" d="M106.59,159.89a.32.32,0,0,0,.29-.22l.92-2.63a.38.38,0,0,0-.18-.46.31.31,0,0,0-.41.21l-.92,2.62a.38.38,0,0,0,.18.46Z"/><path class="cls-84" d="M105.42,151.62c.6-2.57,1.35-5.43,2.09-7.9h0c.23-.76.46-1.48.68-2.15a0,0,0,0,0,0,0l.21-.61a.44.44,0,0,0,0-.1h0a.3.3,0,0,0-.18-.27.28.28,0,0,0-.36.18c-.76,2.17-1.66,5.29-2.43,8.35C105.45,149.91,105.44,150.77,105.42,151.62Z"/><path class="cls-2" d="M114.5,101.94a6.54,6.54,0,0,1-1.37-5.51c.83-3,3.11-2.92,3.11-2.92s1.33-3.15,3.59-3.26,4.4-4.31,6.45-3.17-.22,3.64-.22,3.64,3.53-3.9,4.69-2.75-1.61,4.2-1.61,4.2,3-2.18,3.93-1.35-2.32,4.42-2.32,4.42,2.13,4,0,5.83Z"/><path class="cls-22" d="M129.91,102.79s1.41-2,2.46-.34-.43,6.44-3,5.27Z"/><path class="cls-23" d="M129.93,106.23a.23.23,0,0,0,.21-.17A3.47,3.47,0,0,1,132,104a.23.23,0,0,0,.13-.29.21.21,0,0,0-.28-.13,3.79,3.79,0,0,0-2.15,2.39.23.23,0,0,0,.15.28Z"/><path class="cls-23" d="M131.41,105.48a.27.27,0,0,0,.12,0,.24.24,0,0,0,.06-.32,2,2,0,0,0-.81-.69.22.22,0,0,0-.29.12.23.23,0,0,0,.11.3,1.57,1.57,0,0,1,.63.52A.22.22,0,0,0,131.41,105.48Z"/><path class="cls-22" d="M115.38,102.79s-1.41-2-2.46-.34.43,6.44,3,5.27Z"/><path class="cls-23" d="M115.36,106.23a.23.23,0,0,1-.21-.17,3.44,3.44,0,0,0-1.88-2.09.22.22,0,0,1-.12-.29.2.2,0,0,1,.27-.13,3.79,3.79,0,0,1,2.15,2.39.23.23,0,0,1-.15.28Z"/><path class="cls-23" d="M113.88,105.48a.27.27,0,0,1-.12,0,.24.24,0,0,1-.06-.32,2,2,0,0,1,.81-.69.22.22,0,0,1,.29.12.23.23,0,0,1-.11.3,1.57,1.57,0,0,0-.63.52A.22.22,0,0,1,113.88,105.48Z"/><path class="cls-3" d="M119.17,111.79v4.79s1.37,2.43,3.21,2.6,3.47-2.1,3.47-2.1v-5Z"/><path class="cls-22" d="M119.17,111.79v2.13c1.24,1.43,3.43,1.79,6.68,1.29v-3.08Z"/><path class="cls-3" d="M114.36,99.51a47.31,47.31,0,0,0,.59,6h0v0h0a12.48,12.48,0,0,0,.28,1.26c.06.23.12.46.2.71,1.08,3.55,3.59,8.7,9.89,6.34,2.66-1,4-3.86,4.74-7l.12-.55.06-.34,0-.17s0,0,0-.06h0a36.24,36.24,0,0,0,.45-6.54A5.06,5.06,0,0,0,128.33,95c-4-2.36-8.17-1.48-10.93-.37A5,5,0,0,0,114.36,99.51Z"/><path class="cls-2" d="M115,105.55h0v0h0c0,.16.26,1,.48,2,1.08,3.55,3.59,8.7,9.89,6.34,2.66-1,4-3.86,4.74-7l.12-.55.06-.34,0-.17s0,0,0-.06h0l-.93-.2a7.69,7.69,0,0,1-1.05,2.56c-.78-2-4.76-.66-4.76-.66h0a2.66,2.66,0,0,1-.74.12,2.54,2.54,0,0,1-.77-.13s-3.93-1.37-4.74.51a25.5,25.5,0,0,1-1.37-2.52l-1,.07Zm7.84,2.83c4.49-.64,3.79,1.9,3.79,1.9a7.37,7.37,0,0,1-1.27,1,5,5,0,0,1-2.65.75c-.69,0-.88.12-2.62-.87a4.31,4.31,0,0,1-.93-.74h0C119,109.94,118.27,107.57,122.79,108.38Z"/><path class="cls-24" d="M118.71,103c0,.51.25.93.56.93s.56-.42.56-.93-.25-.92-.56-.92S118.71,102.46,118.71,103Z"/><path class="cls-24" d="M125.72,103c0,.51.25.93.56.93s.57-.42.57-.93-.26-.92-.57-.92S125.72,102.46,125.72,103Z"/><path class="cls-2" d="M117.27,99.85a6,6,0,0,1,4.11-.15l-.18,1a11,11,0,0,0-3.94.33A1.89,1.89,0,0,1,117.27,99.85Z"/><path class="cls-2" d="M128.3,99.86a6,6,0,0,0-4.14-.15l.18,1a11.12,11.12,0,0,1,4,.33A1.89,1.89,0,0,0,128.3,99.86Z"/><path class="cls-22" d="M122.57,107.1a2.24,2.24,0,0,1-.78-.17.22.22,0,0,1-.12-.3.21.21,0,0,1,.28-.12c.2.08.67.21.87.09a.29.29,0,0,0,.11-.22c.07-.79-.13-3.45-.14-3.48a.22.22,0,1,1,.44,0,35.59,35.59,0,0,1,.13,3.56.67.67,0,0,1-.32.55A.85.85,0,0,1,122.57,107.1Z"/><path class="cls-4" d="M125.34,108.83a2.67,2.67,0,0,1-2.56,2.47,2.56,2.56,0,0,1-2.55-2.47Z"/><path class="cls-2" d="M114.36,99.51a47.49,47.49,0,0,0,.59,6l1-.07s-.23-1.57-.34-2.59-.29-2.93.54-3.17.34-2.42,1.5-3.36a5.17,5.17,0,0,1,5.45-.11c1.7,1.1,3.62-.08,4.41.11A2.21,2.21,0,0,1,129,98.74c-.29,1.06.58,1.71.79,2.8a16.06,16.06,0,0,1-.46,4l.93.2a36.24,36.24,0,0,0,.45-6.54A5.06,5.06,0,0,0,128.33,95c-4-2.36-8.17-1.48-10.93-.37A5,5,0,0,0,114.36,99.51Z"/><path class="cls-2" d="M154.28,150.69c-.59,5.63-4.1,18.21-6.53,20.68-3.17,3.21-13.59,10-19,13.43-1,.62,3.62,4.79,3.62,4.79s14.41-6.46,19.91-11.54c1.55-1.44,4.72-6,8.28-14.63,1.08-2.62,3.71-7.91,3.57-11.35C164,148.1,158,148.75,154.28,150.69Z"/><path class="cls-3" d="M143,183s-3.92,1.56-5.31,3.28-3.22,3.17-2.78,3.84,2.48-1.3,2.48-1.3a3.31,3.31,0,0,0,2.53,2.41c2,.23,5.71-3.81,5.71-3.81Z"/><path class="cls-85" d="M181.72,166.42c0,.35,0,.77,0,1.25s0,1,0,1.59q0,.6,0,1.26c0,.37,0,.76-.05,1.16s0,.83,0,1.26a130.07,130.07,0,0,1-2.38,20.57H148.68c1-4.74,2.57-12.23,3.81-21.94l.15-1.24q.08-.62.15-1.26c0-.22.05-.45.08-.68l.06-.56c.06-.52.11-1,.15-1.54s.08-.84.11-1.25c.52-6.53.34-11.42,1.09-14.35.88-3.41,11.08-7.33,11.08-7.33l6.39.35s6.09,2.09,9.35,5.08.54,11.94.62,17Z"/><path class="cls-84" d="M181.71,167.67a68.43,68.43,0,0,1-8.5.49,121.94,121.94,0,0,1-20.13-1.87c0-.42.08-.84.11-1.25,2.46.46,16.66,2.92,28.53,1.38C181.72,166.77,181.72,167.19,181.71,167.67Z"/><path class="cls-84" d="M181.68,169.26q0,.6,0,1.26a69.54,69.54,0,0,1-8.44.48,120.33,120.33,0,0,1-20.42-1.93c0-.22.05-.45.08-.68l.06-.56C154.34,168.1,169.28,170.86,181.68,169.26Z"/><path class="cls-84" d="M181.6,171.68c0,.4,0,.83,0,1.26a67.52,67.52,0,0,1-8.8.53,121,121,0,0,1-20.26-1.9l.15-1.24C154.84,170.74,169.51,173.33,181.6,171.68Z"/><g class="cls-86"><path class="cls-2" d="M167.2,149.79c3.18,0,6.11-3.54,6.24-3.7a.24.24,0,0,0,0-.33.21.21,0,0,0-.31,0s-3.1,3.74-6.17,3.52a.23.23,0,0,0-.24.21.22.22,0,0,0,.21.25Z"/></g><g class="cls-86"><path class="cls-2" d="M170,189.57a.23.23,0,0,0,.22-.21.24.24,0,0,0-.2-.26c-8.21-1-11.61-15.87-11.64-16a.23.23,0,0,0-.27-.17.23.23,0,0,0-.17.28c.14.63,3.51,15.35,12,16.38Z"/></g><g class="cls-86"><path class="cls-2" d="M166.69,185.07a.23.23,0,0,0,.19-.11.26.26,0,0,0-.07-.33,11.15,11.15,0,0,1-5-7,.22.22,0,0,0-.25-.2.24.24,0,0,0-.19.27,11.4,11.4,0,0,0,5.23,7.34A.19.19,0,0,0,166.69,185.07Z"/></g><ellipse class="cls-2" cx="169.24" cy="127.89" rx="8.99" ry="9.42"/><path class="cls-2" d="M160.39,126.21a3.09,3.09,0,0,1-2.21-3.33c.29-2.2,2.76-.77,2.54-2.5s-.7-3.28,1.43-3.71c1.86-.38,1.89,1,4.33-1,2.89-2.29,5.11,3,7.68,3.17,3.8.23,4.28,2.48,4.65,4.28a3.44,3.44,0,0,1-1.08,3.07Z"/><path class="cls-22" d="M161.75,130.53s-1.42-2-2.48-.34.44,6.5,3,5.31Z"/><path class="cls-23" d="M161.74,134a.21.21,0,0,1-.21-.17,3.48,3.48,0,0,0-1.91-2.11.24.24,0,0,1-.12-.3.22.22,0,0,1,.28-.13,3.88,3.88,0,0,1,2.17,2.42.23.23,0,0,1-.15.28Z"/><path class="cls-23" d="M160.24,133.25a.28.28,0,0,1-.12,0,.25.25,0,0,1-.07-.32,2.08,2.08,0,0,1,.83-.69.22.22,0,0,1,.29.11.24.24,0,0,1-.11.31,1.75,1.75,0,0,0-.64.52A.21.21,0,0,1,160.24,133.25Z"/><path class="cls-3" d="M172.09,139.62v4.83s-1.9,2.13-3.76,2.3-3-2.14-3-2.14V140Z"/><path class="cls-22" d="M172.09,139.62v2.15c-1.25,1.45-3.47,1.81-6.75,1.3V140Z"/><path class="cls-3" d="M177,127.22a48.63,48.63,0,0,1-.6,6.1,12.65,12.65,0,0,1-.29,1.3c-1,3.56-3.4,9.67-10.19,7.12-3-1.12-4.4-4.62-5-8.18a36.17,36.17,0,0,1-.45-6.61,5.08,5.08,0,0,1,2.44-4.3c4-2.38,8.25-1.49,11-.37A5,5,0,0,1,177,127.22Z"/><path class="cls-2" d="M168.8,130.63V131a2.9,2.9,0,0,0,.8,2,2.63,2.63,0,0,0,1.91.82h.09a2.38,2.38,0,0,0,1.69-.78,2.86,2.86,0,0,0,.78-2v-.45a1,1,0,0,0-.06-.36,1,1,0,0,0-.22-.35.92.92,0,0,0-.67-.29h-3.37a.94.94,0,0,0-.86.57.9.9,0,0,0-.09.4Zm.39,0a.57.57,0,0,1,.56-.59h3.37a.57.57,0,0,1,.56.59v.45a2.45,2.45,0,0,1-.67,1.7,2,2,0,0,1-1.42.67h-.08a2.24,2.24,0,0,1-1.63-.71,2.49,2.49,0,0,1-.69-1.73Z"/><path class="cls-2" d="M162.06,130.63V131a2.9,2.9,0,0,0,.8,2,2.65,2.65,0,0,0,1.91.82h.09a2.36,2.36,0,0,0,1.69-.78,2.87,2.87,0,0,0,.79-2v-.47a1,1,0,0,0-.09-.39.94.94,0,0,0-.87-.59H163a.93.93,0,0,0-.73.36,1,1,0,0,0-.19.37A1.12,1.12,0,0,0,162.06,130.63Zm.39,0A.58.58,0,0,1,163,130h3.37a.57.57,0,0,1,.56.59v.45a2.4,2.4,0,0,1-.67,1.7,2,2,0,0,1-1.42.67h-.08a2.24,2.24,0,0,1-1.63-.71,2.49,2.49,0,0,1-.69-1.73Z"/><path class="cls-2" d="M176.47,129.46a4.57,4.57,0,0,0-2.28.46l-.34.22.19.35s.26-.17.37-.22a4.08,4.08,0,0,1,2.06-.4Z"/><path class="cls-2" d="M169.06,130.64l.13-.39A3.8,3.8,0,0,0,168,130a2.57,2.57,0,0,0-1.09.22l.17.37a2.4,2.4,0,0,1,.92-.17A3.7,3.7,0,0,1,169.06,130.64Z"/><path class="cls-2" d="M160.67,129.56V130a5,5,0,0,1,1.59.47l.17-.38A5.3,5.3,0,0,0,160.67,129.56Z"/><path class="cls-87" d="M165.17,131.16c0,.52-.25.93-.56.93s-.57-.41-.57-.93.25-.93.57-.93S165.17,130.64,165.17,131.16Z"/><path class="cls-88" d="M171.81,131.16c0,.52-.25.93-.57.93s-.56-.41-.56-.93.25-.93.56-.93S171.81,130.64,171.81,131.16Z"/><path class="cls-2" d="M162.76,128.29a6.12,6.12,0,0,1,4.18-.15l-.15.88a7.36,7.36,0,0,0-3.9.29C162.77,128.91,162.61,128.71,162.76,128.29Z"/><path class="cls-2" d="M173.56,128.29a6.12,6.12,0,0,0-4.18-.15l.16.88a7.33,7.33,0,0,1,3.89.29C173.55,128.91,173.71,128.71,173.56,128.29Z"/><path class="cls-22" d="M168.27,135.07a2.47,2.47,0,0,0,.8-.17.24.24,0,0,0,.12-.3.23.23,0,0,0-.29-.13,1.23,1.23,0,0,1-.88.09s-.09-.07-.11-.21a33.43,33.43,0,0,1,.14-3.52.23.23,0,0,0-.2-.25.22.22,0,0,0-.24.21,33.61,33.61,0,0,0-.13,3.6.69.69,0,0,0,.32.56A.87.87,0,0,0,168.27,135.07Z"/><path class="cls-4" d="M165.56,136.24a2.89,2.89,0,0,0,2.78,2.68c2,0,2.57-1.59,2.76-2.68Z"/><path class="cls-22" d="M168.31,140.12a2.11,2.11,0,0,0,1.07-.32.23.23,0,0,0,.07-.31.22.22,0,0,0-.3-.08,1.8,1.8,0,0,1-.84.25,1.76,1.76,0,0,1-.8-.25.22.22,0,0,0-.3.08.24.24,0,0,0,.07.31A2,2,0,0,0,168.31,140.12Z"/><path class="cls-2" d="M161.53,131a9.83,9.83,0,0,1-.21-2.79c.21-1.11,1.09-1.76.8-2.83a2.24,2.24,0,0,1,1.58-2.41c.79-.2,2.65.22,4.47-.69s4.78-.25,5.27.92c.6,1.42-.21,1.56,1.42,3.09.65.61-.12,2.2-.23,3.23a7,7,0,0,0,0,1.22V131h2c.21-1.6.34-3.37.4-4.85a5,5,0,0,0-3.07-4.93c-2.79-1.12-7-2-11,.37a5.08,5.08,0,0,0-2.44,4.3,38.34,38.34,0,0,0,.23,5.11Z"/><path class="cls-3" d="M175.68,132.94a9.38,9.38,0,0,1,.12-1.59,1.93,1.93,0,0,1,1-1.68,1.17,1.17,0,0,1,1.6.43c1.06,1.64-.12,6.76-2.72,5.57Z"/><path class="cls-22" d="M176.21,134.18a.22.22,0,0,0,.18-.2,3.52,3.52,0,0,1,1.47-2.47.24.24,0,0,0,.07-.31.22.22,0,0,0-.3-.08,3.93,3.93,0,0,0-1.68,2.82.23.23,0,0,0,.2.25Z"/><path class="cls-22" d="M177.54,133.14a.24.24,0,0,0,.11-.06.25.25,0,0,0,0-.33,2.08,2.08,0,0,0-.94-.51.21.21,0,0,0-.26.17.23.23,0,0,0,.16.28,1.48,1.48,0,0,1,.72.38A.23.23,0,0,0,177.54,133.14Z"/><path class="cls-2" d="M179.81,147.75c-3.21,5.08-15.47,22.66-18.23,24.7-3.6,2.66-13.42,6.44-19.05,10.38-1.92,1.34,2.6,5.13,2.6,5.13s13.74-4.05,19.93-8.18c1.75-1.17,9-8.81,13.67-15.58,1.59-2.32,4.18-5.55,4.55-9C183.71,151.28,182.53,149.17,179.81,147.75Z"/><rect class="cls-89" x="116.44" y="188.48" width="39.96" height="5.04" rx="2.01"/><path class="cls-2" d="M116.44,193.51l-7.51-29.45a2.58,2.58,0,0,1,2.41-3.28h16.52a2.51,2.51,0,0,1,2.4,1.9l8.27,30.83Z"/><path class="cls-89" d="M130.26,162.68l8.2,30.58h1.89l-8.2-30.58a2.51,2.51,0,0,0-2.4-1.9h-1.89A2.51,2.51,0,0,1,130.26,162.68Z"/><path class="cls-90" d="M126,178.47a2.67,2.67,0,0,1-2.58,3.51,4.53,4.53,0,0,1-4.14-3.51,2.68,2.68,0,0,1,2.59-3.52A4.53,4.53,0,0,1,126,178.47Z"/><path class="cls-91" d="M7.69,145.39a4.15,4.15,0,0,1,0-8.29,4.15,4.15,0,0,1,0,8.29Zm0-7a2.85,2.85,0,0,0,0,5.69,2.85,2.85,0,0,0,0-5.69Z"/><path class="cls-91" d="M22,160a4.15,4.15,0,1,1,4-4.15A4.06,4.06,0,0,1,22,160Zm0-7a2.85,2.85,0,1,0,2.72,2.85A2.79,2.79,0,0,0,22,153Z"/><path class="cls-91" d="M26.84,173.43a.64.64,0,0,1-.62-.65v-2.87a.63.63,0,1,1,1.25,0v2.87A.64.64,0,0,1,26.84,173.43Z"/><path class="cls-91" d="M26.84,178.45a.64.64,0,0,1-.62-.65v-2.87a.63.63,0,1,1,1.25,0v2.87A.64.64,0,0,1,26.84,178.45Z"/><path class="cls-91" d="M30.69,174.51H28.23a.65.65,0,0,1,0-1.3h2.46a.65.65,0,0,1,0,1.3Z"/><path class="cls-91" d="M25.46,174.51H23a.65.65,0,0,1,0-1.3h2.46a.65.65,0,0,1,0,1.3Z"/><path class="cls-91" d="M5,157.35a.64.64,0,0,1-.62-.65v-2.87a.62.62,0,1,1,1.24,0v2.87A.64.64,0,0,1,5,157.35Z"/><path class="cls-91" d="M5,162.37a.64.64,0,0,1-.62-.65v-2.87a.62.62,0,1,1,1.24,0v2.87A.64.64,0,0,1,5,162.37Z"/><path class="cls-91" d="M8.81,158.43H6.35a.66.66,0,0,1,0-1.31H8.81a.66.66,0,0,1,0,1.31Z"/><path class="cls-91" d="M3.58,158.43H1.12a.66.66,0,0,1,0-1.31H3.58a.66.66,0,0,1,0,1.31Z"/><path class="cls-91" d="M217.94,29.15a4,4,0,0,1,4.18,3.91,4,4,0,1,1-4.18-3.91Zm.07,1.3a2.82,2.82,0,0,0-2.56,3,2.78,2.78,0,0,0,2.87,2.68,2.8,2.8,0,0,0,2.56-3A2.77,2.77,0,0,0,218,30.45Z"/><path class="cls-91" d="M202,13.43a4,4,0,0,1,4.19,3.9,4.1,4.1,0,0,1-3.73,4.38,4,4,0,0,1-4.18-3.9A4.08,4.08,0,0,1,202,13.43Zm.07,1.3a2.79,2.79,0,0,0-2.55,3,2.76,2.76,0,0,0,2.87,2.68,2.82,2.82,0,0,0,2.56-3A2.78,2.78,0,0,0,202,14.73Z"/><path class="cls-91" d="M195.93,5.15a.63.63,0,0,0,.66.61l2.73-.16a.65.65,0,0,0-.07-1.3l-2.73.16A.64.64,0,0,0,195.93,5.15Z"/><path class="cls-91" d="M191.14,5.44a.64.64,0,0,0,.66.61l2.73-.17a.65.65,0,0,0-.07-1.3l-2.73.17A.65.65,0,0,0,191.14,5.44Z"/><path class="cls-91" d="M194.68,1.19l.15,2.57a.62.62,0,0,0,.65.61.64.64,0,0,0,.59-.68l-.14-2.58a.64.64,0,0,0-.66-.61A.65.65,0,0,0,194.68,1.19Z"/><path class="cls-91" d="M195,6.66l.15,2.57a.62.62,0,0,0,.65.61.64.64,0,0,0,.59-.68l-.14-2.58a.64.64,0,0,0-.66-.61A.65.65,0,0,0,195,6.66Z"/><path class="cls-91" d="M217.78,18.85a.64.64,0,0,0,.66.62l2.74-.17a.65.65,0,0,0-.08-1.3l-2.73.17A.64.64,0,0,0,217.78,18.85Z"/><path class="cls-91" d="M213,19.14a.64.64,0,0,0,.65.62l2.74-.17a.64.64,0,0,0,.58-.69.63.63,0,0,0-.65-.61l-2.74.17A.63.63,0,0,0,213,19.14Z"/><path class="cls-91" d="M216.54,14.89l.14,2.58a.63.63,0,0,0,.65.61.64.64,0,0,0,.59-.69l-.14-2.57a.62.62,0,1,0-1.24.07Z"/><path class="cls-91" d="M216.84,20.36l.14,2.58a.63.63,0,0,0,.65.61.64.64,0,0,0,.59-.69l-.14-2.57a.62.62,0,1,0-1.24.07Z"/><path class="cls-92" d="M221.36,116.13v12.63a3,3,0,0,1-2.89,3h-21.9L190,134.27a.86.86,0,0,1-1.06-1.15l2.5-6.76V116.13a3,3,0,0,1,2.89-3h24.19A3,3,0,0,1,221.36,116.13Z"/><g class="cls-93"><path class="cls-94" d="M216.74,119.7H196.65a.82.82,0,0,1-.8-.83h0a.82.82,0,0,1,.8-.84h20.09a.82.82,0,0,1,.8.84h0A.82.82,0,0,1,216.74,119.7Z"/><path class="cls-94" d="M216.74,123.06H196.65a.82.82,0,0,1-.8-.83h0a.82.82,0,0,1,.8-.84h20.09a.82.82,0,0,1,.8.84h0A.82.82,0,0,1,216.74,123.06Z"/><path class="cls-94" d="M216.74,126.42H196.65a.82.82,0,0,1-.8-.83h0a.82.82,0,0,1,.8-.84h20.09a.82.82,0,0,1,.8.84h0A.82.82,0,0,1,216.74,126.42Z"/></g><path class="cls-95" d="M198.6,196.52v.29a2.93,2.93,0,0,1-2.87,3H47a2.94,2.94,0,0,1-2.87-3v-.29a2.94,2.94,0,0,1,2.87-3H195.73A2.93,2.93,0,0,1,198.6,196.52Z"/><path class="cls-95" d="M198.6,196.52v.15H44.12v-.15a2.94,2.94,0,0,1,2.87-3H195.73A2.93,2.93,0,0,1,198.6,196.52Z"/><g id="Logo"><g id="Groupe_7" data-name="Groupe 7"><g id="Groupe_6" data-name="Groupe 6"><path id="Tracé_104" data-name="Tracé 104" class="cls-96" d="M84.5,44.45V37.18a7.39,7.39,0,0,1,7.22-7.55h.56c6.53,0,6.82-10.23.29-10.56-.28,0-.57,0-.85,0h0c-9.64.07-17.39,8.19-17.33,18.14v7.27H67.17c-9.63.07-17.38,8.19-17.32,18.15h0c-.06,9.95,7.69,18.08,17.33,18.14h0c9.63-.06,17.39-8.19,17.32-18.14V55h7.22c.33,0,.67,0,1,0,6.52-.39,6.24-10.56-.29-10.56ZM74.8,62.59a7.11,7.11,0,0,1-14.2.7A7.33,7.33,0,0,1,67.68,55H74.8Z"/></g><path id="Tracé_105" data-name="Tracé 105" class="cls-4" d="M74.39,55v7.61c0,.21,0,.42,0,.62h0q0,.66,0,1.32c0,8.83-3.48,16-7.83,16.34h.6c.38,0,.77,0,1.14,0h.19c9.1-.79,16.08-8.73,16-18.23V55Z"/><path id="Tracé_106" data-name="Tracé 106" class="cls-4" d="M92.32,18.78h-.6C82.08,18.83,74.33,27,74.39,36.9v7.55H84.5V36.9c0-.18,0-.37,0-.55,0-.47,0-1,0-1.44C84.49,26.19,88,19.09,92.32,18.78Z"/></g><g id="Groupe_8" data-name="Groupe 8"><path id="Tracé_107" data-name="Tracé 107" class="cls-4" d="M118.07,38.29V29.63h2.83v21.6h-2.83V49.5a6.43,6.43,0,0,1-4.75,2.09,7.7,7.7,0,1,1,0-15.39A6.43,6.43,0,0,1,118.07,38.29Zm0,6.7V42.91a4.6,4.6,0,0,0-7.92-2.25,5.06,5.06,0,0,0,0,6.57A4.6,4.6,0,0,0,118.07,45Z"/><path id="Tracé_108" data-name="Tracé 108" class="cls-4" d="M131.22,36.2A7.76,7.76,0,1,1,123.83,44,7.94,7.94,0,0,1,126,38.47,6.93,6.93,0,0,1,131.22,36.2Zm-3.28,4.32a5,5,0,0,0,0,6.84,4.48,4.48,0,0,0,6.54,0,5,5,0,0,0,0-6.85,4.54,4.54,0,0,0-3.26-1.41A4.38,4.38,0,0,0,127.94,40.52Z"/><path id="Tracé_109" data-name="Tracé 109" class="cls-4" d="M152.3,46.53l2.69,1a19.11,19.11,0,0,1-1.43,1.89,7.15,7.15,0,0,1-10.46,0,8,8,0,0,1,0-11,7.17,7.17,0,0,1,10.47,0h0A18.71,18.71,0,0,1,155,40.33l-2.69,1c-.35-.44-.58-.73-.7-.86a4.48,4.48,0,0,0-6.54,0,5,5,0,0,0,0,6.84,4.47,4.47,0,0,0,6.51,0Z"/><path id="Tracé_110" data-name="Tracé 110" class="cls-4" d="M162.26,48.16a3.62,3.62,0,0,0,2.45.62A4.4,4.4,0,0,0,168,47.37c.12-.13.34-.41.69-.84l2.69,1a19.11,19.11,0,0,1-1.43,1.89,7.15,7.15,0,0,1-10.45,0,8,8,0,0,1,0-10.94,7.15,7.15,0,0,1,9.77-.59c.22.19.43.4.64.61s.33.38.74.86l-1.35,1.43Zm4.49-8.7a3.62,3.62,0,0,0-2-.37,4.74,4.74,0,0,0-4.63,4.85,4.15,4.15,0,0,0,.36,2.14Z"/><path id="Tracé_111" data-name="Tracé 111" class="cls-4" d="M181.09,36.2A7.76,7.76,0,1,1,173.7,44a7.94,7.94,0,0,1,2.17-5.49A6.92,6.92,0,0,1,181.09,36.2Zm-3.28,4.32a5,5,0,0,0,0,6.84,4.48,4.48,0,0,0,6.54,0,5,5,0,0,0,0-6.85,4.54,4.54,0,0,0-3.26-1.41A4.38,4.38,0,0,0,177.81,40.52Z"/><path id="Tracé_112" data-name="Tracé 112" class="cls-4" d="M111.2,61v8h-.81V61h-.81V59.7h.81V57.55a2.55,2.55,0,0,1,.73-1.78,2.37,2.37,0,0,1,1.69-.72,3.43,3.43,0,0,1,1,.2l-.25.75a1.77,1.77,0,0,0-.72-.17,1.73,1.73,0,0,0-1.2.53,1.7,1.7,0,0,0-.49,1.25v2.51h1.61V61Z"/><path id="Tracé_113" data-name="Tracé 113" class="cls-4" d="M118.87,59.21A5.15,5.15,0,1,1,114,64.36a5.31,5.31,0,0,1,1.44-3.65A4.63,4.63,0,0,1,118.87,59.21ZM116,61.35a4.39,4.39,0,0,0,0,6,3.93,3.93,0,0,0,5.74,0,4.38,4.38,0,0,0,0-6,4,4,0,0,0-2.86-1.25A3.86,3.86,0,0,0,116,61.35Z"/><path id="Tracé_114" data-name="Tracé 114" class="cls-4" d="M125.76,60.12h.81V61.8a4.52,4.52,0,0,1,.59-.72,3.36,3.36,0,0,1,2.24-1.17v.91a2.61,2.61,0,0,0-1.62.89,4.08,4.08,0,0,0-1.21,2.86v4.87h-.81Z"/><path id="Tracé_115" data-name="Tracé 115" class="cls-4" d="M131.42,60.12h.81v.22a2.56,2.56,0,0,1,3.68,0,2.66,2.66,0,0,1,.35.46,3.38,3.38,0,0,1,.37-.46,2.57,2.57,0,0,1,3.73,0,2.7,2.7,0,0,1,.77,1.84V69h-.81V62.24h0a1.87,1.87,0,0,0-1.92-1.82,1.76,1.76,0,0,0-1.2.56,1.91,1.91,0,0,0-.53,1.39v7.07h-.81v-7.2h0a1.83,1.83,0,0,0-3.65-.08v7.28h-.81Z"/><path id="Tracé_116" data-name="Tracé 116" class="cls-4" d="M153.26,69.44h-.81v-1.9a6.51,6.51,0,0,1-.51.64A4.82,4.82,0,0,1,144,66.83a5.32,5.32,0,0,1,0-4.67,4.83,4.83,0,0,1,7.93-1.36h0a7.79,7.79,0,0,1,.51.63V60.12h.81Zm-.81-4.25V63.52a4,4,0,0,0-5.17-3.17,4.22,4.22,0,0,0-2.76,4.36,4,4,0,0,0,4.79,3.76A4.11,4.11,0,0,0,152.45,65.19Z"/><path id="Tracé_117" data-name="Tracé 117" class="cls-4" d="M157.3,60.12V56.31h.81v3.81h1.62V61h-1.62v8.47h-.81V61h-1.61v-.85Z"/><path id="Tracé_118" data-name="Tracé 118" class="cls-4" d="M163.12,57a.79.79,0,0,1,.24.59.85.85,0,0,1-.24.6.79.79,0,0,1-1.13,0,.85.85,0,0,1-.24-.6A.83.83,0,0,1,162,57,.77.77,0,0,1,163.12,57ZM163,60.12v9.32h-.81V60.12Z"/><path id="Tracé_119" data-name="Tracé 119" class="cls-4" d="M170.18,59.21a5.15,5.15,0,1,1-4.9,5.15,5.31,5.31,0,0,1,1.44-3.65A4.62,4.62,0,0,1,170.18,59.21Zm-2.86,2.18a4.38,4.38,0,0,0,.08,6.09,4,4,0,0,0,5.57,0,4.39,4.39,0,0,0,.08-6.09,4,4,0,0,0-2.87-1.24,3.81,3.81,0,0,0-2.86,1.24Z"/><path id="Tracé_120" data-name="Tracé 120" class="cls-4" d="M177.93,62.3v7.14h-.81V60.12h.81v.6A3.48,3.48,0,0,1,184,63v6.46h-.81V63.37a2.75,2.75,0,0,0-.81-2,2.62,2.62,0,0,0-3.8,0A3.23,3.23,0,0,0,177.93,62.3Z"/></g></g></g></g></svg>