<svg xmlns="http://www.w3.org/2000/svg" xmlns:xlink="http://www.w3.org/1999/xlink" viewBox="0 0 45 45"><defs><style>.cls-1{fill:url(#Dégradé_sans_nom_9);}.cls-2{fill:#fff;fill-rule:evenodd;}</style><linearGradient id="Dégradé_sans_nom_9" y1="22.5" x2="45" y2="22.5" gradientUnits="userSpaceOnUse"><stop offset="0" stop-color="#16f7b4"/><stop offset="1" stop-color="#21bbee"/></linearGradient></defs><g id="Calque_2" data-name="Calque 2"><g id="Calque_1-2" data-name="Calque 1"><rect class="cls-1" width="45" height="45" rx="4.63"/><g id="Layer_1"><path class="cls-2" d="M34.7,18.47c0-.65,0-2.24-.14-3.61a13.26,13.26,0,0,0-.27-2.23,11,11,0,0,0-4.57-6.22A14.8,14.8,0,0,0,21.63,4a14.48,14.48,0,0,0-4.79.75A13.88,13.88,0,0,0,12.62,7a10.49,10.49,0,0,0-2.37,2.82A14.92,14.92,0,0,0,8.67,13.6a16.89,16.89,0,0,0-.52,7.07A31.46,31.46,0,0,0,11,29.08a20.65,20.65,0,0,1,1.43,4.52A37.27,37.27,0,0,1,13,40.74a.78.78,0,0,0,.79.78H26.09a.78.78,0,0,0,.79-.78c0-1-.08-1.86-.15-2.58,0-.45-.08-.84-.08-1.19,0-.58.26-.82,1.46-.82l1.44,0c2.38.07,4.64.13,5.55-1.44h0a7.53,7.53,0,0,0,.24-3c-.05-1.32-.19-2.85-.34-4,1.35,0,2,0,2.79-.9a.79.79,0,0,0,.18-.62c-.21-1.75-3.27-6.8-3.27-7.78ZM19.55,27.86l.36-5.13h5.92a2.82,2.82,0,0,0,1.83-.64,2,2,0,0,0,.76-1.55V14a2,2,0,0,0-.76-1.55,2.87,2.87,0,0,0-1.83-.64H16.2a2.91,2.91,0,0,0-1.83.64A2.06,2.06,0,0,0,13.61,14v6.57a2,2,0,0,0,.76,1.55,2.84,2.84,0,0,0,1.77.64h.44l3,5.1v0Z"/></g></g></g></svg>