<svg xmlns="http://www.w3.org/2000/svg" viewBox="0 0 30 30"><defs><style>.cls-1{fill:#fff;}</style></defs><g id="Calque_2" data-name="Calque 2"><g id="Calque_1-2" data-name="Calque 1"><path class="cls-1" d="M10.91,0A1.41,1.41,0,0,0,9.54,1.43H2.73A2.8,2.8,0,0,0,0,4.29v8.57a2.79,2.79,0,0,0,2.73,2.85H14a9.39,9.39,0,0,1,7.83-4.28,9.25,9.25,0,0,1,5.42,1.77c0-.11,0-.23,0-.34V4.29a2.8,2.8,0,0,0-2.73-2.86H17.73A1.4,1.4,0,0,0,16.36,0Zm2.73,10a1.43,1.43,0,1,1-1.37,1.43A1.4,1.4,0,0,1,13.64,10Zm8.18,4.28A7.09,7.09,0,0,0,15,21.43a6.92,6.92,0,0,0,6.82,7.14,7.13,7.13,0,0,0,3.82-1.14l2.05,2.16a1.31,1.31,0,0,0,1.91,0,1.47,1.47,0,0,0,0-2l-2.06-2.15a8,8,0,0,0,1.09-4A6.92,6.92,0,0,0,21.82,14.28Zm0,2.86a4.12,4.12,0,0,1,4.09,4.29,4.09,4.09,0,1,1-8.18,0A4.12,4.12,0,0,1,21.82,17.14ZM0,17.78v3.65a2.79,2.79,0,0,0,2.73,2.85h9.94a10.39,10.39,0,0,1,0-5.71H2.73A5.24,5.24,0,0,1,0,17.78Z"/></g></g></svg>