<svg xmlns="http://www.w3.org/2000/svg" viewBox="0 0 15 30"><defs><style>.cls-1{fill:#fff;}</style></defs><g id="Calque_2" data-name="Calque 2"><g id="Calque_1-2" data-name="Calque 1"><path class="cls-1" d="M9.52,9.3A33.7,33.7,0,0,0,11.58,21H3.42A33,33,0,0,0,5.52,9.3Z"/><path class="cls-1" d="M12,21H3a.34.34,0,0,0-.26.51l.65.91h8.16l.65-.91A.34.34,0,0,0,12,21Z"/><path class="cls-1" d="M13.92,27.47H1.08a1,1,0,0,0-.54.17A1.33,1.33,0,0,0,0,28.73H15A1.18,1.18,0,0,0,13.92,27.47Z"/><polygon class="cls-1" points="9.63 28.73 0 28.73 0 30 9.63 30 15 30 15 28.73 9.63 28.73"/><path class="cls-1" d="M13.72,24.5a7.46,7.46,0,0,1-.78-.61,9.63,9.63,0,0,1-.72-.71c-.12-.13-.23-.26-.34-.4l-.29-.38H3.41l-.29.38c-.11.14-.22.27-.34.4a9.63,9.63,0,0,1-.72.71,7.46,7.46,0,0,1-.78.61C.69,24.91,0,25.28,0,26.2a1.19,1.19,0,0,0,1.08,1.27H13.92A1.19,1.19,0,0,0,15,26.2C15,25.28,14.31,24.91,13.72,24.5Z"/><path class="cls-1" d="M10.13,8.68a.62.62,0,0,0-.43-.62V8H5.41a.6.6,0,0,0-.54.64.59.59,0,0,0,.54.63H9.7A.63.63,0,0,0,10.13,8.68Z"/><path class="cls-1" d="M10.74.29,10.12,2.8h-1L9.37.46A.38.38,0,0,0,9,0H5.85a.39.39,0,0,0-.34.46L5.79,2.8h-1L4.14.29A.36.36,0,0,0,3.81,0H2.71a.39.39,0,0,0-.33.51L3.65,5.59a.89.89,0,0,0,.82.72h5.94a.9.9,0,0,0,.83-.72L12.51.51A.39.39,0,0,0,12.18,0H11.07A.37.37,0,0,0,10.74.29Z"/><path class="cls-1" d="M10.38,6.31H4.53a.82.82,0,0,0-.76.88.84.84,0,0,0,.75.89h5.84a.45.45,0,0,0,.16,0,.85.85,0,0,0,.59-.86A.79.79,0,0,0,10.38,6.31Z"/></g></g></svg>