<svg xmlns="http://www.w3.org/2000/svg" xmlns:xlink="http://www.w3.org/1999/xlink" viewBox="0 0 25 22"><defs><style>.cls-1{fill:url(#Dégradé_sans_nom_30);}</style><linearGradient id="Dégradé_sans_nom_30" y1="11" x2="25" y2="11" gradientUnits="userSpaceOnUse"><stop offset="0" stop-color="#16f7b4"/><stop offset="1" stop-color="#21bbee"/></linearGradient></defs><g id="Calque_2" data-name="Calque 2"><g id="Calque_1-2" data-name="Calque 1"><path class="cls-1" d="M2.27,0A2.24,2.24,0,0,0,0,2.2V15.4a2.24,2.24,0,0,0,2.27,2.2H9.09V13.2A3.36,3.36,0,0,1,12.5,9.9h.06a4,4,0,0,1,7.84,0h2.33V4.4a2.25,2.25,0,0,0-2.28-2.2H12.3a2.3,2.3,0,0,1-1.6-.64L9.76.64A2.34,2.34,0,0,0,8.15,0ZM16.48,8.8a1.68,1.68,0,0,0-1.71,1.65,9.44,9.44,0,0,0,.2,1.26.33.33,0,0,1-.33.39H12.5a1.12,1.12,0,0,0-1.14,1.1v2.07a.33.33,0,0,0,.41.32,9.71,9.71,0,0,1,1.3-.19,1.65,1.65,0,1,1,0,3.3,9.71,9.71,0,0,1-1.3-.19.34.34,0,0,0-.41.32V20.9A1.12,1.12,0,0,0,12.5,22h8a1.12,1.12,0,0,0,1.14-1.1V18.83a.33.33,0,0,1,.41-.32,9.71,9.71,0,0,0,1.3.19,1.65,1.65,0,1,0,0-3.3,9.71,9.71,0,0,0-1.3.19.34.34,0,0,1-.41-.32V13.2a1.12,1.12,0,0,0-1.14-1.1H18.32a.33.33,0,0,1-.34-.39,8.05,8.05,0,0,0,.2-1.26A1.68,1.68,0,0,0,16.48,8.8Z"/></g></g></svg>