<svg xmlns="http://www.w3.org/2000/svg" viewBox="0 0 30 30"><defs><style>.cls-1{fill:#fff;}</style></defs><g id="Calque_2" data-name="Calque 2"><g id="Calque_1-2" data-name="Calque 1"><path class="cls-1" d="M21.13,14.89c0,12.39,0,11.75-.88,12.08-5.65,2.1-12.95,1.42-14.49.52C4.61,27,3.68,25.86,4.58,25.05c.39-.33-.93-.23,8.22-.23a.57.57,0,0,0,0-1.14c-10.82,0-7.16.12-8.54-.33a1.87,1.87,0,0,1-1-1.08c-.33-.83.26-1.07.46-1.42,7.24,0,7.64.23,7.64-.57s-.13-.57-7.73-.57c-.26-.34-.49-.25-.95-.66a1.39,1.39,0,0,1-.13-2c.28-.27-.76-.19,7.08-.19a.57.57,0,0,0,0-1.14c-9.36,0-6.33.07-7.41-.22a1.55,1.55,0,0,1-1.08-1.75c.23-1,.11-.73,9.06-.73,1.31,0,2.66-1,2.34-2.26,0,0-.44-2.18-.58-3.61a5.19,5.19,0,0,1,.16-2.44c.16-.61.94-3.22,1.52-3.43s1.57-.15,1.57.62c0,1.17.17,4.57,1,6.25C19.69,14.86,20.23,14.24,21.13,14.89Z"/><path class="cls-1" d="M28.89,14.45V28.2a.65.65,0,0,1-.64.66H22.63A.65.65,0,0,1,22,28.2V14.45a.66.66,0,0,1,.64-.67h5.62A.66.66,0,0,1,28.89,14.45Z"/><path class="cls-1" d="M29.12,13.34H21.58V29.13h2.83V21.32a4.11,4.11,0,0,1,4.05-4.15h.66Z"/><path class="cls-1" d="M12.29,24.56H4v2.75L6,28v-.23A1.69,1.69,0,0,1,7.7,26.05h3.19a1.42,1.42,0,0,0,1.4-1.43Z"/><path class="cls-1" d="M5.07,24v-.47a1.69,1.69,0,0,1,1.65-1.7l2.9,0A1.42,1.42,0,0,0,11,20.38H2.91v1.41H3v1.55Z"/><path class="cls-1" d="M5.42,18l2.05,0a1.41,1.41,0,0,0,1.38-1.43H1.79v.93H1.7v1.8l2.08.67v-.23A1.68,1.68,0,0,1,5.42,18Z"/><path class="cls-1" d="M4.62,14.12l4.85,0a1.4,1.4,0,0,0,1.38-1.42H.89v2.5L3,15.82H3A1.68,1.68,0,0,1,4.62,14.12Z"/><path class="cls-1" d="M20.09,14.09v6.23a8.22,8.22,0,0,1-5.92,8,5.1,5.1,0,0,1-1.15.19s6.58-.63,8.22-1.64c0,0,.09-12.6,0-12.51S20.09,14.09,20.09,14.09Z"/><path class="cls-1" d="M28.25,12.65c-5.38,0-6.82-.44-7.3,1.3-.8-.57-3.13-5.19-3.3-5.52-.29-.58-1.35-2.18-1.33-6.56A1.83,1.83,0,0,0,14.46,0C13,0,12.17.24,11.05,4.37a6.15,6.15,0,0,0-.19,2.86c.53,5.49,2.94,4.65-8.12,4.6-1.3,0-2.34.2-2.68,1.61a2.67,2.67,0,0,0,1.51,3,2.61,2.61,0,0,0,1.07,4c-1.27,1.34-.22,3.37,1.06,4-1.07,1.12-.76,3.12,1.62,4.18,1.36.6,8.94,1.88,15.35-.5.28-.11.21-.29.21.53A1.43,1.43,0,0,0,22.29,30h6.3A1.43,1.43,0,0,0,30,28.56V14.45A1.78,1.78,0,0,0,28.25,12.65ZM20.88,13.9Zm-.39,13c-3,1.7-12.06,1.78-14.73.64C4.62,27,3.67,25.87,4.58,25.05c.38-.33-.92-.23,8.22-.23a.57.57,0,0,0,0-1.14c-10.79,0-7.17.13-8.54-.33a1.87,1.87,0,0,1-1-1.08c-.33-.84.26-1.08.46-1.42,7.24,0,7.64.22,7.64-.57s-.13-.57-7.73-.57c-.27-.33-.51-.26-.95-.66a1.38,1.38,0,0,1-.13-2c.28-.26-.77-.18,7.08-.18a.57.57,0,0,0,0-1.14c-9.37,0-6.33.07-7.41-.23a1.54,1.54,0,0,1-1.08-1.75c.24-1,.29-.72,9.06-.72,1.28,0,2.67-.9,2.32-2.42a27.61,27.61,0,0,1-.62-4.31c-.08-1.3,1.15-4.8,1.74-5s1.58-.16,1.57.62c0,1.17.17,4.57,1,6.25,1.82,3.57,3,6,4.64,7.18C20.88,27.92,21.05,26.53,20.49,26.85ZM22,28.2c0-14.57-.27-14.41.64-14.41,5.75,0,6.26-.24,6.26.66,0,14.39.27,14.41-.64,14.41C22.51,28.86,22,29.1,22,28.2Z"/></g></g></svg>