<svg xmlns="http://www.w3.org/2000/svg" viewBox="0 0 15 30"><defs><style>.cls-1{fill:#fff;}</style></defs><g id="Calque_2" data-name="Calque 2"><g id="Calque_1-2" data-name="Calque 1"><path class="cls-1" d="M6.69.37,5.15,2.58A11.14,11.14,0,0,0,3,9.78l.22,4.44L.2,17a.64.64,0,0,0-.19.59l.72,3.61a.61.61,0,0,0,.81.46l2.9-1.14,6.12,0,2.92,1.1a.62.62,0,0,0,.81-.46l.7-3.67a.61.61,0,0,0-.2-.58l-3-2.68.17-4.42A11.13,11.13,0,0,0,9.66,2.55L8.1.37A.86.86,0,0,0,6.69.37ZM9.26,9.9A1.81,1.81,0,1,1,7.44,8.05,1.84,1.84,0,0,1,9.26,9.9Z"/><path class="cls-1" d="M9.87,21.94,5.15,22a.24.24,0,0,0-.24.24V23A11.07,11.07,0,0,0,7.56,30a11.12,11.12,0,0,0,2.57-7.08c0-.13,0-.49,0-.74A.24.24,0,0,0,9.87,21.94Z"/></g></g></svg>