<svg xmlns="http://www.w3.org/2000/svg" xmlns:xlink="http://www.w3.org/1999/xlink" viewBox="0 0 25 20"><defs><style>.cls-1{fill:url(#Dégradé_sans_nom_30);}.cls-2{fill:url(#Dégradé_sans_nom_30-2);}</style><linearGradient id="Dégradé_sans_nom_30" y1="12.71" x2="25" y2="12.71" gradientUnits="userSpaceOnUse"><stop offset="0" stop-color="#16f7b4"/><stop offset="1" stop-color="#21bbee"/></linearGradient><linearGradient id="Dégradé_sans_nom_30-2" x1="7.14" y1="3.76" x2="18.29" y2="3.76" xlink:href="#Dégradé_sans_nom_30"/></defs><g id="Calque_2" data-name="Calque 2"><g id="Calque_1-2" data-name="Calque 1"><path class="cls-1" d="M24.83,18.62A1.35,1.35,0,0,1,23.5,20L1.29,19.72A1.35,1.35,0,0,1,0,18.31L.17,6.79A1.35,1.35,0,0,1,1.5,5.41l22.21.28A1.35,1.35,0,0,1,25,7.1Z"/><path class="cls-2" d="M17.59.16l-.22,0a.58.58,0,0,0-.19,0L8.08,0H7.92a.64.64,0,0,0-.71.56L7.14,6.77a.65.65,0,0,0,.7.59.65.65,0,0,0,.71-.57l0-4.71,8.26.14-.05,4.71a.63.63,0,0,0,.7.58A.64.64,0,0,0,18.22,7L18.29.74A.65.65,0,0,0,17.59.16Z"/></g></g></svg>