<svg xmlns="http://www.w3.org/2000/svg" xmlns:xlink="http://www.w3.org/1999/xlink" viewBox="0 0 25 15"><defs><style>.cls-1{fill:url(#Dégradé_sans_nom_30);}</style><linearGradient id="Dégradé_sans_nom_30" y1="7.5" x2="25" y2="7.5" gradientUnits="userSpaceOnUse"><stop offset="0" stop-color="#16f7b4"/><stop offset="1" stop-color="#21bbee"/></linearGradient></defs><g id="Calque_2" data-name="Calque 2"><g id="Calque_1-2" data-name="Calque 1"><path class="cls-1" d="M24.43,0,18.12,1.88a.52.52,0,0,0-.23.81l.67.8a.55.55,0,0,1,0,.71l-3.6,3.54a.43.43,0,0,1-.64,0L10.43,3a.42.42,0,0,0-.64,0L.15,12.42a.52.52,0,0,0,0,.7l1.4,1.72a.42.42,0,0,0,.64,0l7.4-7.24a.42.42,0,0,1,.64,0l3.85,4.69a.42.42,0,0,0,.64,0l5.84-5.74a.43.43,0,0,1,.64,0l.71.87a.44.44,0,0,0,.77-.15L25,.67A.48.48,0,0,0,24.43,0Z"/></g></g></svg>