<svg xmlns="http://www.w3.org/2000/svg" xmlns:xlink="http://www.w3.org/1999/xlink" viewBox="0 0 45 45"><defs><style>.cls-1{fill:url(#Dégradé_sans_nom_9);}.cls-2{fill:#fff;}</style><linearGradient id="Dégradé_sans_nom_9" y1="22.5" x2="45" y2="22.5" gradientUnits="userSpaceOnUse"><stop offset="0" stop-color="#16f7b4"/><stop offset="1" stop-color="#21bbee"/></linearGradient></defs><g id="Calque_2" data-name="Calque 2"><g id="Calque_1-2" data-name="Calque 1"><rect class="cls-1" width="45" height="45" rx="4.63"/><path class="cls-2" d="M22.5,10.21a1,1,0,0,1-1-1V6.44a1,1,0,1,1,2.05,0V9.18A1,1,0,0,1,22.5,10.21Z"/><path class="cls-2" d="M16.78,11.74a1,1,0,0,1-.89-.51L14.52,8.85a1,1,0,0,1,.37-1.4,1,1,0,0,1,1.4.38l1.37,2.37a1,1,0,0,1,.11.78,1,1,0,0,1-.48.62,1,1,0,0,1-.51.14Z"/><path class="cls-2" d="M12.58,15.93a1.06,1.06,0,0,1-.51-.14L9.7,14.42A1,1,0,0,1,9.32,13a1,1,0,0,1,.89-.51.94.94,0,0,1,.51.14L13.1,14a1,1,0,0,1-.52,1.91Z"/><path class="cls-2" d="M8.31,21.66a1,1,0,1,1,0-2.06h2.74a1,1,0,0,1,0,2.06Z"/><path class="cls-2" d="M10.21,28.75a1,1,0,0,1-1-1.29,1,1,0,0,1,.48-.62l2.37-1.37a1.06,1.06,0,0,1,.51-.14,1,1,0,0,1,.89.51,1,1,0,0,1-.37,1.4l-2.38,1.37a1,1,0,0,1-.51.14Z"/><path class="cls-2" d="M34.79,28.75a1.14,1.14,0,0,1-.51-.13L31.9,27.24a1,1,0,0,1,.52-1.91,1.17,1.17,0,0,1,.51.13l2.37,1.38a1,1,0,0,1,.48.62,1,1,0,0,1-1,1.29Z"/><path class="cls-2" d="M34,21.66a1,1,0,0,1,0-2.06h2.74a1,1,0,1,1,0,2.06Z"/><path class="cls-2" d="M32.42,15.93A1,1,0,0,1,31.9,14l2.38-1.37a.91.91,0,0,1,.51-.14,1,1,0,0,1,.52,1.91l-2.38,1.37a1.06,1.06,0,0,1-.51.14Z"/><path class="cls-2" d="M28.22,11.74a1.14,1.14,0,0,1-.51-.13,1,1,0,0,1-.48-.63,1,1,0,0,1,.11-.78l1.37-2.37a1,1,0,1,1,1.77,1l-1.37,2.38a1,1,0,0,1-.89.51Z"/><path class="cls-2" d="M27.06,31.69a1.33,1.33,0,0,0-.66-1.23V30.3c2.45-2.45,5.05-6.46,5.05-9.61a8.89,8.89,0,0,0-17.78,0c0,3,2.46,6.93,4.82,9.37A1.35,1.35,0,0,0,18,31a1.3,1.3,0,0,0,.48,1.12,1.31,1.31,0,0,0-.48.94,1.27,1.27,0,0,0,.55,1.16,1.34,1.34,0,0,0-.55,1,1.27,1.27,0,0,0,.8,1.3,3.72,3.72,0,0,0,.88,1.53,5.23,5.23,0,0,0,2.61,1.5h.36A6.32,6.32,0,0,0,25.41,38a3.39,3.39,0,0,0,.66-.94,1.33,1.33,0,0,0,1-1.19,1.32,1.32,0,0,0-.56-1.16,1.33,1.33,0,0,0,.56-1,1.31,1.31,0,0,0-.5-1.12A1.34,1.34,0,0,0,27.06,31.69Zm-4.5-4.89a6.51,6.51,0,1,1,6.5-6.51A6.5,6.5,0,0,1,22.56,26.8Z"/></g></g></svg>