<svg xmlns="http://www.w3.org/2000/svg" xmlns:xlink="http://www.w3.org/1999/xlink" viewBox="0 0 20 25"><defs><style>.cls-1{fill:url(#Dégradé_sans_nom_30);}.cls-2{fill:url(#Dégradé_sans_nom_30-2);}</style><linearGradient id="Dégradé_sans_nom_30" y1="12.5" x2="20" y2="12.5" gradientUnits="userSpaceOnUse"><stop offset="0" stop-color="#16f7b4"/><stop offset="1" stop-color="#21bbee"/></linearGradient><linearGradient id="Dégradé_sans_nom_30-2" x1="7.5" y1="5.63" x2="8.75" y2="5.63" xlink:href="#Dégradé_sans_nom_30"/></defs><g id="Calque_2" data-name="Calque 2"><g id="Calque_1-2" data-name="Calque 1"><path class="cls-1" d="M19.38,0H.62A.62.62,0,0,0,0,.62V24.37A.63.63,0,0,0,.62,25H19.38a.63.63,0,0,0,.62-.63V.62A.62.62,0,0,0,19.38,0ZM11.87,5.62h1.25a.63.63,0,1,1,0,1.26H11.87a.63.63,0,0,1,0-1.26Zm-5.62,0a1.88,1.88,0,0,1,3.75,0v2.5a.63.63,0,1,1-1.25,0V7.5H7.5v.62a.63.63,0,1,1-1.25,0ZM15.62,20H4.37a.63.63,0,0,1,0-1.25H15.62a.63.63,0,1,1,0,1.25Zm0-3.75H4.37a.63.63,0,0,1,0-1.25H15.62a.63.63,0,1,1,0,1.25Zm0-3.75H4.37a.63.63,0,0,1,0-1.25H15.62a.63.63,0,1,1,0,1.25Z"/><path class="cls-2" d="M8.75,6.25V5.62a.63.63,0,0,0-1.25,0v.63Z"/></g></g></svg>