<svg xmlns="http://www.w3.org/2000/svg" xmlns:xlink="http://www.w3.org/1999/xlink" viewBox="0 0 40 40"><defs><style>.cls-1{fill:url(#Dégradé_sans_nom_30);}.cls-2{fill:url(#Dégradé_sans_nom_30-2);}</style><linearGradient id="Dégradé_sans_nom_30" y1="20" x2="40" y2="20" gradientUnits="userSpaceOnUse"><stop offset="0" stop-color="#16f7b4"/><stop offset="1" stop-color="#21bbee"/></linearGradient><linearGradient id="Dégradé_sans_nom_30-2" x1="14.91" y1="19.73" x2="24.23" y2="19.73" xlink:href="#Dégradé_sans_nom_30"/></defs><g id="Calque_2" data-name="Calque 2"><g id="Calque_1-2" data-name="Calque 1"><path class="cls-1" d="M20,0A20,20,0,1,0,40,20,20,20,0,0,0,20,0Zm0,35.68A15.68,15.68,0,1,1,35.68,20,15.71,15.71,0,0,1,20,35.68Z"/><path class="cls-2" d="M20.54,14.38a3.68,3.68,0,1,0-3.68-3.67A3.67,3.67,0,0,0,20.54,14.38Zm3.57,7.51A4.2,4.2,0,0,0,20,16.73H16.86a1.08,1.08,0,0,0-1.09,1.08,1,1,0,0,0,.27.62,2.27,2.27,0,0,1,.63,2.1L15,27.27a4.2,4.2,0,0,0,4.09,5.16h3.17a1.08,1.08,0,0,0,1.08-1.08,1,1,0,0,0-.27-.62,2.27,2.27,0,0,1-.63-2.1Z"/></g></g></svg>