<svg xmlns="http://www.w3.org/2000/svg" xmlns:xlink="http://www.w3.org/1999/xlink" viewBox="0 0 20 25"><defs><style>.cls-1{fill:url(#Dégradé_sans_nom_30);}</style><linearGradient id="Dégradé_sans_nom_30" y1="12.5" x2="20" y2="12.5" gradientUnits="userSpaceOnUse"><stop offset="0" stop-color="#16f7b4"/><stop offset="1" stop-color="#21bbee"/></linearGradient></defs><g id="Calque_2" data-name="Calque 2"><g id="Calque_1-2" data-name="Calque 1"><path class="cls-1" d="M19.38,1.25H16.25V3.12a.63.63,0,1,1-1.25,0V.62a.63.63,0,0,0-1.25,0v.63h-2.5V3.12a.63.63,0,1,1-1.25,0V.62a.63.63,0,0,0-1.25,0v.63H6.25V3.12A.63.63,0,1,1,5,3.12V.62a.63.63,0,0,0-1.25,0v.63H.62A.63.63,0,0,0,0,1.88V24.37A.63.63,0,0,0,.62,25H19.38a.63.63,0,0,0,.62-.63V1.88A.63.63,0,0,0,19.38,1.25ZM15.62,20H4.37a.63.63,0,0,1,0-1.25H15.62a.63.63,0,1,1,0,1.25Zm0-3.75H4.37a.63.63,0,0,1,0-1.25H15.62a.63.63,0,1,1,0,1.25Zm0-3.75H4.37a.63.63,0,0,1,0-1.25H15.62a.63.63,0,1,1,0,1.25Zm0-3.75H4.37a.63.63,0,0,1,0-1.25H15.62a.63.63,0,1,1,0,1.25Z"/></g></g></svg>