<svg xmlns="http://www.w3.org/2000/svg" xmlns:xlink="http://www.w3.org/1999/xlink" viewBox="0 0 22 25"><defs><style>.cls-1{fill:url(#Dégradé_sans_nom_24);}</style><linearGradient id="Dégradé_sans_nom_24" y1="12.5" x2="22" y2="12.5" gradientUnits="userSpaceOnUse"><stop offset="0" stop-color="#1c2057"/><stop offset="1" stop-color="#17243e"/></linearGradient></defs><g id="Calque_2" data-name="Calque 2"><g id="Calque_1-2" data-name="Calque 1"><path class="cls-1" d="M5.79,0A2.43,2.43,0,0,0,3.47,2.5V5.15a.57.57,0,0,0,.83.54A5.47,5.47,0,0,1,7.57,5a6.13,6.13,0,0,1,5.16,5.9,6.53,6.53,0,0,1-1.6,4.67c3.14,1,5.08,3.12,5.08,5.92v2.23A1.21,1.21,0,0,0,17.37,25h2.31A2.42,2.42,0,0,0,22,22.5V8a1.32,1.32,0,0,0-.34-.89L15.39.37A1.1,1.1,0,0,0,14.57,0Zm8.1,1.88,6.37,6.87H13.89ZM7,7.5a3.64,3.64,0,0,0-3.48,3.75A3.64,3.64,0,0,0,7,15a3.64,3.64,0,0,0,3.47-3.75A3.64,3.64,0,0,0,7,7.5Zm0,10a10.94,10.94,0,0,0-4.54.87A4.82,4.82,0,0,0,.78,19.54a3,3,0,0,0-.78,2v1.61A1.82,1.82,0,0,0,1.74,25H12.16a1.82,1.82,0,0,0,1.73-1.87V21.52a3.08,3.08,0,0,0-.77-2,5,5,0,0,0-1.63-1.17A11,11,0,0,0,7,17.5Z"/></g></g></svg>