<svg xmlns="http://www.w3.org/2000/svg" xmlns:xlink="http://www.w3.org/1999/xlink" viewBox="0 0 45 45"><defs><style>.cls-1{fill:url(#Dégradé_sans_nom_9);}.cls-2{fill:#fff;}</style><linearGradient id="Dégradé_sans_nom_9" y1="22.5" x2="45" y2="22.5" gradientUnits="userSpaceOnUse"><stop offset="0" stop-color="#16f7b4"/><stop offset="1" stop-color="#21bbee"/></linearGradient></defs><g id="Calque_2" data-name="Calque 2"><g id="Calque_1-2" data-name="Calque 1"><rect class="cls-1" width="45" height="45" rx="4.63"/><path class="cls-2" d="M18.41,7.5A1.41,1.41,0,0,0,17,8.93H10.23A2.8,2.8,0,0,0,7.5,11.79v8.57a2.79,2.79,0,0,0,2.73,2.85H21.49a9.39,9.39,0,0,1,7.83-4.28,9.25,9.25,0,0,1,5.42,1.77c0-.11,0-.23,0-.34V11.79A2.8,2.8,0,0,0,32,8.93H25.23A1.4,1.4,0,0,0,23.86,7.5Zm2.73,10a1.43,1.43,0,1,1-1.37,1.43A1.4,1.4,0,0,1,21.14,17.5Zm8.18,4.28a7.09,7.09,0,0,0-6.82,7.15,6.92,6.92,0,0,0,6.82,7.14,7.13,7.13,0,0,0,3.82-1.14l2,2.16a1.31,1.31,0,0,0,1.91,0,1.47,1.47,0,0,0,0-2L35,32.93a8,8,0,0,0,1.09-4A6.92,6.92,0,0,0,29.32,21.78Zm0,2.86a4.12,4.12,0,0,1,4.09,4.29,4.09,4.09,0,1,1-8.18,0A4.12,4.12,0,0,1,29.32,24.64ZM7.5,25.28v3.65a2.79,2.79,0,0,0,2.73,2.85h9.94a10.39,10.39,0,0,1,0-5.71H10.23A5.24,5.24,0,0,1,7.5,25.28Z"/></g></g></svg>