<svg xmlns="http://www.w3.org/2000/svg" xmlns:xlink="http://www.w3.org/1999/xlink" viewBox="0 0 25 25"><defs><style>.cls-1{fill:url(#Dégradé_sans_nom_10);}.cls-2{fill:#fff;}</style><linearGradient id="Dégradé_sans_nom_10" y1="12.5" x2="25" y2="12.5" gradientUnits="userSpaceOnUse"><stop offset="0" stop-color="#16f7b4"/><stop offset="1" stop-color="#21bbee"/></linearGradient></defs><g id="Calque_2" data-name="Calque 2"><g id="Calque_1-2" data-name="Calque 1"><circle class="cls-1" cx="12.5" cy="12.5" r="12.5"/><path class="cls-2" d="M12.79,17.5C9.38,17.5,6,15.78,2.63,12.38l-.13-.13.12-.13a17.81,17.81,0,0,1,6.17-3.9,11.65,11.65,0,0,1,6.34-.48,14.11,14.11,0,0,1,7.26,4.38l.11.11-.09.13A14.15,14.15,0,0,1,20,14.75a12.08,12.08,0,0,1-6.42,2.72C13.34,17.49,13.06,17.5,12.79,17.5ZM3,12.25c3.51,3.52,7.08,5.15,10.61,4.86a11.75,11.75,0,0,0,6.25-2.64,14.33,14.33,0,0,0,2.23-2.21,13.84,13.84,0,0,0-7-4.18,11.36,11.36,0,0,0-6.18.48A17.39,17.39,0,0,0,3,12.25Z"/><ellipse class="cls-2" cx="12.92" cy="12.5" rx="3.93" ry="4.31"/><ellipse class="cls-2" cx="11.28" cy="10.62" rx="1.05" ry="1.16"/></g></g></svg>