<svg xmlns="http://www.w3.org/2000/svg" viewBox="0 0 20 30"><defs><style>.cls-1{fill:#fff;}</style></defs><g id="Calque_2" data-name="Calque 2"><g id="Calque_1-2" data-name="Calque 1"><path class="cls-1" d="M19,5.78H2.15V30H19a1,1,0,0,0,1-1.08V6.86A1,1,0,0,0,19,5.78Z"/><path class="cls-1" d="M1.7,5.78V30A2,2,0,0,1,0,28V4.2A1.87,1.87,0,0,0,1.7,5.78Z"/><path class="cls-1" d="M14.67.19a1.35,1.35,0,0,0-1.3,0L.24,3.73a1.87,1.87,0,0,0,.33.86L13.59,1h0l0,0c.12-.05.43-.15.58,0a.78.78,0,0,1,.15.57V6.35h.81V1.52A1.54,1.54,0,0,0,14.67.19Z"/></g></g></svg>