<svg xmlns="http://www.w3.org/2000/svg" viewBox="0 0 25 30"><defs><style>.cls-1{fill:#fff;}</style></defs><g id="Calque_2" data-name="Calque 2"><g id="Calque_1-2" data-name="Calque 1"><path class="cls-1" d="M16.62,12.56A4.34,4.34,0,0,1,12.39,17a4.34,4.34,0,0,1-4.22-4.43,4.33,4.33,0,0,1,4.22-4.42,5.27,5.27,0,0,1,.57,0l2.42-2.45a7,7,0,0,0-3-.67,7.39,7.39,0,0,0-7.25,7.5,7.39,7.39,0,0,0,7.25,7.51,7.39,7.39,0,0,0,7.26-7.51,7.65,7.65,0,0,0-.59-3l-2.46,2.5C16.61,12.26,16.62,12.41,16.62,12.56ZM20,22.48A12.6,12.6,0,0,0,24.16,8.64l-.67.68a2.6,2.6,0,0,1-1.85.78l-.22,0a9.64,9.64,0,0,1,.33,2.48,9.44,9.44,0,0,1-9.36,9.49,9.49,9.49,0,0,1,0-19,9,9,0,0,1,2.82.44A2.74,2.74,0,0,1,16,1.7l.85-.86A12.25,12.25,0,0,0,12.39,0a12.59,12.59,0,0,0-7,22.93l-2,5.51A1.17,1.17,0,0,0,4,29.93a1.09,1.09,0,0,0,.4.07,1.14,1.14,0,0,0,1.06-.75l1.92-5.19a12.22,12.22,0,0,0,4.23,1v3.76a1.14,1.14,0,1,0,2.27,0V25A12.16,12.16,0,0,0,18,23.75l2,5.5a1.14,1.14,0,0,0,1.06.75,1.12,1.12,0,0,0,.4-.07,1.17,1.17,0,0,0,.67-1.49Z"/><path class="cls-1" d="M24.54,4.08l-2.16-.84A.69.69,0,0,1,22,2.83L21.14.64A.72.72,0,0,0,20,.38L17.32,3.06a.73.73,0,0,0-.17.78l.7,1.83-4.54,4.61a2.32,2.32,0,0,0-.92-.18,2.47,2.47,0,1,0,2.44,2.46,2.6,2.6,0,0,0-.18-.92L19,7.21l2.36.91a.58.58,0,0,0,.26.05A.73.73,0,0,0,22.15,8l2.64-2.68A.74.74,0,0,0,24.54,4.08Z"/></g></g></svg>