<svg xmlns="http://www.w3.org/2000/svg" viewBox="0 0 30 25"><defs><style>.cls-1{fill:#21bbee;fill-rule:evenodd;}</style></defs><g id="Calque_2" data-name="Calque 2"><g id="Calque_1-2" data-name="Calque 1"><path class="cls-1" d="M22.68,12.18c-4,0-7.31,2.87-7.31,6.41S18.64,25,22.68,25,30,22.13,30,18.59s-3.28-6.41-7.32-6.41Zm0,1.28c3.23,0,5.86,2.3,5.86,5.13s-2.63,5.13-5.86,5.13-5.85-2.3-5.85-5.13,2.62-5.13,5.85-5.13ZM22,1.28V.64a.74.74,0,0,1,1.46,0v.64h2.2a4,4,0,0,1,2.59.94,3,3,0,0,1,1.07,2.27v7a.74.74,0,0,1-1.47,0V6.41H1.46V19.87a1.79,1.79,0,0,0,.65,1.36,2.37,2.37,0,0,0,1.55.57H13.9a.65.65,0,1,1,0,1.28H3.66a4,4,0,0,1-2.59-.94A3,3,0,0,1,0,19.87V4.49A3.46,3.46,0,0,1,3.66,1.28H5.85V.64A.7.7,0,0,1,6.59,0a.69.69,0,0,1,.73.64v.64Zm1.46,16.94,2.17,1.1a.6.6,0,0,1,.27.87.8.8,0,0,1-1,.24L22,19V15.38a.74.74,0,0,1,1.46,0v2.84ZM7.32,17.31H4.39v2.56H7.32V17.31Zm5.85,0H10.24v2.56h2.93V17.31ZM7.32,12.82H4.39v2.56H7.32V12.82Zm5.85,0H10.24v2.56h2.93V12.82ZM7.32,8.33H4.39V10.9H7.32V8.33Zm5.85,0H10.24V10.9h2.93V8.33Zm5.85,0H16.1V10.9H19V8.33Zm5.86,0H22V10.9h2.93V8.33ZM23.41,2.56v.65a.74.74,0,0,1-1.46,0V2.56H7.32v.65a.69.69,0,0,1-.73.64.7.7,0,0,1-.74-.64V2.56H3.66a2.09,2.09,0,0,0-2.2,1.93v.64H27.8V4.49a1.81,1.81,0,0,0-.64-1.36,2.37,2.37,0,0,0-1.55-.57Z"/></g></g></svg>