<svg xmlns="http://www.w3.org/2000/svg" xmlns:xlink="http://www.w3.org/1999/xlink" viewBox="0 0 20 25"><defs><style>.cls-1{fill:url(#Dégradé_sans_nom_30);}.cls-2,.cls-3,.cls-4{fill-rule:evenodd;}.cls-2{fill:url(#Dégradé_sans_nom_30-2);}.cls-3{fill:url(#Dégradé_sans_nom_30-3);}.cls-4{fill:url(#Dégradé_sans_nom_30-4);}</style><linearGradient id="Dégradé_sans_nom_30" x1="2.18" y1="21.02" x2="17.82" y2="21.02" gradientUnits="userSpaceOnUse"><stop offset="0" stop-color="#16f7b4"/><stop offset="1" stop-color="#21bbee"/></linearGradient><linearGradient id="Dégradé_sans_nom_30-2" x1="0" y1="9.27" x2="20" y2="9.27" xlink:href="#Dégradé_sans_nom_30"/><linearGradient id="Dégradé_sans_nom_30-3" x1="5.62" y1="10.36" x2="9.84" y2="10.36" xlink:href="#Dégradé_sans_nom_30"/><linearGradient id="Dégradé_sans_nom_30-4" x1="7.81" y1="9.27" x2="14.38" y2="9.27" xlink:href="#Dégradé_sans_nom_30"/></defs><g id="Calque_2" data-name="Calque 2"><g id="Calque_1-2" data-name="Calque 1"><path class="cls-1" d="M16.09,17l1.72,7.33a.53.53,0,0,1-.43.62.57.57,0,0,1-.43-.08L10,21.16,3,24.93a.58.58,0,0,1-.76-.19.5.5,0,0,1-.07-.37h0L3.91,17a2.21,2.21,0,0,0,.76.69l.06,0a3.41,3.41,0,0,0,2,.19H6.8a2.9,2.9,0,0,1,.63,0,3.33,3.33,0,0,1,.59.36,3.35,3.35,0,0,0,2,.79,3.35,3.35,0,0,0,2-.79,3.33,3.33,0,0,1,.59-.36,2.77,2.77,0,0,1,.7,0l.56.06h0a2.69,2.69,0,0,0,1.44-.24l.06,0A2.09,2.09,0,0,0,16.09,17Z"/><path class="cls-2" d="M5,1.27A2.4,2.4,0,0,0,4,2.58a2.38,2.38,0,0,1-.42.73,2.7,2.7,0,0,1-.78.38,2.57,2.57,0,0,0-1.41.9A2.3,2.3,0,0,0,1.2,6.18a2.26,2.26,0,0,1,0,.85,2.8,2.8,0,0,1-.48.72A2.45,2.45,0,0,0,0,9.27,2.5,2.5,0,0,0,.75,10.8a2.77,2.77,0,0,1,.48.71,2.32,2.32,0,0,1,0,.86A2.27,2.27,0,0,0,1.37,14a2.58,2.58,0,0,0,1.41.91,2.46,2.46,0,0,1,.78.38A2.26,2.26,0,0,1,4,16l.12.27a2.05,2.05,0,0,0,.85,1l0,0a2.84,2.84,0,0,0,1.66.13h0a2.89,2.89,0,0,1,.92,0,2.7,2.7,0,0,1,.77.44,2.91,2.91,0,0,0,1.65.69,2.91,2.91,0,0,0,1.65-.69,2.7,2.7,0,0,1,.77-.44,2.89,2.89,0,0,1,.92,0h0A2.92,2.92,0,0,0,15,17.3l.05,0a2.05,2.05,0,0,0,.85-1L16,16a2.26,2.26,0,0,1,.42-.73,2.46,2.46,0,0,1,.78-.38A2.58,2.58,0,0,0,18.63,14a2.27,2.27,0,0,0,.17-1.58,2.32,2.32,0,0,1,0-.86,2.77,2.77,0,0,1,.48-.71A2.5,2.5,0,0,0,20,9.27a2.45,2.45,0,0,0-.75-1.52A2.8,2.8,0,0,1,18.77,7a2.26,2.26,0,0,1,0-.85,2.3,2.3,0,0,0-.17-1.59,2.57,2.57,0,0,0-1.41-.9,2.7,2.7,0,0,1-.78-.38A2.38,2.38,0,0,1,16,2.58a2.4,2.4,0,0,0-1-1.31,2.85,2.85,0,0,0-1.71-.16h0a2.89,2.89,0,0,1-.92,0,2.76,2.76,0,0,1-.77-.45A2.91,2.91,0,0,0,10,0,2.91,2.91,0,0,0,8.35.69a2.76,2.76,0,0,1-.77.45,3.27,3.27,0,0,1-.92,0h0A2.77,2.77,0,0,0,5,1.27ZM10,3.53a6.42,6.42,0,0,1,4.38,1.68,5.45,5.45,0,0,1,0,8.13,6.55,6.55,0,0,1-8.76,0,5.45,5.45,0,0,1,0-8.13A6.42,6.42,0,0,1,10,3.53Z"/><polygon class="cls-3" points="9.85 11.38 8.83 12.32 5.62 9.35 6.64 8.4 9.85 11.38"/><polygon class="cls-4" points="8.83 12.32 7.81 11.38 13.36 6.22 14.38 7.17 8.83 12.32"/></g></g></svg>