<svg xmlns="http://www.w3.org/2000/svg" xmlns:xlink="http://www.w3.org/1999/xlink" viewBox="0 0 45 45"><defs><style>.cls-1{isolation:isolate;}.cls-2{fill:url(#Dégradé_sans_nom_30);}.cls-3{fill:#fff;}.cls-4{opacity:0.07;}.cls-5{fill:url(#Dégradé_sans_nom_24);}.cls-6{fill:url(#radial-gradient);}.cls-7{fill:url(#Dégradé_sans_nom_30-2);}.cls-8{fill:url(#linear-gradient);}.cls-9{fill:url(#linear-gradient-2);}.cls-10{fill:url(#linear-gradient-3);}.cls-11{fill:url(#linear-gradient-4);}.cls-12,.cls-13{fill:url(#Dégradé_sans_nom_30-3);}.cls-13{opacity:0.04;}.cls-14{fill:url(#Dégradé_sans_nom_30-5);}.cls-15,.cls-17{fill:#bcbec0;}.cls-16{fill:url(#linear-gradient-5);}.cls-17,.cls-20{opacity:0.5;mix-blend-mode:screen;}.cls-18{fill:url(#Dégradé_sans_nom_24-2);}.cls-19,.cls-20{fill:url(#Dégradé_sans_nom_24-3);}</style><linearGradient id="Dégradé_sans_nom_30" y1="22.5" x2="45" y2="22.5" gradientTransform="translate(33.88 -7.21) rotate(65.96)" gradientUnits="userSpaceOnUse"><stop offset="0" stop-color="#16f7b4"/><stop offset="1" stop-color="#21bbee"/></linearGradient><linearGradient id="Dégradé_sans_nom_24" x1="6.05" y1="22.5" x2="38.95" y2="22.5" gradientUnits="userSpaceOnUse"><stop offset="0" stop-color="#1c2057"/><stop offset="1" stop-color="#17243e"/></linearGradient><radialGradient id="radial-gradient" cx="23.68" cy="20.9" r="4.51" gradientTransform="translate(0.53 0.53) scale(0.98 0.98)" gradientUnits="userSpaceOnUse"><stop offset="0.23" stop-color="#575753"/><stop offset="0.31" stop-color="#4c4a46"/><stop offset="0.42" stop-color="#35312d"/><stop offset="0.45" stop-color="#24201c"/><stop offset="0.47" stop-color="#231f1b"/><stop offset="0.6" stop-color="#1c1914"/><stop offset="0.72" stop-color="#24201c"/><stop offset="0.91" stop-color="#383530"/><stop offset="1" stop-color="#44403c"/></radialGradient><linearGradient id="Dégradé_sans_nom_30-2" x1="10.13" y1="24.51" x2="35.52" y2="24.51" gradientTransform="matrix(1, 0, 0, 1, 0, 0)" xlink:href="#Dégradé_sans_nom_30"/><linearGradient id="linear-gradient" x1="22.07" y1="8.14" x2="23.63" y2="8.14" gradientUnits="userSpaceOnUse"><stop offset="0" stop-color="#edf5ee"/><stop offset="0.21" stop-color="#e2e8e1"/><stop offset="0.5" stop-color="#cbcfc8"/><stop offset="0.99" stop-color="#a9ada6"/></linearGradient><linearGradient id="linear-gradient-2" x1="36.43" y1="22.8" x2="37.71" y2="22.8" xlink:href="#linear-gradient"/><linearGradient id="linear-gradient-3" x1="7.27" y1="22.8" x2="9.67" y2="22.8" xlink:href="#linear-gradient"/><linearGradient id="linear-gradient-4" x1="22.11" y1="37.21" x2="23.6" y2="37.21" xlink:href="#linear-gradient"/><linearGradient id="Dégradé_sans_nom_30-3" x1="22.79" y1="17.31" x2="25.55" y2="17.31" gradientTransform="matrix(1, 0, 0, 1, 0, 0)" xlink:href="#Dégradé_sans_nom_30"/><linearGradient id="Dégradé_sans_nom_30-5" x1="20.05" y1="17.31" x2="22.8" y2="17.31" gradientTransform="matrix(1, 0, 0, 1, 0, 0)" xlink:href="#Dégradé_sans_nom_30"/><linearGradient id="linear-gradient-5" x1="282.04" y1="35.04" x2="283.51" y2="35.04" gradientTransform="matrix(1.86, 0, 0, 1, -501.73, -6.14)" gradientUnits="userSpaceOnUse"><stop offset="0" stop-color="#7e7f7a"/><stop offset="0.27" stop-color="#787975"/><stop offset="0.63" stop-color="#696967"/><stop offset="1" stop-color="#505052"/></linearGradient><linearGradient id="Dégradé_sans_nom_24-2" x1="21.45" y1="22.51" x2="24.15" y2="22.51" xlink:href="#Dégradé_sans_nom_24"/><linearGradient id="Dégradé_sans_nom_24-3" x1="21.48" y1="22.51" x2="24.11" y2="22.51" xlink:href="#Dégradé_sans_nom_24"/></defs><g class="cls-1"><g id="Calque_2" data-name="Calque 2"><g id="Calque_1-2" data-name="Calque 1"><circle class="cls-2" cx="22.5" cy="22.5" r="22.5" transform="translate(-7.21 33.88) rotate(-65.96)"/><circle class="cls-3" cx="22.55" cy="22.53" r="18.83"/><circle class="cls-4" cx="22.5" cy="22.5" r="18.1"/><circle class="cls-5" cx="22.5" cy="22.5" r="16.45"/><circle class="cls-6" cx="22.5" cy="22.5" r="2.53"/><path class="cls-7" d="M10.19,13.44,20.3,35.76h5.11l10.11-22.5H10.13ZM30,16.64,23.14,32.28h-.55L15.65,16.64Z"/><g id="_2" data-name="2"><path class="cls-3" d="M35.75,22.62h0l0,0L25.14,20.4,22.93,9.82h0l0,0h-.1v0h0L20.57,20.4,10,22.6s0,0,0,0h0l0,0h0s0,0,0,0,0,0,0,0l0,0h0L20.57,25l2.21,10.57v0h.11v0s0,0,0,0L25.14,25l10.57-2.21h0l0,0h0a.05.05,0,0,0,0,0A.09.09,0,0,0,35.75,22.62Z"/><path class="cls-3" d="M29.07,16.41h0l-6.19,4-6.18-4h0s0,0,0,0h0s0,0,0,0,0,0,0,0h0l4.05,6.19-4.05,6.19v0h0a0,0,0,0,0,0,0v0h.08l6.18-4.05L29,29h.08v0a0,0,0,0,0,0,0h0v0l-4.05-6.19,4.05-6.19h0s0,0,0,0h0a0,0,0,0,0,0,0Z"/><path class="cls-8" d="M22.07,7.14h.46l.52,1,.2.44h0c0-.21-.05-.49-.05-.73v-.7h.42v2h-.46l-.52-1-.19-.43h0c0,.22.05.48.05.72v.7h-.43Z"/><path class="cls-9" d="M36.43,21.8h1.25v.38h-.8v.4h.68V23h-.68v.46h.83v.38H36.43Z"/><path class="cls-10" d="M7.27,21.8h.46l.14.94c0,.2,0,.42.08.63H8c0-.21.08-.43.12-.63l.21-.94h.39l.21.94q.06.3.12.63H9c0-.22.05-.43.07-.63l.14-.94h.43l-.35,2H8.75l-.19-.91c0-.15-.06-.31-.08-.46h0c0,.15-.05.31-.08.46l-.19.91H7.64Z"/><path class="cls-11" d="M22.37,37.65a.82.82,0,0,0,.49.21c.19,0,.28-.08.28-.2s-.11-.16-.29-.23l-.26-.11a.6.6,0,0,1-.4-.55.64.64,0,0,1,.71-.59.92.92,0,0,1,.64.26l-.22.29a.69.69,0,0,0-.42-.16c-.15,0-.25.06-.25.18s.13.16.3.23l.26.11a.54.54,0,0,1,.39.54.67.67,0,0,1-.75.62,1.12,1.12,0,0,1-.74-.29Z"/><polygon class="cls-12" points="25.55 22.56 22.81 25.27 22.8 25.27 22.8 9.35 25.54 22.52 25.55 22.56"/><polygon class="cls-13" points="25.55 22.56 22.81 25.27 22.8 25.27 22.8 9.35 25.54 22.52 25.55 22.56"/><polygon class="cls-14" points="22.8 9.35 22.8 25.27 22.77 25.27 20.05 22.53 20.05 22.52 22.8 9.35"/><polygon class="cls-15" points="22.8 22.49 22.79 35.67 20.05 22.5 20.05 22.49 22.79 22.49 22.8 22.49"/><polygon class="cls-16" points="25.54 22.53 22.79 35.67 22.8 22.49 25.52 22.51 25.54 22.53"/><polygon class="cls-17" points="25.54 22.53 22.79 35.67 22.8 22.49 25.52 22.51 25.54 22.53"/><path class="cls-3" d="M24.28,23.16a1.66,1.66,0,0,1-2.16.76,1.51,1.51,0,0,1-.8-2.05,1.66,1.66,0,0,1,2.16-.77A1.53,1.53,0,0,1,24.28,23.16Z"/><path class="cls-18" d="M24,23.05a1.38,1.38,0,0,1-1.8.63A1.27,1.27,0,0,1,21.57,22a1.38,1.38,0,0,1,1.79-.63A1.27,1.27,0,0,1,24,23.05Z"/><path class="cls-19" d="M24,23a1.34,1.34,0,0,1-1.74.62A1.23,1.23,0,0,1,21.6,22a1.35,1.35,0,0,1,1.75-.62A1.22,1.22,0,0,1,24,23Z"/><path class="cls-20" d="M24,23a1.34,1.34,0,0,1-1.74.62A1.23,1.23,0,0,1,21.6,22a1.35,1.35,0,0,1,1.75-.62A1.22,1.22,0,0,1,24,23Z"/></g></g></g></g></svg>