<?xml version="1.0" encoding="utf-8"?>
<!-- Generator: Adobe Illustrator 25.0.0, SVG Export Plug-In . SVG Version: 6.00 Build 0)  -->
<svg version="1.1" id="Calque_1" xmlns="http://www.w3.org/2000/svg" xmlns:xlink="http://www.w3.org/1999/xlink" x="0px" y="0px"
	 viewBox="0 0 45 45" style="enable-background:new 0 0 45 45;" xml:space="preserve">
<style type="text/css">
	.st0{fill:url(#SVGID_1_);}
	.st1{fill:url(#SVGID_2_);}
	.st2{fill:url(#SVGID_3_);}
	.st3{fill:#FFFFFF;}
</style>
<g>
	<g id="Calque_2_1_">
		<g id="Calque_1-2">
			
				<linearGradient id="SVGID_1_" gradientUnits="userSpaceOnUse" x1="0" y1="22.5" x2="45" y2="22.5" gradientTransform="matrix(1 0 0 -1 0 45)">
				<stop  offset="0" style="stop-color:#16F7B4"/>
				<stop  offset="1" style="stop-color:#21BBEE"/>
			</linearGradient>
			<circle class="st0" cx="22.5" cy="22.5" r="22.5"/>
			
				<linearGradient id="SVGID_2_" gradientUnits="userSpaceOnUse" x1="8.0794" y1="25.9505" x2="40.4794" y2="25.9505" gradientTransform="matrix(1.01 0 0 -1.01 -2.25 49.26)">
				<stop  offset="0" style="stop-color:#1C2057"/>
				<stop  offset="1" style="stop-color:#17243E"/>
			</linearGradient>
			<circle class="st1" cx="22.4" cy="23" r="16.4"/>
			
				<linearGradient id="SVGID_3_" gradientUnits="userSpaceOnUse" x1="11.14" y1="20.095" x2="33.51" y2="20.095" gradientTransform="matrix(1 0 0 -1 0 45)">
				<stop  offset="0" style="stop-color:#16F7B4"/>
				<stop  offset="1" style="stop-color:#21BBEE"/>
			</linearGradient>
			<path class="st2" d="M11.2,15.1l8.9,19.7h4.5L33.5,15H11.1L11.2,15.1z M28.6,18l-6,13.8h-0.5L16,18H28.6z"/>
			<polygon class="st3" points="24,1.3 33.1,5.9 24,10.6 			"/>
			<path class="st3" d="M35.1,12.5c5.8,7,4.8,17.3-2.1,23.1s-17.3,4.8-23.1-2.1S5.1,16.1,12,10.3c2.7-2.3,6.1-3.6,9.7-3.8V4.1
				c-10.4,0.5-18.4,9.2-18,19.6s9.2,18.4,19.6,18s18.4-9.2,18-19.6c-0.1-3.4-1.2-6.8-3.1-9.6H35.1z"/>
		</g>
	</g>
</g>
</svg>
