<svg xmlns="http://www.w3.org/2000/svg" xmlns:xlink="http://www.w3.org/1999/xlink" viewBox="0 0 45 45"><defs><style>.cls-1{fill:url(#Dégradé_sans_nom_9);}.cls-2{fill:#fff;}</style><linearGradient id="Dégradé_sans_nom_9" y1="22.5" x2="45" y2="22.5" gradientUnits="userSpaceOnUse"><stop offset="0" stop-color="#16f7b4"/><stop offset="1" stop-color="#21bbee"/></linearGradient></defs><g id="Calque_2" data-name="Calque 2"><g id="Calque_1-2" data-name="Calque 1"><rect class="cls-1" width="45" height="45" rx="4.63"/><path class="cls-2" d="M28.63,22.39c0,12.39,0,11.75-.88,12.08-5.65,2.1-12.95,1.42-14.49.52-1.15-.52-2.08-1.63-1.18-2.44.39-.33-.93-.23,8.22-.23a.57.57,0,0,0,0-1.14c-10.82,0-7.16.12-8.54-.33a1.87,1.87,0,0,1-1-1.08c-.33-.83.26-1.07.46-1.42,7.24,0,7.64.23,7.64-.57s-.13-.57-7.73-.57c-.26-.34-.49-.25-1-.66a1.39,1.39,0,0,1-.13-2c.28-.27-.76-.19,7.08-.19a.57.57,0,0,0,0-1.14c-9.36,0-6.33.07-7.41-.22a1.55,1.55,0,0,1-1.08-1.75c.23-.95.11-.73,9.06-.73,1.31,0,2.66-1,2.34-2.26,0,0-.44-2.18-.58-3.61a5.19,5.19,0,0,1,.16-2.44c.16-.61.94-3.22,1.52-3.43s1.57-.15,1.57.62c0,1.17.17,4.57,1,6.25C27.19,22.36,27.73,21.74,28.63,22.39Z"/><path class="cls-2" d="M36.39,22V35.7a.65.65,0,0,1-.64.66H30.13a.65.65,0,0,1-.64-.66V22a.66.66,0,0,1,.64-.67h5.62A.66.66,0,0,1,36.39,22Z"/><path class="cls-2" d="M36.62,20.84H29.08V36.63h2.83V28.82A4.11,4.11,0,0,1,36,24.67h.66Z"/><path class="cls-2" d="M19.79,32.06H11.45v2.75l2.08.68v-.23a1.69,1.69,0,0,1,1.67-1.71h3.19a1.42,1.42,0,0,0,1.4-1.43Z"/><path class="cls-2" d="M12.57,31.52v-.47a1.69,1.69,0,0,1,1.65-1.7l2.9,0a1.42,1.42,0,0,0,1.38-1.43H10.41v1.41h.08v1.55Z"/><path class="cls-2" d="M12.92,25.48l2.05,0A1.41,1.41,0,0,0,16.35,24H9.29v.93H9.2v1.8l2.08.67v-.23A1.68,1.68,0,0,1,12.92,25.48Z"/><path class="cls-2" d="M12.12,21.62,17,21.57a1.4,1.4,0,0,0,1.38-1.42h-10v2.5l2.09.67h0A1.68,1.68,0,0,1,12.12,21.62Z"/><path class="cls-2" d="M27.59,21.59v6.23a8.22,8.22,0,0,1-5.92,8,5.1,5.1,0,0,1-1.15.19s6.58-.63,8.22-1.64c0,0,.09-12.6,0-12.51S27.59,21.59,27.59,21.59Z"/><path class="cls-2" d="M35.75,20.15c-5.38,0-6.82-.44-7.3,1.3-.8-.57-3.13-5.19-3.3-5.52-.29-.58-1.35-2.18-1.33-6.56A1.83,1.83,0,0,0,22,7.5c-1.45,0-2.29.24-3.41,4.37a6.15,6.15,0,0,0-.19,2.86c.53,5.49,2.94,4.65-8.12,4.6-1.3,0-2.34.2-2.68,1.61a2.67,2.67,0,0,0,1.51,3,2.61,2.61,0,0,0,1.07,4c-1.27,1.34-.22,3.37,1.06,4C10.13,33,10.44,35,12.82,36c1.36.6,8.94,1.88,15.35-.5.28-.11.21-.29.21.53a1.43,1.43,0,0,0,1.41,1.44h6.3a1.43,1.43,0,0,0,1.41-1.44V22A1.78,1.78,0,0,0,35.75,20.15ZM28.38,21.4Zm-.39,13c-3,1.7-12.06,1.78-14.73.64-1.14-.52-2.09-1.62-1.18-2.44.38-.33-.92-.23,8.22-.23a.57.57,0,0,0,0-1.14c-10.79,0-7.17.13-8.54-.33a1.87,1.87,0,0,1-1-1.08c-.33-.84.26-1.08.46-1.42,7.24,0,7.64.22,7.64-.57s-.13-.57-7.73-.57c-.27-.33-.51-.26-1-.66a1.38,1.38,0,0,1-.13-2c.28-.26-.77-.18,7.08-.18a.57.57,0,0,0,0-1.14c-9.37,0-6.33.07-7.41-.23a1.54,1.54,0,0,1-1.08-1.75c.24-1,.29-.72,9.06-.72,1.28,0,2.67-.9,2.32-2.42a27.61,27.61,0,0,1-.62-4.31c-.08-1.3,1.15-4.8,1.74-5s1.58-.16,1.57.62c0,1.17.17,4.57,1,6.25,1.82,3.57,3,6,4.64,7.18C28.38,35.42,28.55,34,28,34.35Zm1.5,1.35c0-14.57-.27-14.41.64-14.41,5.75,0,6.26-.24,6.26.66,0,14.39.27,14.41-.64,14.41C30,36.36,29.49,36.6,29.49,35.7Z"/></g></g></svg>