<svg version="1.0" xmlns="http://www.w3.org/2000/svg" width="666.667" height="666.667" viewBox="0 0 500 500"><path d="M256.696 52.679c-30.803 6.473-60.937 26.785-81.473 54.687l-9.152 12.277-7.589-3.348c-4.464-1.786-14.732-3.349-24.554-3.349-20.312 0-34.375 5.58-48.883 19.42C74.553 142.411 62.5 164.956 62.5 174.33c0 4.688-2.679 7.59-14.732 15.402-75.447 48.66-57.143 168.304 29.241 190.848 11.384 2.902 36.83 3.349 175.223 3.349 172.545 0 174.777-.224 195.982-10.938C477.455 358.036 500 320.313 500 286.384c0-24.554-9.821-51.563-25-68.973-9.598-10.938-29.91-24.107-42.857-27.679-9.375-2.455-10.268-3.571-11.384-10.937-5.134-33.036-15.848-59.599-32.366-79.241-33.036-39.733-83.036-57.367-131.696-46.875zm12.277 144.196c8.706 4.018 10.491 14.062 9.598 58.259l-.67 39.955-6.25 5.357c-6.25 5.357-6.919 5.357-49.776 5.357-58.705 0-54.464 4.465-54.464-56.696v-45.759l5.803-4.464c5.58-4.464 8.929-4.688 47.991-4.688 27.232 0 43.974.893 47.768 2.679zM333.705 250c0 29.464-.446 53.571-1.116 53.571-.446 0-10.268-5.58-21.652-12.5l-20.758-12.5V221.43l19.642-12.277c10.715-6.92 20.536-12.5 21.652-12.5 1.34-.223 2.232 18.973 2.232 53.348z"/></svg>