<?xml version="1.0" encoding="UTF-8" standalone="no"?><!DOCTYPE svg PUBLIC "-//W3C//DTD SVG 1.1//EN" "http://www.w3.org/Graphics/SVG/1.1/DTD/svg11.dtd"><svg width="100%" height="100%" viewBox="0 0 416 416" version="1.1" xmlns="http://www.w3.org/2000/svg" xmlns:xlink="http://www.w3.org/1999/xlink" xml:space="preserve" xmlns:serif="http://www.serif.com/" style="fill-rule:evenodd;clip-rule:evenodd;stroke-linecap:round;stroke-linejoin:round;stroke-miterlimit:1.5;"><g><circle cx="207.97" cy="207.97" r="205.5" style="fill:none;stroke:#1e3efa;stroke-width:4.94px;"/><path d="M200.97,168.97l-3,208c0,0 -1.524,1.844 3,4c4.525,2.157 15,0 15,0c2.978,-0.681 3.247,-3.168 3,-6l-4,-207l80,102c0,0 2.474,3.33 4,0c1.526,-3.329 7.812,-69.715 -43,-98l86,13c0,0 6.156,0.037 5,-3c0,0 -41.163,-71.327 -117,-35l86,-69c0,0 6.817,-3.555 -5,-4c0,0 -80.047,-14.618 -103,68c0,0 -18.835,-83.697 -109,-66c0,0 -1.158,1.717 1,4c0,0 87.246,66.928 87,67c-0.246,0.073 -69.263,-35.452 -117,33c0,0 -3.345,4.994 4,5l87,-13c0,0 -54.35,24.002 -43,96c0,0 1.657,6.205 6,1l77,-100Z" style="fill:#1e3efa;"/></g></svg>