<svg width="174" height="174" viewBox="0 0 174 174" fill="none" xmlns="http://www.w3.org/2000/svg">
<g opacity="0.3">
<path opacity="0.3" d="M9.39677 65.7335L4.38184 87.9986L23.1884 96.398L30.4057 103.649L33.0914 104.287L50.8001 109.369L48.9564 89.1225L39.7445 80.2103L31.532 64.0488L9.39677 65.7335Z" fill="#CC0E74"/>
</g>
<g opacity="0.3">
<path opacity="0.3" d="M8.85914 110.006L3 87.7692L11.3415 67.2913L31.6593 74.569L54.0745 66.7305L49.0595 75.5641L59.3978 89.1222L51.9508 110.082L30.7385 110.517L26.2091 106.05L8.85914 110.006Z" fill="#CC0E74"/>
</g>
<g opacity="0.3">
<path opacity="0.3" d="M32.0611 57L52.3024 68.6421L62.9993 89.3993L49.4111 107.682L30.7314 117L15.4285 103.366L9.05762 87.9198L16.4258 72.6508L23.9253 76.8887L32.0611 57Z" fill="#CC0E74"/>
</g>
<g opacity="0.31">
<path opacity="0.31" d="M7.03223 87.5564L13.8384 104.995L30.8034 107.598L39.5801 95.5215L46.465 88.6803L49.4328 76.9596L47.3092 73.4375L32.0829 78.0332L23.947 76.8832L23.024 79.6415L7.03223 87.5564Z" fill="#CC0E74"/>
</g>
<g opacity="0.38">
<path opacity="0.38" d="M51.1761 69.6445L49.4111 76.9724L55.2702 88.1301L37.999 104.726L30.9348 105.134L26.202 106.055L19.1137 99.4929L9.05762 87.9271L17.7074 76.0537L25.4846 77.0488L31.9846 70.2075L51.1761 69.6445Z" fill="#CC0E74"/>
</g>
<path opacity="0.35" d="M47.0723 73.2383L48.6339 75.9704L41.6222 88.6098L46.1013 104.005L30.595 105.077L24.2219 106.482L15.0866 103.316L11.5566 87.6889L23.019 79.4423L24.7862 77.5285L31.4392 81.127L47.0723 73.2383Z" fill="#CC0E74"/>
<path fill-rule="evenodd" clip-rule="evenodd" d="M135.718 82.8554C134.834 82.86 133.972 83.1353 133.249 83.6444C132.484 84.267 131.903 85.0871 131.57 86.0161C131.142 87.085 130.907 88.2217 130.878 89.3729C130.878 91.3477 131.667 92.3351 133.148 92.3351C133.615 92.3184 134.079 92.2527 134.532 92.139L135.123 89.5712H132.654L133.346 86.1153H139.857L138.08 95.0021C136.304 95.5901 134.444 95.89 132.573 95.8903C131.772 95.9261 130.972 95.7955 130.224 95.5068C129.476 95.2182 128.796 94.7776 128.227 94.2131C127.137 92.8411 126.577 91.1233 126.648 89.3729C126.62 87.4954 127.026 85.6368 127.834 83.942C128.534 82.4283 129.668 81.1565 131.092 80.2876C132.529 79.4506 134.163 79.0081 135.826 79.0049C137.484 78.9499 139.124 79.3599 140.56 80.1884L138.982 83.8428C138.014 83.2008 136.879 82.8575 135.718 82.8554ZM122.884 79.3976L121.5 86.3096C121.303 87.297 121.106 88.6797 120.909 90.4577H120.81L117.749 79.3976H112.909L109.651 95.7893H113.402L114.786 88.9675C114.982 87.9801 115.179 86.402 115.379 84.2333H115.476L118.538 95.7871H123.378L126.636 79.3953L122.884 79.3976ZM82.7057 95.7906H78.4584L81.7182 79.3988H85.9655L82.7057 95.7906ZM87.1227 79.3988H98.0859L97.3938 83.0532H93.9378L91.4692 95.7906H87.2219L89.7897 83.0532H86.4328L87.1227 79.3988ZM168.523 80.7847C167.959 80.2121 167.28 79.7661 166.531 79.4765C165.781 79.1869 164.979 79.0603 164.176 79.1051C162.628 79.0602 161.107 79.5103 159.832 80.3901C158.485 81.3533 157.452 82.6917 156.861 84.2384C156.14 85.9589 155.771 87.8062 155.774 89.6715C155.714 90.5111 155.822 91.3542 156.093 92.1511C156.364 92.948 156.793 93.6825 157.352 94.311C157.937 94.883 158.633 95.3275 159.398 95.6166C160.163 95.9057 160.979 96.033 161.796 95.9906C163.343 96.036 164.865 95.5867 166.14 94.7078C167.432 93.7307 168.452 92.4383 169.102 90.9542C169.822 89.2341 170.191 87.3879 170.189 85.5234C170.247 83.7908 169.653 82.0994 168.523 80.7847ZM165.367 88.9816C165.135 89.9171 164.657 90.7733 163.983 91.4615C163.749 91.7315 163.461 91.9499 163.138 92.1028C162.815 92.2557 162.464 92.3398 162.107 92.3497C160.725 92.3497 159.936 91.4615 159.936 89.5858C159.947 88.4489 160.113 87.3187 160.43 86.2268C160.703 85.2828 161.174 84.4076 161.812 83.659C162.318 83.0879 163.026 82.7342 163.786 82.6716C164.073 82.6392 164.363 82.6866 164.625 82.8088C164.886 82.9309 165.108 83.123 165.268 83.3637C165.604 83.9667 165.774 84.6482 165.761 85.3385C165.884 86.5651 165.745 87.8039 165.353 88.9726L165.367 88.9816ZM144.897 80.3895C146.173 79.51 147.695 79.0599 149.244 79.1045C150.045 79.0613 150.847 79.1893 151.595 79.48C152.344 79.7708 153.021 80.2177 153.583 80.7908C154.639 82.1466 155.228 83.8072 155.263 85.5251C155.265 87.3896 154.896 89.2358 154.176 90.9559C153.525 92.4392 152.505 93.7313 151.214 94.7095C149.938 95.5884 148.416 96.0377 146.868 95.9922C146.051 96.0341 145.235 95.9062 144.471 95.6168C143.706 95.3273 143.01 94.8825 142.426 94.3105C141.867 93.6814 141.44 92.9468 141.169 92.1501C140.898 91.3533 140.789 90.5104 140.848 89.6709C140.846 87.8057 141.215 85.9587 141.935 84.2378C142.524 82.6923 143.554 81.354 144.897 80.3895ZM149.045 91.4519C149.719 90.7635 150.196 89.9073 150.427 88.972C150.767 87.7886 150.899 86.5552 150.817 85.3267C150.832 84.6362 150.661 83.9544 150.324 83.3518C150.165 83.1109 149.942 82.9187 149.681 82.7966C149.419 82.6744 149.129 82.627 148.842 82.6597C148.082 82.7232 147.375 83.0767 146.868 83.6471C146.233 84.3979 145.764 85.2735 145.49 86.2172C145.174 87.3093 145.008 88.4394 144.996 89.5762C144.996 91.4519 145.785 92.3401 147.17 92.3401C147.527 92.3299 147.878 92.2457 148.201 92.0928C148.524 91.9399 148.811 91.7217 149.045 91.4519ZM102.361 79.3988L94.4705 95.7906H98.8148L100.1 92.7313H104.834L104.933 95.7906H108.991L107.708 79.3988H102.361ZM101.671 89.2731L103.941 83.9414C104.231 83.3396 104.463 82.7115 104.633 82.0658V84.5456L104.829 89.2799L101.671 89.2731ZM78.6362 82.3429C78.9081 82.9726 79.044 83.6527 79.035 84.3386C79.0603 85.1709 78.9058 85.9989 78.5822 86.7661C78.2585 87.5333 77.7732 88.2217 77.1593 88.7843C75.7274 89.9036 73.9376 90.4645 72.123 90.3624H71.2347L70.1481 95.7932H66L69.2599 79.4015H73.2118C74.738 79.2782 76.2543 79.7364 77.4569 80.6842C77.9624 81.1479 78.3642 81.7131 78.6362 82.3429ZM74.197 86.1151C74.5768 85.6767 74.7871 85.1169 74.7899 84.537C74.7976 84.4538 74.7983 84.3701 74.7922 84.2867C74.7772 84.108 74.7268 83.9341 74.644 83.775C74.5612 83.6159 74.4476 83.4749 74.3097 83.3601C74.1719 83.2454 74.0126 83.1592 73.8412 83.1066C73.6697 83.0539 73.4895 83.0359 73.311 83.0536H72.7181L71.9268 86.8049H72.6189C72.9152 86.8045 73.2083 86.743 73.4798 86.6243C73.7513 86.5056 73.9954 86.3323 74.197 86.1151Z" fill="url(#paint0_linear_817_18673)"/>
<defs>
<linearGradient id="paint0_linear_817_18673" x1="222.289" y1="87.5" x2="216.886" y2="54.3816" gradientUnits="userSpaceOnUse">
<stop stop-color="#CC0E74"/>
<stop offset="1" stop-color="#FFB2A7"/>
</linearGradient>
</defs>
</svg>
