<svg width="452" height="67" viewBox="0 0 452 67" fill="none" xmlns="http://www.w3.org/2000/svg">
<g clip-path="url(#clip0)">
<path d="M203.563 53.5092L223.76 2.17944H229.268L248.906 53.5092H243.877L237.97 37.3838H214.58L208.513 53.5092H203.563ZM216.256 33.2327H236.373L226.315 6.2507L216.256 33.2327Z" fill="#084663"/>
<path d="M283.711 2.09814H288.022V53.5077H283.711V47.0416H283.551C281.077 51.9112 275.409 54.5455 270.699 54.5455C258.804 54.5455 254.015 46.0837 254.015 35.1472C254.015 24.7695 259.203 15.5892 270.459 15.5892C275.648 15.5892 280.917 17.984 283.631 22.5343V2.09814H283.711ZM271.258 19.4209C262.397 19.4209 258.246 26.9248 258.645 36.1849C258.725 45.445 264.073 50.6339 271.258 50.6339C279.32 50.6339 283.711 43.7686 283.711 34.9077C283.711 26.5257 279.001 19.4209 271.258 19.4209Z" fill="#084663"/>
<path d="M294.887 16.5474H299.517L311.491 48.2393L323.465 16.5474H328.095L313.726 53.508H308.937L294.887 16.5474Z" fill="#084663"/>
<path d="M334.882 8.48443V2.09814H339.592V8.48443H334.882ZM335.121 53.5077V16.5471H339.432V53.5077H335.121Z" fill="#084663"/>
<path d="M352.763 41.9328C354.12 48.319 357.393 50.6341 363.78 50.6341C370.006 50.6341 372.88 47.3611 372.88 43.7688C372.88 33.0718 349.171 40.6555 349.171 26.0469C349.171 19.9001 353.961 15.5095 362.183 15.5095C370.166 15.5095 375.355 18.7825 376.472 27.1645H372.082C371.284 21.4967 367.452 19.4211 362.103 19.4211C356.675 19.4211 353.721 21.9756 353.721 25.8074C353.721 35.8658 377.43 29.5593 377.43 43.7688C377.43 50.7937 371.044 54.5457 362.343 54.5457C353.641 54.5457 348.612 48.9577 348.293 42.0126H352.763V41.9328Z" fill="#084663"/>
<path d="M438.498 53.5079H434.188V16.5473H438.498V23.4924H438.658C440.973 17.5851 444.485 15.5894 450.712 15.5894V20.2194C441.053 19.9799 438.498 27.1645 438.498 35.3868V53.5079V53.5079Z" fill="#084663"/>
<path d="M45.9015 10.959H35.2045C34.4062 10.959 33.7676 10.3204 33.7676 9.52211V2.25771C33.7676 1.45943 34.3264 0.820801 35.2045 0.820801H68.4132C69.2114 0.820801 69.8501 1.45943 69.8501 2.25771V9.60194C69.8501 10.3204 69.2114 11.0389 68.4132 11.0389H57.7161V51.8312C57.7161 52.5497 57.0775 53.2682 56.2792 53.2682H47.2586C46.5401 53.2682 45.8217 52.6295 45.8217 51.8312V10.959H45.9015Z" fill="#A1DCF7"/>
<path d="M73.043 2.25771C73.043 1.53926 73.6816 0.820801 74.4799 0.820801H83.6602C84.4585 0.820801 85.0971 1.45943 85.0971 2.25771V32.5926C85.0971 37.8612 89.0087 42.0123 94.2774 42.0123C99.6259 42.0123 103.617 37.8612 103.617 32.5926V2.25771C103.617 1.53926 104.176 0.820801 105.054 0.820801H114.234C114.953 0.820801 115.671 1.45943 115.671 2.25771V33.1514C115.671 44.487 106.092 53.9866 94.2774 53.9866C82.5426 53.9866 73.043 44.5668 73.043 33.1514V2.25771Z" fill="#A1DCF7"/>
<path d="M118.945 2.25771C118.945 1.53926 119.504 0.820801 120.302 0.820801H138.583C153.032 0.820801 164.846 12.5556 164.846 26.9247C164.846 41.4535 153.032 53.1883 138.583 53.1883H120.302C119.583 53.1883 118.945 52.5497 118.945 51.7514V2.25771ZM137.784 42.0922C146.246 42.0922 152.393 35.4664 152.393 26.9247C152.393 18.4629 146.246 11.8371 137.784 11.8371H130.6V42.172H137.784V42.0922Z" fill="#A1DCF7"/>
<path d="M173.787 27.9625L157.183 2.97617C156.624 2.01823 157.183 0.820801 158.38 0.820801H168.119C168.758 0.820801 169.077 1.21994 169.316 1.45943L179.694 16.7865L190.072 1.45943C190.311 1.14012 190.631 0.820801 191.269 0.820801H201.008C202.206 0.820801 202.765 2.01823 202.206 2.97617L185.442 27.8827V51.7514C185.442 52.4699 184.803 53.1883 184.005 53.1883H175.064C174.266 53.1883 173.627 52.5497 173.627 51.7514V27.9625H173.787Z" fill="#A1DCF7"/>
<path d="M30.255 0.820801H23.8687C16.6842 0.820801 19.6378 0.820801 19.6378 0.820801C8.30217 0.980458 2.63434 8.40451 2.63434 15.7487C2.63434 24.6895 10.697 29.7187 17.1631 32.2732C22.2722 34.269 24.9065 36.6638 24.9065 39.857C24.9065 42.4913 22.7511 44.3274 19.7176 44.3274C19.7176 44.3274 17.5623 44.3274 14.6086 44.3274H7.74337H1.35708C0.5588 44.3274 0 44.8862 0 45.5248V53.4278C0 54.0664 0.5588 54.7051 1.27726 54.7051H1.99571C9.26011 54.7051 20.1966 54.7051 20.2764 54.7051C31.2928 54.7051 37.9186 46.9617 37.9186 39.2183C37.9186 29.0801 28.6584 24.4501 22.831 22.135C16.9236 19.7402 14.6885 17.6646 14.6885 14.8706C14.6885 12.8749 16.6043 11.1985 19.1588 11.0389C19.2387 11.0389 29.0576 11.0389 29.1374 11.0389H30.3348C30.9735 11.0389 31.5323 10.4801 31.5323 9.84143V2.09806C31.5323 1.3796 30.8936 0.820801 30.255 0.820801Z" fill="#A1DCF7"/>
<path d="M397.467 33.8697C397.147 33.8697 396.908 33.7898 396.589 33.71C395.471 33.231 394.992 31.9538 395.471 30.8362C398.425 23.8911 406.408 20.6181 413.353 23.5718C414.47 24.0508 414.949 25.328 414.47 26.4456C413.991 27.5632 412.714 28.0422 411.596 27.5632C406.887 25.5675 401.378 27.8027 399.383 32.5126C399.143 33.3907 398.345 33.8697 397.467 33.8697Z" fill="#F65661"/>
<path d="M422.054 49.9953C430.276 41.7729 430.276 28.4416 422.054 20.2192C413.832 11.9969 400.5 11.9969 392.278 20.2192C385.333 27.1643 384.295 37.542 389.085 45.6047C389.085 45.6047 389.404 46.1635 388.925 46.6425C386.211 49.3567 378.228 57.3395 378.228 57.3395C376.073 59.4949 375.594 62.4485 377.51 64.3644L377.829 64.6837C379.745 66.5996 382.699 66.0408 384.854 63.9653C384.854 63.9653 392.917 55.9026 395.551 53.2683C396.03 52.7893 396.589 53.1086 396.589 53.1086C404.731 57.9781 415.029 56.9404 422.054 49.9953ZM396.19 46.0837C390.123 40.0167 390.123 30.1978 396.19 24.1308C402.257 18.0639 412.076 18.0639 418.143 24.1308C424.209 30.1978 424.209 40.0167 418.143 46.0837C412.076 52.1507 402.257 52.1507 396.19 46.0837Z" fill="#F65661"/>
</g>
<defs>
<clipPath id="clip0">
<rect width="451.031" height="65.4594" fill="white" transform="translate(0 0.820801)"/>
</clipPath>
</defs>
</svg>
