<?xml version="1.0" encoding="utf-8"?>
<!-- Generator: Adobe Illustrator 18.0.0, SVG Export Plug-In . SVG Version: 6.00 Build 0)  -->
<!DOCTYPE svg PUBLIC "-//W3C//DTD SVG 1.1//EN" "http://www.w3.org/Graphics/SVG/1.1/DTD/svg11.dtd">
<svg version="1.1" id="Calque_1" xmlns="http://www.w3.org/2000/svg" xmlns:xlink="http://www.w3.org/1999/xlink" x="0px" y="0px"
	 viewBox="0 0 77.6 18.4" enable-background="new 0 0 77.6 18.4" xml:space="preserve">
<g>
	<defs>
		<path id="SVGID_1_" d="M8.1,0C8.1,0,8,0,8,0c0,0,0,0,0,0c0,0-0.1,0-0.1,0c0,0,0,0,0,0c0,0-0.1,0-0.1,0c0,0,0,0,0,0
			c0,0-0.1,0-0.1,0.1c0,0,0,0,0,0L3.1,2.7C2.5,3,2.3,3.8,2.6,4.3c0.3,0.6,1,0.8,1.6,0.4L7,3.2v12l-4.6-2.7V8.7l0.9,0.5
			c0.6,0.3,1.3,0.1,1.6-0.4C5.2,8.2,5,7.5,4.5,7.2L1.8,5.7C1.4,5.5,1,5.5,0.6,5.7C0.2,5.9,0,6.3,0,6.7v6.5c0,0.4,0.2,0.8,0.6,1l7,4
			c0,0,0,0,0,0c0,0,0,0,0,0c0,0,0.1,0,0.1,0.1c0,0,0,0,0,0c0,0,0,0,0,0c0,0,0.1,0,0.1,0c0,0,0,0,0,0c0,0,0,0,0,0c0,0,0.1,0,0.1,0
			c0,0,0,0,0,0c0,0,0,0,0,0c0,0,0,0,0,0c0,0,0.1,0,0.1,0c0,0,0,0,0,0c0,0,0,0,0,0c0,0,0.1,0,0.1,0c0,0,0,0,0,0c0,0,0.1,0,0.1,0
			c0,0,0,0,0,0c0,0,0.1,0,0.1,0c0,0,0,0,0,0c0,0,0.1,0,0.1-0.1c0,0,0,0,0,0l7-4c0.2-0.1,0.3-0.3,0.4-0.4c0,0,0,0,0,0
			c0,0,0-0.1,0.1-0.1c0,0,0,0,0-0.1c0-0.1,0-0.1,0-0.2c0,0,0-0.1,0-0.1c0,0,0,0,0-0.1c0,0,0,0,0-0.1V6.7c0-0.4-0.2-0.8-0.6-1
			c-0.4-0.2-0.8-0.2-1.2,0l-2.7,1.5c-0.6,0.3-0.8,1-0.4,1.6c0.3,0.6,1,0.8,1.6,0.4l0.9-0.5v3.8l-4.6,2.7v-12l2.8,1.6
			C12.3,4.9,12.5,5,12.7,5c0.4,0,0.8-0.2,1-0.6c0.3-0.6,0.1-1.3-0.4-1.6L8.7,0.2c0,0,0,0,0,0c0,0-0.1,0-0.1-0.1c0,0,0,0,0,0
			c0,0-0.1,0-0.1,0c0,0,0,0,0,0c0,0-0.1,0-0.1,0c0,0,0,0,0,0C8.2,0,8.2,0,8.1,0L8.1,0z"/>
	</defs>
	<clipPath id="SVGID_2_">
		<use xlink:href="#SVGID_1_"  overflow="visible"/>
	</clipPath>
	
		<linearGradient id="SVGID_3_" gradientUnits="userSpaceOnUse" x1="4.976074e-005" y1="18.4369" x2="1" y2="18.4369" gradientTransform="matrix(0 18.4369 18.4369 0 -331.7777 -1.335144e-005)">
		<stop  offset="0" style="stop-color:#59B2C1"/>
		<stop  offset="0.5283" style="stop-color:#6386D3"/>
		<stop  offset="0.9996" style="stop-color:#163272"/>
		<stop  offset="1" style="stop-color:#163272"/>
	</linearGradient>
	<rect y="0" clip-path="url(#SVGID_2_)" fill="url(#SVGID_3_)" width="16.3" height="18.4"/>
</g>
<g>
	<defs>
		<rect id="SVGID_4_" y="0" width="77.6" height="18.4"/>
	</defs>
	<clipPath id="SVGID_5_">
		<use xlink:href="#SVGID_4_"  overflow="visible"/>
	</clipPath>
	<polygon clip-path="url(#SVGID_5_)" fill="#272A2E" points="33.1,3.4 33.1,5.9 29.1,5.9 29.1,16.6 26.1,16.6 26.1,5.9 22.1,5.9 
		22.1,3.4 	"/>
	<path clip-path="url(#SVGID_5_)" fill="#272A2E" d="M39.5,9.1C39.2,9,38.9,9,38.6,8.9c-0.3-0.1-0.7-0.1-1.1-0.1c-0.2,0-0.4,0-0.6,0
		c-0.2,0-0.4,0.1-0.6,0.1v7.6h-2.8V7.1c0.5-0.2,1.1-0.3,1.8-0.5c0.7-0.2,1.5-0.2,2.3-0.2c0.2,0,0.3,0,0.6,0c0.2,0,0.4,0,0.6,0.1
		c0.2,0,0.4,0.1,0.6,0.1c0.2,0,0.4,0.1,0.6,0.2L39.5,9.1z"/>
	<path clip-path="url(#SVGID_5_)" fill="#272A2E" d="M44.6,3.7c0,0.5-0.2,0.9-0.5,1.2c-0.3,0.3-0.7,0.4-1.2,0.4
		c-0.5,0-0.9-0.1-1.2-0.4c-0.3-0.3-0.5-0.7-0.5-1.2c0-0.5,0.2-0.9,0.5-1.2C42,2.2,42.4,2,42.9,2c0.5,0,0.9,0.1,1.2,0.4
		C44.4,2.8,44.6,3.2,44.6,3.7 M44.3,16.6h-2.8v-10h2.8V16.6z"/>
	<path clip-path="url(#SVGID_5_)" fill="#272A2E" d="M55.8,16.3c-0.3,0.1-0.5,0.1-0.9,0.2c-0.3,0.1-0.7,0.1-1,0.2
		c-0.4,0.1-0.7,0.1-1.1,0.1c-0.4,0-0.7,0-1.1,0c-0.8,0-1.6-0.1-2.2-0.4c-0.6-0.2-1.2-0.6-1.6-1c-0.4-0.4-0.8-1-1-1.6
		c-0.2-0.6-0.4-1.4-0.4-2.2c0-0.8,0.1-1.5,0.3-2.2c0.2-0.7,0.5-1.2,0.9-1.7c0.4-0.5,0.8-0.8,1.4-1c0.6-0.2,1.2-0.4,1.9-0.4
		c0.4,0,0.7,0,1.1,0.1c0.3,0.1,0.6,0.2,0.9,0.3V2.3l2.8-0.5V16.3z M49.4,11.5c0,0.9,0.2,1.6,0.6,2.1c0.4,0.5,1,0.8,1.7,0.8
		c0.3,0,0.5,0,0.7,0c0.2,0,0.4,0,0.5-0.1V9.2c-0.2-0.1-0.4-0.2-0.7-0.3c-0.3-0.1-0.6-0.1-0.9-0.1C50,8.8,49.4,9.7,49.4,11.5"/>
	<path clip-path="url(#SVGID_5_)" fill="#272A2E" d="M62,6.3c0.8,0,1.5,0.1,2.1,0.3c0.6,0.2,1,0.5,1.3,0.8c0.3,0.4,0.6,0.8,0.7,1.3
		c0.1,0.5,0.2,1.1,0.2,1.7v5.9c-0.4,0.1-1,0.2-1.7,0.3c-0.7,0.1-1.6,0.2-2.6,0.2c-0.6,0-1.2-0.1-1.8-0.2c-0.5-0.1-1-0.3-1.4-0.6
		c-0.4-0.3-0.7-0.6-0.9-1c-0.2-0.4-0.3-0.9-0.3-1.5c0-0.6,0.1-1.1,0.4-1.5c0.2-0.4,0.5-0.7,0.9-1c0.4-0.2,0.8-0.4,1.3-0.5
		c0.5-0.1,1-0.2,1.6-0.2c0.4,0,0.7,0,1,0c0.3,0,0.5,0.1,0.7,0.1v-0.3c0-0.5-0.1-0.9-0.4-1.2c-0.3-0.3-0.8-0.4-1.5-0.4
		c-0.5,0-1,0-1.4,0.1c-0.5,0.1-0.9,0.2-1.2,0.3l-0.4-2.3c0.2-0.1,0.4-0.1,0.6-0.2c0.2-0.1,0.5-0.1,0.8-0.2c0.3,0,0.6-0.1,0.9-0.1
		C61.4,6.3,61.7,6.3,62,6.3 M62.3,14.6c0.3,0,0.5,0,0.8,0c0.3,0,0.5,0,0.6-0.1v-2.1c-0.1,0-0.3-0.1-0.5-0.1c-0.2,0-0.4,0-0.6,0
		c-0.3,0-0.5,0-0.8,0c-0.2,0-0.4,0.1-0.6,0.2c-0.2,0.1-0.3,0.2-0.4,0.4c-0.1,0.2-0.2,0.3-0.2,0.6c0,0.4,0.1,0.8,0.4,0.9
		C61.3,14.5,61.7,14.6,62.3,14.6"/>
	<path clip-path="url(#SVGID_5_)" fill="#272A2E" d="M68.9,6.9c0.5-0.1,1.1-0.3,1.9-0.4c0.8-0.1,1.6-0.2,2.4-0.2
		c0.8,0,1.6,0.1,2.1,0.3c0.6,0.2,1,0.5,1.3,0.9C77,8,77.2,8.5,77.4,9.1c0.1,0.6,0.2,1.2,0.2,1.9v5.6h-2.8v-5.3
		c0-0.9-0.1-1.6-0.4-1.9C74.1,9,73.7,8.8,73,8.8c-0.2,0-0.4,0-0.6,0c-0.2,0-0.4,0-0.6,0.1v7.7h-2.8V6.9z"/>
</g>
</svg>
